M48
INCH,TZ
T1C0.025
T2C0.032
T3C0.040
T4C0.091
T5C0.125
%
G90
G05
T1
X19400Y-15875
X19400Y-17100
X22400Y-17400
X24050Y-15300
X30700Y-18250
X30850Y-19600
X31200Y-18250
X31500Y-18850
X33650Y-19600
X33800Y-18400
X33975Y-17000
X34800Y-18850
X34850Y-17850
X36200Y-16950
X38400Y-18550
T2
X17063Y-15500
X17063Y-16500
X17850Y-15500
X17850Y-16500
X24000Y-9500
X25000Y-9500
X26000Y-9500
X27000Y-9500
X27500Y-28500
X28000Y-9500
X28500Y-28500
X29000Y-9500
X29500Y-28500
X30000Y-9500
X30500Y-28500
X31000Y-9500
X31500Y-28500
X32500Y-9500
X32500Y-28500
X33500Y-9500
X34500Y-9500
X34500Y-28500
X35500Y-9500
X35500Y-28500
X36500Y-9500
X36500Y-28500
X37500Y-9500
X37500Y-28500
X38500Y-9500
X38500Y-28500
X39500Y-9500
X39500Y-28500
T3
X22289Y-11389
X22996Y-12096
X23704Y-12804
X24411Y-13511
X34500Y-24500
X35500Y-24500
X39555Y-17520
X39555Y-18520
X39555Y-19520
X40555Y-17520
X40555Y-18520
X40555Y-19520
T4
X16000Y-13638
X16000Y-18362
T5
X20000Y-28500
X20500Y-9500
X40500Y-15500
X40500Y-26500
T0
M30
