G04 (created by PCBNEW-RS274X (2012-apr-16-27)-stable) date Tue 03 Dec 2013 05:38:56 PM CET*
G01*
G70*
G90*
%MOIN*%
G04 Gerber Fmt 3.4, Leading zero omitted, Abs format*
%FSLAX34Y34*%
G04 APERTURE LIST*
%ADD10C,0.006000*%
%ADD11C,0.000100*%
%ADD12C,0.060000*%
%ADD13O,0.060000X0.120000*%
%ADD14C,0.060000*%
%ADD15C,0.106300*%
%ADD16C,0.125000*%
%ADD17R,0.060000X0.060000*%
%ADD18O,0.055000X0.110000*%
%ADD19C,0.035000*%
%ADD20C,0.012000*%
%ADD21C,0.008000*%
G04 APERTURE END LIST*
G54D10*
G54D11*
G36*
X14726Y-08726D02*
X39806Y-08726D01*
X39701Y-08874D01*
X39664Y-08855D01*
X39625Y-08839D01*
X39584Y-08828D01*
X39541Y-08821D01*
X39497Y-08819D01*
X39493Y-08819D01*
X39493Y-08819D01*
X39450Y-08822D01*
X39408Y-08830D01*
X39367Y-08842D01*
X39329Y-08858D01*
X39293Y-08877D01*
X39259Y-08900D01*
X39228Y-08927D01*
X39199Y-08956D01*
X39174Y-08989D01*
X39152Y-09023D01*
X39134Y-09060D01*
X39119Y-09099D01*
X39109Y-09140D01*
X39102Y-09182D01*
X39101Y-09226D01*
X38899Y-09229D01*
X38899Y-09226D01*
X38898Y-09181D01*
X38891Y-09139D01*
X38880Y-09097D01*
X38865Y-09058D01*
X38846Y-09020D01*
X38823Y-08985D01*
X38797Y-08953D01*
X38768Y-08923D01*
X38736Y-08897D01*
X38701Y-08874D01*
X38664Y-08855D01*
X38625Y-08839D01*
X38584Y-08828D01*
X38541Y-08821D01*
X38497Y-08819D01*
X38493Y-08819D01*
X38493Y-08819D01*
X38450Y-08822D01*
X38408Y-08830D01*
X38367Y-08842D01*
X38329Y-08858D01*
X38293Y-08877D01*
X38259Y-08900D01*
X38228Y-08927D01*
X38199Y-08956D01*
X38174Y-08989D01*
X38152Y-09023D01*
X38134Y-09060D01*
X38119Y-09099D01*
X38109Y-09140D01*
X38102Y-09182D01*
X38101Y-09226D01*
X37899Y-09229D01*
X37899Y-09226D01*
X37898Y-09181D01*
X37891Y-09139D01*
X37880Y-09097D01*
X37865Y-09058D01*
X37846Y-09020D01*
X37823Y-08985D01*
X37797Y-08953D01*
X37768Y-08923D01*
X37736Y-08897D01*
X37701Y-08874D01*
X37664Y-08855D01*
X37625Y-08839D01*
X37584Y-08828D01*
X37541Y-08821D01*
X37497Y-08819D01*
X37493Y-08819D01*
X37493Y-08819D01*
X37450Y-08822D01*
X37408Y-08830D01*
X37367Y-08842D01*
X37329Y-08858D01*
X37293Y-08877D01*
X37259Y-08900D01*
X37228Y-08927D01*
X37199Y-08956D01*
X37174Y-08989D01*
X37152Y-09023D01*
X37134Y-09060D01*
X37119Y-09099D01*
X37109Y-09140D01*
X37102Y-09182D01*
X37101Y-09226D01*
X36899Y-09229D01*
X36899Y-09226D01*
X36898Y-09181D01*
X36891Y-09139D01*
X36880Y-09097D01*
X36865Y-09058D01*
X36846Y-09020D01*
X36823Y-08985D01*
X36797Y-08953D01*
X36768Y-08923D01*
X36736Y-08897D01*
X36701Y-08874D01*
X36664Y-08855D01*
X36625Y-08839D01*
X36584Y-08828D01*
X36541Y-08821D01*
X36497Y-08819D01*
X36493Y-08819D01*
X36493Y-08819D01*
X36450Y-08822D01*
X36408Y-08830D01*
X36367Y-08842D01*
X36329Y-08858D01*
X36293Y-08877D01*
X36259Y-08900D01*
X36228Y-08927D01*
X36199Y-08956D01*
X36174Y-08989D01*
X36152Y-09023D01*
X36134Y-09060D01*
X36119Y-09099D01*
X36109Y-09140D01*
X36102Y-09182D01*
X36101Y-09226D01*
X35899Y-09229D01*
X35899Y-09226D01*
X35898Y-09181D01*
X35891Y-09139D01*
X35880Y-09097D01*
X35865Y-09058D01*
X35846Y-09020D01*
X35823Y-08985D01*
X35797Y-08953D01*
X35768Y-08923D01*
X35736Y-08897D01*
X35701Y-08874D01*
X35664Y-08855D01*
X35625Y-08839D01*
X35584Y-08828D01*
X35541Y-08821D01*
X35497Y-08819D01*
X35493Y-08819D01*
X35493Y-08819D01*
X35450Y-08822D01*
X35408Y-08830D01*
X35367Y-08842D01*
X35329Y-08858D01*
X35293Y-08877D01*
X35259Y-08900D01*
X35228Y-08927D01*
X35199Y-08956D01*
X35174Y-08989D01*
X35152Y-09023D01*
X35134Y-09060D01*
X35119Y-09099D01*
X35109Y-09140D01*
X35102Y-09182D01*
X35101Y-09226D01*
X34899Y-09229D01*
X34899Y-09226D01*
X34898Y-09181D01*
X34891Y-09139D01*
X34880Y-09097D01*
X34865Y-09058D01*
X34846Y-09020D01*
X34823Y-08985D01*
X34797Y-08953D01*
X34768Y-08923D01*
X34736Y-08897D01*
X34701Y-08874D01*
X34664Y-08855D01*
X34625Y-08839D01*
X34584Y-08828D01*
X34541Y-08821D01*
X34497Y-08819D01*
X34493Y-08819D01*
X34493Y-08819D01*
X34450Y-08822D01*
X34408Y-08830D01*
X34367Y-08842D01*
X34329Y-08858D01*
X34293Y-08877D01*
X34259Y-08900D01*
X34228Y-08927D01*
X34199Y-08956D01*
X34174Y-08989D01*
X34152Y-09023D01*
X34134Y-09060D01*
X34119Y-09099D01*
X34109Y-09140D01*
X34102Y-09182D01*
X34101Y-09226D01*
X33899Y-09229D01*
X33899Y-09226D01*
X33898Y-09181D01*
X33891Y-09139D01*
X33880Y-09097D01*
X33865Y-09058D01*
X33846Y-09020D01*
X33823Y-08985D01*
X33797Y-08953D01*
X33768Y-08923D01*
X33736Y-08897D01*
X33701Y-08874D01*
X33664Y-08855D01*
X33625Y-08839D01*
X33584Y-08828D01*
X33541Y-08821D01*
X33497Y-08819D01*
X33493Y-08819D01*
X33493Y-08819D01*
X33450Y-08822D01*
X33408Y-08830D01*
X33367Y-08842D01*
X33329Y-08858D01*
X33293Y-08877D01*
X33259Y-08900D01*
X33228Y-08927D01*
X33199Y-08956D01*
X33174Y-08989D01*
X33152Y-09023D01*
X33134Y-09060D01*
X33119Y-09099D01*
X33109Y-09140D01*
X33102Y-09182D01*
X33101Y-09226D01*
X32899Y-09229D01*
X32899Y-09226D01*
X32898Y-09181D01*
X32891Y-09139D01*
X32880Y-09097D01*
X32865Y-09058D01*
X32846Y-09020D01*
X32823Y-08985D01*
X32797Y-08953D01*
X32768Y-08923D01*
X32736Y-08897D01*
X32701Y-08874D01*
X32664Y-08855D01*
X32625Y-08839D01*
X32584Y-08828D01*
X32541Y-08821D01*
X32497Y-08819D01*
X32493Y-08819D01*
X32493Y-08819D01*
X32450Y-08822D01*
X32408Y-08830D01*
X32367Y-08842D01*
X32329Y-08858D01*
X32293Y-08877D01*
X32259Y-08900D01*
X32228Y-08927D01*
X32199Y-08956D01*
X32174Y-08989D01*
X32152Y-09023D01*
X32134Y-09060D01*
X32119Y-09099D01*
X32109Y-09140D01*
X32102Y-09182D01*
X32101Y-09226D01*
X32101Y-09229D01*
X32101Y-09764D01*
X32101Y-09774D01*
X32101Y-09819D01*
X32106Y-09863D01*
X32116Y-09905D01*
X32131Y-09945D01*
X32149Y-09984D01*
X32171Y-10020D01*
X32197Y-10054D01*
X32226Y-10084D01*
X32258Y-10112D01*
X32293Y-10136D01*
X32330Y-10156D01*
X32370Y-10172D01*
X32412Y-10184D01*
X32455Y-10192D01*
X32500Y-10194D01*
X32545Y-10192D01*
X32588Y-10184D01*
X32630Y-10172D01*
X32670Y-10156D01*
X32707Y-10136D01*
X32742Y-10112D01*
X32774Y-10084D01*
X32803Y-10054D01*
X32829Y-10020D01*
X32851Y-09984D01*
X32869Y-09945D01*
X32884Y-09905D01*
X32894Y-09863D01*
X32899Y-09819D01*
X32899Y-09774D01*
X32899Y-09764D01*
X32899Y-09229D01*
X33101Y-09226D01*
X33101Y-09229D01*
X33101Y-09764D01*
X33101Y-09774D01*
X33101Y-09819D01*
X33106Y-09863D01*
X33116Y-09905D01*
X33131Y-09945D01*
X33149Y-09984D01*
X33171Y-10020D01*
X33197Y-10054D01*
X33226Y-10084D01*
X33258Y-10112D01*
X33293Y-10136D01*
X33330Y-10156D01*
X33370Y-10172D01*
X33412Y-10184D01*
X33455Y-10192D01*
X33500Y-10194D01*
X33545Y-10192D01*
X33588Y-10184D01*
X33630Y-10172D01*
X33670Y-10156D01*
X33707Y-10136D01*
X33742Y-10112D01*
X33774Y-10084D01*
X33803Y-10054D01*
X33829Y-10020D01*
X33851Y-09984D01*
X33869Y-09945D01*
X33884Y-09905D01*
X33894Y-09863D01*
X33899Y-09819D01*
X33899Y-09774D01*
X33899Y-09764D01*
X33899Y-09229D01*
X34101Y-09226D01*
X34101Y-09229D01*
X34101Y-09764D01*
X34101Y-09774D01*
X34101Y-09819D01*
X34106Y-09863D01*
X34116Y-09905D01*
X34131Y-09945D01*
X34149Y-09984D01*
X34171Y-10020D01*
X34197Y-10054D01*
X34226Y-10084D01*
X34258Y-10112D01*
X34293Y-10136D01*
X34330Y-10156D01*
X34370Y-10172D01*
X34412Y-10184D01*
X34455Y-10192D01*
X34500Y-10194D01*
X34545Y-10192D01*
X34588Y-10184D01*
X34630Y-10172D01*
X34670Y-10156D01*
X34707Y-10136D01*
X34742Y-10112D01*
X34774Y-10084D01*
X34803Y-10054D01*
X34829Y-10020D01*
X34851Y-09984D01*
X34869Y-09945D01*
X34884Y-09905D01*
X34894Y-09863D01*
X34899Y-09819D01*
X34899Y-09774D01*
X34899Y-09764D01*
X34899Y-09229D01*
X35101Y-09226D01*
X35101Y-09229D01*
X35101Y-09764D01*
X35101Y-09774D01*
X35101Y-09819D01*
X35106Y-09863D01*
X35116Y-09905D01*
X35131Y-09945D01*
X35149Y-09984D01*
X35171Y-10020D01*
X35197Y-10054D01*
X35226Y-10084D01*
X35258Y-10112D01*
X35293Y-10136D01*
X35330Y-10156D01*
X35370Y-10172D01*
X35412Y-10184D01*
X35455Y-10192D01*
X35500Y-10194D01*
X35545Y-10192D01*
X35588Y-10184D01*
X35630Y-10172D01*
X35670Y-10156D01*
X35707Y-10136D01*
X35742Y-10112D01*
X35774Y-10084D01*
X35803Y-10054D01*
X35829Y-10020D01*
X35851Y-09984D01*
X35869Y-09945D01*
X35884Y-09905D01*
X35894Y-09863D01*
X35899Y-09819D01*
X35899Y-09774D01*
X35899Y-09764D01*
X35899Y-09229D01*
X36101Y-09226D01*
X36101Y-09229D01*
X36101Y-09764D01*
X36101Y-09774D01*
X36101Y-09819D01*
X36106Y-09863D01*
X36116Y-09905D01*
X36131Y-09945D01*
X36149Y-09984D01*
X36171Y-10020D01*
X36197Y-10054D01*
X36226Y-10084D01*
X36258Y-10112D01*
X36293Y-10136D01*
X36330Y-10156D01*
X36370Y-10172D01*
X36412Y-10184D01*
X36455Y-10192D01*
X36500Y-10194D01*
X36545Y-10192D01*
X36588Y-10184D01*
X36630Y-10172D01*
X36670Y-10156D01*
X36707Y-10136D01*
X36742Y-10112D01*
X36774Y-10084D01*
X36803Y-10054D01*
X36829Y-10020D01*
X36851Y-09984D01*
X36869Y-09945D01*
X36884Y-09905D01*
X36894Y-09863D01*
X36899Y-09819D01*
X36899Y-09774D01*
X36899Y-09764D01*
X36899Y-09229D01*
X37101Y-09226D01*
X37101Y-09229D01*
X37101Y-09764D01*
X37101Y-09774D01*
X37101Y-09819D01*
X37106Y-09863D01*
X37116Y-09905D01*
X37131Y-09945D01*
X37149Y-09984D01*
X37171Y-10020D01*
X37197Y-10054D01*
X37226Y-10084D01*
X37258Y-10112D01*
X37293Y-10136D01*
X37330Y-10156D01*
X37370Y-10172D01*
X37412Y-10184D01*
X37455Y-10192D01*
X37500Y-10194D01*
X37545Y-10192D01*
X37588Y-10184D01*
X37630Y-10172D01*
X37670Y-10156D01*
X37707Y-10136D01*
X37742Y-10112D01*
X37774Y-10084D01*
X37803Y-10054D01*
X37829Y-10020D01*
X37851Y-09984D01*
X37869Y-09945D01*
X37884Y-09905D01*
X37894Y-09863D01*
X37899Y-09819D01*
X37899Y-09774D01*
X37899Y-09764D01*
X37899Y-09229D01*
X38101Y-09226D01*
X38101Y-09229D01*
X38101Y-09764D01*
X38101Y-09774D01*
X38101Y-09819D01*
X38106Y-09863D01*
X38116Y-09905D01*
X38131Y-09945D01*
X38149Y-09984D01*
X38171Y-10020D01*
X38197Y-10054D01*
X38226Y-10084D01*
X38258Y-10112D01*
X38293Y-10136D01*
X38330Y-10156D01*
X38370Y-10172D01*
X38412Y-10184D01*
X38455Y-10192D01*
X38500Y-10194D01*
X38507Y-10313D01*
X38500Y-10313D01*
X38497Y-10313D01*
X38493Y-10313D01*
X29076Y-10313D01*
X28948Y-10184D01*
X28974Y-10190D01*
X29000Y-10194D01*
X29045Y-10192D01*
X29088Y-10184D01*
X29130Y-10172D01*
X29170Y-10156D01*
X29207Y-10136D01*
X29242Y-10112D01*
X29274Y-10084D01*
X29303Y-10054D01*
X29329Y-10020D01*
X29351Y-09984D01*
X29369Y-09945D01*
X29384Y-09905D01*
X29394Y-09863D01*
X29399Y-09819D01*
X29601Y-09819D01*
X29606Y-09863D01*
X29616Y-09905D01*
X29631Y-09945D01*
X29649Y-09984D01*
X29671Y-10020D01*
X29697Y-10054D01*
X29726Y-10084D01*
X29758Y-10112D01*
X29793Y-10136D01*
X29830Y-10156D01*
X29870Y-10172D01*
X29912Y-10184D01*
X29955Y-10192D01*
X30000Y-10194D01*
X30045Y-10192D01*
X30088Y-10184D01*
X30130Y-10172D01*
X30170Y-10156D01*
X30207Y-10136D01*
X30242Y-10112D01*
X30274Y-10084D01*
X30303Y-10054D01*
X30329Y-10020D01*
X30351Y-09984D01*
X30369Y-09945D01*
X30384Y-09905D01*
X30394Y-09863D01*
X30399Y-09819D01*
X30601Y-09819D01*
X30606Y-09863D01*
X30616Y-09905D01*
X30631Y-09945D01*
X30649Y-09984D01*
X30671Y-10020D01*
X30697Y-10054D01*
X30726Y-10084D01*
X30758Y-10112D01*
X30793Y-10136D01*
X30830Y-10156D01*
X30870Y-10172D01*
X30912Y-10184D01*
X30955Y-10192D01*
X31000Y-10194D01*
X31045Y-10192D01*
X31088Y-10184D01*
X31130Y-10172D01*
X31170Y-10156D01*
X31207Y-10136D01*
X31242Y-10112D01*
X31274Y-10084D01*
X31303Y-10054D01*
X31329Y-10020D01*
X31351Y-09984D01*
X31369Y-09945D01*
X31384Y-09905D01*
X31394Y-09863D01*
X31399Y-09819D01*
X31399Y-09774D01*
X31399Y-09764D01*
X31399Y-09229D01*
X31399Y-09226D01*
X31398Y-09181D01*
X31391Y-09139D01*
X31380Y-09097D01*
X31365Y-09058D01*
X31346Y-09020D01*
X31323Y-08985D01*
X31297Y-08953D01*
X31268Y-08923D01*
X31236Y-08897D01*
X31201Y-08874D01*
X31164Y-08855D01*
X31125Y-08839D01*
X31084Y-08828D01*
X31041Y-08821D01*
X30997Y-08819D01*
X30993Y-08819D01*
X30993Y-08819D01*
X30950Y-08822D01*
X30908Y-08830D01*
X30867Y-08842D01*
X30829Y-08858D01*
X30793Y-08877D01*
X30759Y-08900D01*
X30728Y-08927D01*
X30699Y-08956D01*
X30674Y-08989D01*
X30652Y-09023D01*
X30634Y-09060D01*
X30619Y-09099D01*
X30609Y-09140D01*
X30602Y-09182D01*
X30601Y-09226D01*
X30601Y-09229D01*
X30601Y-09764D01*
X30601Y-09774D01*
X30601Y-09819D01*
X30399Y-09819D01*
X30399Y-09774D01*
X30399Y-09764D01*
X30399Y-09229D01*
X30399Y-09226D01*
X30398Y-09181D01*
X30391Y-09139D01*
X30380Y-09097D01*
X30365Y-09058D01*
X30346Y-09020D01*
X30323Y-08985D01*
X30297Y-08953D01*
X30268Y-08923D01*
X30236Y-08897D01*
X30201Y-08874D01*
X30164Y-08855D01*
X30125Y-08839D01*
X30084Y-08828D01*
X30041Y-08821D01*
X29997Y-08819D01*
X29993Y-08819D01*
X29993Y-08819D01*
X29950Y-08822D01*
X29908Y-08830D01*
X29867Y-08842D01*
X29829Y-08858D01*
X29793Y-08877D01*
X29759Y-08900D01*
X29728Y-08927D01*
X29699Y-08956D01*
X29674Y-08989D01*
X29652Y-09023D01*
X29634Y-09060D01*
X29619Y-09099D01*
X29609Y-09140D01*
X29602Y-09182D01*
X29601Y-09226D01*
X29601Y-09229D01*
X29601Y-09764D01*
X29601Y-09774D01*
X29601Y-09819D01*
X29399Y-09819D01*
X29399Y-09774D01*
X29399Y-09764D01*
X29399Y-09229D01*
X29399Y-09226D01*
X29398Y-09181D01*
X29391Y-09139D01*
X29380Y-09097D01*
X29365Y-09058D01*
X29346Y-09020D01*
X29323Y-08985D01*
X29297Y-08953D01*
X29268Y-08923D01*
X29236Y-08897D01*
X29201Y-08874D01*
X29164Y-08855D01*
X29125Y-08839D01*
X29084Y-08828D01*
X29041Y-08821D01*
X28997Y-08819D01*
X28993Y-08819D01*
X28950Y-08822D01*
X28908Y-08830D01*
X28867Y-08842D01*
X28829Y-08858D01*
X28793Y-08877D01*
X28759Y-08900D01*
X28728Y-08927D01*
X28699Y-08956D01*
X28674Y-08989D01*
X28652Y-09023D01*
X28634Y-09060D01*
X28619Y-09099D01*
X28609Y-09140D01*
X28602Y-09182D01*
X28601Y-09226D01*
X28601Y-09229D01*
X28601Y-09764D01*
X28601Y-09774D01*
X28604Y-09811D01*
X28611Y-09847D01*
X28399Y-09635D01*
X28399Y-09229D01*
X28399Y-09226D01*
X28397Y-09181D01*
X28391Y-09139D01*
X28380Y-09097D01*
X28365Y-09058D01*
X28346Y-09020D01*
X28323Y-08985D01*
X28297Y-08953D01*
X28268Y-08923D01*
X28236Y-08897D01*
X28201Y-08874D01*
X28164Y-08855D01*
X28125Y-08839D01*
X28084Y-08828D01*
X28041Y-08821D01*
X27997Y-08819D01*
X27993Y-08819D01*
X27950Y-08822D01*
X27908Y-08830D01*
X27867Y-08842D01*
X27829Y-08858D01*
X27793Y-08877D01*
X27759Y-08900D01*
X27728Y-08927D01*
X27699Y-08956D01*
X27674Y-08989D01*
X27652Y-09023D01*
X27634Y-09060D01*
X27619Y-09099D01*
X27609Y-09140D01*
X27602Y-09182D01*
X27601Y-09226D01*
X27601Y-09229D01*
X27601Y-09771D01*
X27601Y-09774D01*
X27607Y-09808D01*
X27622Y-09839D01*
X27635Y-09872D01*
X27399Y-09635D01*
X27399Y-09229D01*
X27399Y-09226D01*
X27397Y-09181D01*
X27391Y-09139D01*
X27380Y-09097D01*
X27365Y-09058D01*
X27346Y-09020D01*
X27323Y-08985D01*
X27297Y-08953D01*
X27268Y-08923D01*
X27236Y-08897D01*
X27201Y-08874D01*
X27164Y-08855D01*
X27125Y-08839D01*
X27084Y-08828D01*
X27041Y-08821D01*
X26997Y-08819D01*
X26993Y-08819D01*
X26950Y-08822D01*
X26908Y-08830D01*
X26867Y-08842D01*
X26829Y-08858D01*
X26793Y-08877D01*
X26759Y-08900D01*
X26728Y-08927D01*
X26699Y-08956D01*
X26674Y-08989D01*
X26652Y-09023D01*
X26634Y-09060D01*
X26619Y-09099D01*
X26609Y-09140D01*
X26602Y-09182D01*
X26601Y-09226D01*
X26601Y-09229D01*
X26601Y-09771D01*
X26601Y-09774D01*
X26607Y-09808D01*
X26622Y-09839D01*
X26635Y-09872D01*
X26399Y-09635D01*
X26399Y-09229D01*
X26399Y-09226D01*
X26398Y-09181D01*
X26391Y-09139D01*
X26380Y-09097D01*
X26365Y-09058D01*
X26346Y-09020D01*
X26323Y-08985D01*
X26297Y-08953D01*
X26268Y-08923D01*
X26236Y-08897D01*
X26201Y-08874D01*
X26164Y-08855D01*
X26125Y-08839D01*
X26084Y-08828D01*
X26041Y-08821D01*
X25997Y-08819D01*
X25993Y-08819D01*
X25993Y-08819D01*
X25950Y-08822D01*
X25908Y-08830D01*
X25867Y-08842D01*
X25829Y-08858D01*
X25793Y-08877D01*
X25759Y-08900D01*
X25728Y-08927D01*
X25699Y-08956D01*
X25674Y-08989D01*
X25652Y-09023D01*
X25634Y-09060D01*
X25619Y-09099D01*
X25609Y-09140D01*
X25602Y-09182D01*
X25601Y-09226D01*
X25601Y-09229D01*
X25601Y-09771D01*
X25601Y-09774D01*
X25602Y-09817D01*
X25607Y-09859D01*
X25617Y-09900D01*
X25444Y-09934D01*
X24490Y-09934D01*
X24384Y-09905D01*
X24394Y-09863D01*
X24399Y-09819D01*
X24399Y-09774D01*
X24399Y-09764D01*
X24399Y-09229D01*
X24399Y-09226D01*
X24398Y-09181D01*
X24391Y-09139D01*
X24380Y-09097D01*
X24365Y-09058D01*
X24346Y-09020D01*
X24323Y-08985D01*
X24297Y-08953D01*
X24268Y-08923D01*
X24236Y-08897D01*
X24201Y-08874D01*
X24164Y-08855D01*
X24125Y-08839D01*
X24084Y-08828D01*
X24041Y-08821D01*
X23997Y-08819D01*
X23993Y-08819D01*
X23993Y-08819D01*
X23950Y-08822D01*
X23908Y-08830D01*
X23867Y-08842D01*
X23829Y-08858D01*
X23793Y-08877D01*
X23759Y-08900D01*
X23728Y-08927D01*
X23699Y-08956D01*
X23674Y-08989D01*
X23652Y-09023D01*
X23634Y-09060D01*
X23619Y-09099D01*
X23609Y-09140D01*
X23602Y-09182D01*
X23601Y-09226D01*
X23601Y-09229D01*
X23601Y-09764D01*
X23601Y-09774D01*
X23601Y-09819D01*
X23606Y-09863D01*
X23616Y-09905D01*
X23631Y-09945D01*
X23649Y-09984D01*
X23671Y-10020D01*
X23697Y-10054D01*
X23726Y-10084D01*
X23758Y-10112D01*
X23793Y-10136D01*
X23830Y-10156D01*
X23870Y-10172D01*
X23912Y-10184D01*
X23955Y-10192D01*
X24000Y-10194D01*
X24045Y-10192D01*
X24088Y-10184D01*
X24130Y-10172D01*
X24170Y-10156D01*
X24207Y-10136D01*
X24242Y-10112D01*
X24274Y-10084D01*
X24303Y-10054D01*
X24329Y-10020D01*
X24351Y-09984D01*
X24369Y-09945D01*
X24384Y-09905D01*
X24490Y-09934D01*
X24490Y-10340D01*
X25444Y-10340D01*
X25444Y-09934D01*
X25617Y-09900D01*
X25631Y-09939D01*
X25649Y-09976D01*
X25670Y-10011D01*
X25695Y-10043D01*
X25723Y-10073D01*
X25754Y-10099D01*
X25787Y-10123D01*
X25823Y-10143D01*
X25862Y-10160D01*
X25902Y-10172D01*
X25944Y-10181D01*
X25984Y-10184D01*
X26022Y-10182D01*
X26059Y-10177D01*
X26095Y-10167D01*
X26129Y-10153D01*
X26161Y-10136D01*
X26193Y-10116D01*
X26223Y-10094D01*
X26251Y-10069D01*
X26278Y-10042D01*
X27854Y-11615D01*
X27865Y-11628D01*
X27868Y-11632D01*
X27875Y-11639D01*
X27878Y-11639D01*
X27878Y-11642D01*
X27903Y-11656D01*
X27920Y-11670D01*
X27924Y-11670D01*
X27938Y-11674D01*
X27958Y-11681D01*
X27972Y-11681D01*
X27979Y-11684D01*
X27986Y-11684D01*
X28007Y-11684D01*
X28017Y-11684D01*
X37420Y-11684D01*
X38316Y-12580D01*
X38316Y-17448D01*
X38316Y-17455D01*
X38316Y-17462D01*
X38316Y-17465D01*
X38316Y-17472D01*
X38316Y-17497D01*
X38319Y-17507D01*
X38319Y-17510D01*
X38326Y-17531D01*
X38326Y-17535D01*
X38330Y-17542D01*
X38330Y-17545D01*
X38337Y-17552D01*
X38337Y-17556D01*
X38344Y-17563D01*
X38347Y-17566D01*
X38347Y-17569D01*
X38347Y-17573D01*
X38354Y-17576D01*
X38358Y-17580D01*
X38354Y-17583D01*
X38358Y-17587D01*
X38368Y-17594D01*
X38382Y-17608D01*
X39167Y-18396D01*
X39155Y-18426D01*
X39142Y-18457D01*
X39132Y-18487D01*
X39128Y-18521D01*
X38701Y-18549D01*
X38698Y-18504D01*
X38688Y-18462D01*
X38673Y-18422D01*
X38652Y-18385D01*
X38626Y-18352D01*
X38596Y-18323D01*
X38562Y-18298D01*
X38525Y-18277D01*
X38485Y-18262D01*
X38443Y-18253D01*
X38399Y-18250D01*
X38372Y-18257D01*
X37844Y-17729D01*
X37833Y-17719D01*
X37823Y-17705D01*
X37802Y-17691D01*
X37778Y-17681D01*
X37753Y-17670D01*
X37733Y-17667D01*
X37708Y-17663D01*
X37701Y-17663D01*
X37698Y-17663D01*
X37688Y-17663D01*
X35069Y-17663D01*
X35045Y-17636D01*
X35018Y-17612D01*
X34989Y-17591D01*
X34958Y-17573D01*
X34924Y-17560D01*
X34889Y-17552D01*
X34851Y-17549D01*
X34851Y-17549D01*
X34806Y-17552D01*
X34763Y-17561D01*
X34723Y-17577D01*
X34686Y-17597D01*
X34653Y-17623D01*
X34623Y-17653D01*
X34597Y-17686D01*
X34577Y-17723D01*
X34561Y-17763D01*
X34552Y-17806D01*
X34549Y-17851D01*
X34552Y-17895D01*
X34562Y-17938D01*
X34577Y-17977D01*
X34598Y-18014D01*
X34624Y-18047D01*
X34654Y-18077D01*
X34688Y-18102D01*
X34725Y-18122D01*
X34765Y-18137D01*
X34807Y-18146D01*
X34799Y-18549D01*
X34761Y-18552D01*
X34725Y-18560D01*
X34691Y-18573D01*
X34660Y-18591D01*
X34631Y-18612D01*
X34605Y-18636D01*
X34580Y-18663D01*
X33927Y-18663D01*
X33934Y-18653D01*
X33968Y-18632D01*
X34000Y-18608D01*
X34028Y-18581D01*
X34053Y-18550D01*
X34073Y-18517D01*
X34088Y-18480D01*
X34097Y-18441D01*
X34101Y-18399D01*
X34097Y-18355D01*
X34088Y-18312D01*
X34072Y-18273D01*
X34051Y-18236D01*
X34025Y-18203D01*
X33995Y-18173D01*
X33962Y-18148D01*
X33925Y-18128D01*
X33885Y-18113D01*
X33842Y-18104D01*
X33799Y-18101D01*
X33774Y-18108D01*
X33771Y-18108D01*
X33764Y-18104D01*
X33753Y-18097D01*
X33743Y-18090D01*
X33740Y-18090D01*
X33736Y-18087D01*
X33733Y-18087D01*
X33733Y-18083D01*
X33722Y-18076D01*
X33719Y-18076D01*
X33698Y-18069D01*
X33694Y-18069D01*
X33684Y-18066D01*
X33660Y-18063D01*
X33656Y-18063D01*
X33649Y-18063D01*
X33646Y-18063D01*
X33642Y-18063D01*
X31941Y-18063D01*
X31941Y-18056D01*
X31875Y-17654D01*
X31790Y-17260D01*
X31686Y-16874D01*
X31563Y-16498D01*
X31423Y-16131D01*
X31266Y-15773D01*
X31092Y-15426D01*
X30903Y-15089D01*
X30698Y-14763D01*
X30478Y-14449D01*
X30243Y-14147D01*
X29995Y-13857D01*
X29734Y-13579D01*
X29460Y-13315D01*
X29174Y-13065D01*
X28877Y-12828D01*
X28568Y-12606D01*
X28249Y-12399D01*
X27921Y-12207D01*
X27583Y-12030D01*
X27237Y-11870D01*
X26882Y-11726D01*
X26520Y-11600D01*
X26151Y-11491D01*
X25775Y-11399D01*
X25394Y-11326D01*
X25007Y-11272D01*
X24616Y-11237D01*
X24220Y-11221D01*
X23821Y-11225D01*
X23419Y-11250D01*
X23014Y-11295D01*
X22977Y-11301D01*
X22940Y-11307D01*
X22903Y-11313D01*
X22915Y-11276D01*
X22923Y-11238D01*
X22928Y-11199D01*
X22930Y-11161D01*
X22928Y-11122D01*
X22922Y-11083D01*
X22913Y-11045D01*
X22899Y-11007D01*
X22882Y-10971D01*
X22862Y-10936D01*
X22838Y-10905D01*
X22812Y-10875D01*
X22784Y-10849D01*
X22753Y-10825D01*
X22720Y-10804D01*
X22686Y-10786D01*
X22649Y-10771D01*
X22612Y-10760D01*
X22573Y-10752D01*
X22533Y-10747D01*
X22493Y-10747D01*
X22493Y-10747D01*
X22456Y-10749D01*
X22420Y-10755D01*
X22385Y-10764D01*
X22351Y-10777D01*
X22318Y-10791D01*
X22287Y-10809D01*
X22256Y-10830D01*
X22228Y-10853D01*
X22201Y-10878D01*
X22198Y-10878D01*
X21073Y-09983D01*
X21100Y-09949D01*
X21125Y-09915D01*
X21147Y-09878D01*
X21168Y-09840D01*
X21187Y-09802D01*
X21203Y-09761D01*
X21217Y-09720D01*
X21229Y-09678D01*
X21238Y-09635D01*
X21245Y-09591D01*
X21249Y-09546D01*
X21250Y-09500D01*
X21249Y-09454D01*
X21245Y-09409D01*
X21238Y-09365D01*
X21229Y-09322D01*
X21217Y-09280D01*
X21203Y-09239D01*
X21187Y-09198D01*
X21168Y-09160D01*
X21147Y-09122D01*
X21125Y-09085D01*
X21100Y-09051D01*
X21073Y-09017D01*
X21045Y-08985D01*
X21015Y-08955D01*
X20983Y-08927D01*
X20949Y-08900D01*
X20915Y-08875D01*
X20878Y-08853D01*
X20840Y-08832D01*
X20802Y-08813D01*
X20761Y-08797D01*
X20720Y-08783D01*
X20678Y-08771D01*
X20635Y-08762D01*
X20591Y-08755D01*
X20546Y-08751D01*
X20500Y-08750D01*
X20500Y-08750D01*
X20454Y-08751D01*
X20409Y-08755D01*
X20365Y-08762D01*
X20322Y-08771D01*
X20280Y-08783D01*
X20239Y-08797D01*
X20198Y-08813D01*
X20160Y-08832D01*
X20122Y-08853D01*
X20085Y-08875D01*
X20051Y-08900D01*
X20017Y-08927D01*
X19985Y-08955D01*
X19955Y-08985D01*
X19927Y-09017D01*
X19900Y-09051D01*
X19875Y-09085D01*
X19853Y-09122D01*
X19832Y-09160D01*
X19813Y-09198D01*
X19797Y-09239D01*
X19783Y-09280D01*
X19771Y-09322D01*
X19762Y-09365D01*
X19755Y-09409D01*
X19751Y-09454D01*
X19750Y-09500D01*
X19751Y-09546D01*
X19755Y-09591D01*
X19762Y-09635D01*
X19771Y-09678D01*
X19783Y-09720D01*
X19797Y-09761D01*
X19813Y-09802D01*
X19832Y-09840D01*
X19853Y-09878D01*
X19875Y-09915D01*
X19900Y-09949D01*
X19927Y-09983D01*
X19955Y-10015D01*
X19985Y-10045D01*
X20017Y-10073D01*
X20051Y-10100D01*
X20085Y-10125D01*
X20122Y-10147D01*
X20160Y-10168D01*
X20198Y-10187D01*
X20239Y-10203D01*
X20280Y-10217D01*
X20322Y-10229D01*
X20365Y-10238D01*
X20409Y-10245D01*
X20454Y-10249D01*
X20500Y-10250D01*
X20546Y-10249D01*
X20591Y-10245D01*
X20635Y-10238D01*
X20678Y-10229D01*
X20720Y-10217D01*
X20761Y-10203D01*
X20802Y-10187D01*
X20840Y-10168D01*
X20878Y-10147D01*
X20915Y-10125D01*
X20949Y-10100D01*
X20983Y-10073D01*
X21015Y-10045D01*
X21045Y-10015D01*
X21073Y-09983D01*
X22198Y-10878D01*
X21781Y-11295D01*
X21774Y-11299D01*
X21778Y-11302D01*
X21750Y-11331D01*
X21725Y-11361D01*
X21703Y-11394D01*
X21684Y-11427D01*
X21669Y-11463D01*
X21656Y-11499D01*
X21647Y-11536D01*
X21641Y-11573D01*
X21639Y-11611D01*
X21464Y-11670D01*
X21292Y-11733D01*
X21121Y-11800D01*
X20953Y-11871D01*
X20787Y-11945D01*
X20623Y-12023D01*
X20461Y-12104D01*
X20302Y-12189D01*
X20145Y-12277D01*
X19990Y-12369D01*
X19837Y-12464D01*
X19687Y-12562D01*
X19540Y-12664D01*
X19395Y-12768D01*
X19253Y-12876D01*
X19113Y-12987D01*
X18976Y-13101D01*
X18842Y-13218D01*
X18710Y-13337D01*
X18582Y-13460D01*
X18456Y-13585D01*
X18333Y-13713D01*
X18213Y-13843D01*
X18095Y-13977D01*
X17981Y-14112D01*
X17870Y-14251D01*
X17762Y-14391D01*
X17658Y-14534D01*
X17556Y-14679D01*
X17458Y-14827D01*
X17363Y-14977D01*
X17271Y-15128D01*
X17239Y-15112D01*
X17206Y-15099D01*
X17172Y-15088D01*
X17136Y-15080D01*
X17100Y-15075D01*
X17063Y-15073D01*
X17019Y-15075D01*
X16977Y-15082D01*
X16936Y-15092D01*
X16897Y-15107D01*
X16860Y-15125D01*
X16825Y-15147D01*
X16793Y-15171D01*
X16763Y-15199D01*
X16735Y-15229D01*
X16711Y-15262D01*
X16690Y-15298D01*
X16672Y-15335D01*
X16658Y-15374D01*
X16647Y-15415D01*
X16641Y-15457D01*
X16639Y-15500D01*
X16641Y-15541D01*
X16647Y-15582D01*
X16657Y-15620D01*
X16670Y-15657D01*
X16687Y-15693D01*
X16707Y-15726D01*
X16730Y-15758D01*
X16756Y-15787D01*
X16784Y-15814D01*
X16815Y-15838D01*
X16847Y-15860D01*
X16882Y-15878D01*
X16827Y-16002D01*
X16774Y-16127D01*
X16723Y-16253D01*
X16675Y-16380D01*
X16628Y-16508D01*
X16584Y-16636D01*
X16541Y-16766D01*
X16501Y-16896D01*
X16464Y-17028D01*
X16428Y-17160D01*
X16395Y-17293D01*
X16364Y-17426D01*
X16335Y-17561D01*
X16308Y-17696D01*
X16284Y-17832D01*
X16262Y-17968D01*
X16243Y-18105D01*
X16226Y-18243D01*
X16211Y-18381D01*
X16199Y-18520D01*
X16190Y-18659D01*
X16182Y-18799D01*
X16178Y-18940D01*
X16175Y-19081D01*
X16176Y-19222D01*
X16178Y-19364D01*
X16184Y-19506D01*
X16192Y-19649D01*
X16202Y-19792D01*
X16216Y-19935D01*
X16231Y-20078D01*
X16250Y-20222D01*
X16281Y-20426D01*
X16316Y-20627D01*
X16357Y-20826D01*
X16403Y-21023D01*
X16453Y-21219D01*
X16508Y-21411D01*
X16567Y-21602D01*
X16632Y-21790D01*
X16700Y-21976D01*
X16773Y-22160D01*
X16851Y-22341D01*
X16932Y-22519D01*
X17018Y-22695D01*
X17108Y-22869D01*
X17202Y-23039D01*
X17300Y-23207D01*
X17402Y-23372D01*
X17508Y-23534D01*
X17617Y-23694D01*
X17731Y-23850D01*
X17847Y-24003D01*
X17968Y-24154D01*
X18092Y-24301D01*
X18219Y-24445D01*
X18349Y-24585D01*
X18483Y-24723D01*
X18620Y-24857D01*
X18760Y-24988D01*
X18904Y-25115D01*
X19050Y-25239D01*
X19199Y-25359D01*
X19351Y-25476D01*
X19333Y-24785D01*
X19340Y-24785D01*
X19753Y-24856D01*
X19749Y-24888D01*
X19747Y-24923D01*
X19747Y-24962D01*
X19748Y-25003D01*
X19750Y-25049D01*
X19751Y-25068D01*
X19752Y-25092D01*
X19753Y-25119D01*
X19754Y-25149D01*
X19756Y-25183D01*
X19759Y-25220D01*
X19762Y-25261D01*
X19765Y-25306D01*
X19769Y-25354D01*
X19773Y-25406D01*
X19778Y-25462D01*
X19781Y-25497D01*
X19783Y-25532D01*
X19786Y-25568D01*
X19788Y-25604D01*
X19791Y-25641D01*
X19793Y-25677D01*
X19795Y-25714D01*
X19797Y-25751D01*
X19799Y-25788D01*
X19832Y-25810D01*
X19865Y-25831D01*
X19898Y-25852D01*
X19932Y-25873D01*
X19965Y-25894D01*
X19999Y-25914D01*
X20032Y-25935D01*
X20066Y-25955D01*
X20100Y-25975D01*
X20134Y-25995D01*
X20168Y-26015D01*
X20202Y-26034D01*
X20236Y-26054D01*
X20271Y-26073D01*
X20250Y-25142D01*
X20217Y-25121D01*
X20184Y-25099D01*
X20150Y-25078D01*
X20118Y-25056D01*
X20085Y-25033D01*
X20052Y-25011D01*
X20020Y-24989D01*
X19987Y-24966D01*
X19955Y-24943D01*
X19923Y-24920D01*
X19891Y-24897D01*
X19859Y-24873D01*
X19827Y-24850D01*
X19795Y-24826D01*
X19764Y-24802D01*
X19764Y-24802D01*
X19758Y-24827D01*
X19753Y-24856D01*
X19340Y-24785D01*
X19342Y-24747D01*
X19345Y-24709D01*
X19348Y-24671D01*
X19351Y-24632D01*
X19355Y-24593D01*
X19359Y-24554D01*
X19363Y-24515D01*
X19368Y-24476D01*
X19313Y-24426D01*
X19258Y-24376D01*
X19203Y-24326D01*
X19150Y-24274D01*
X19096Y-24223D01*
X19043Y-24170D01*
X18991Y-24118D01*
X18939Y-24064D01*
X18888Y-24010D01*
X18837Y-23956D01*
X18787Y-23901D01*
X18738Y-23845D01*
X18689Y-23789D01*
X18640Y-23732D01*
X18592Y-23675D01*
X18545Y-23617D01*
X18498Y-23559D01*
X18452Y-23500D01*
X18407Y-23441D01*
X18362Y-23381D01*
X18317Y-23321D01*
X18274Y-23260D01*
X18231Y-23199D01*
X18188Y-23137D01*
X18146Y-23075D01*
X18105Y-23012D01*
X18065Y-22949D01*
X18025Y-22885D01*
X17985Y-22821D01*
X17947Y-22756D01*
X17909Y-22691D01*
X17872Y-22625D01*
X22497Y-21990D01*
X23965Y-25021D01*
X23965Y-24951D01*
X23958Y-24705D01*
X23957Y-24662D01*
X23957Y-24619D01*
X23958Y-24577D01*
X23960Y-24537D01*
X23962Y-24497D01*
X23965Y-24458D01*
X23970Y-24419D01*
X23974Y-24382D01*
X23980Y-24345D01*
X23986Y-24309D01*
X23998Y-24261D01*
X24016Y-24222D01*
X24038Y-24190D01*
X24066Y-24165D01*
X24099Y-24149D01*
X24137Y-24140D01*
X24181Y-24139D01*
X24203Y-24143D01*
X24227Y-24152D01*
X24255Y-24166D01*
X24285Y-24185D01*
X24319Y-24210D01*
X24355Y-24240D01*
X24395Y-24275D01*
X24438Y-24316D01*
X24463Y-24341D01*
X24487Y-24366D01*
X24510Y-24392D01*
X24532Y-24416D01*
X24553Y-24441D01*
X24573Y-24465D01*
X24570Y-24618D01*
X24532Y-24612D01*
X24495Y-24610D01*
X24460Y-24611D01*
X24427Y-24615D01*
X24379Y-24628D01*
X24346Y-24648D01*
X24330Y-24676D01*
X24330Y-24712D01*
X24358Y-25826D01*
X24563Y-26250D01*
X24523Y-26253D01*
X24485Y-26255D01*
X24446Y-26257D01*
X24407Y-26259D01*
X24368Y-26260D01*
X24368Y-26267D01*
X24371Y-26307D01*
X24374Y-26346D01*
X24376Y-26385D01*
X24378Y-26423D01*
X24380Y-26460D01*
X24381Y-26496D01*
X24382Y-26532D01*
X24382Y-26567D01*
X24382Y-26602D01*
X24382Y-26635D01*
X24379Y-26690D01*
X24373Y-26742D01*
X24364Y-26789D01*
X24352Y-26833D01*
X24336Y-26873D01*
X24318Y-26909D01*
X24297Y-26941D01*
X24273Y-26970D01*
X24246Y-26994D01*
X24215Y-27015D01*
X24182Y-27032D01*
X24146Y-27045D01*
X24115Y-27040D01*
X24083Y-27033D01*
X24051Y-27025D01*
X24020Y-27014D01*
X23987Y-27001D01*
X23955Y-26987D01*
X23922Y-26970D01*
X23889Y-26951D01*
X23856Y-26931D01*
X23822Y-26909D01*
X23788Y-26884D01*
X23754Y-26858D01*
X23719Y-26830D01*
X23684Y-26800D01*
X23649Y-26767D01*
X23614Y-26733D01*
X23578Y-26698D01*
X23542Y-26660D01*
X23584Y-26525D01*
X23621Y-26539D01*
X23662Y-26558D01*
X23707Y-26581D01*
X23757Y-26608D01*
X23797Y-26626D01*
X23833Y-26634D01*
X23867Y-26632D01*
X23896Y-26619D01*
X23922Y-26597D01*
X23944Y-26564D01*
X23963Y-26521D01*
X23978Y-26467D01*
X23989Y-26404D01*
X23997Y-26330D01*
X23997Y-26301D01*
X23997Y-26267D01*
X23959Y-26267D01*
X23922Y-26266D01*
X23884Y-26265D01*
X23847Y-26263D01*
X23810Y-26262D01*
X23772Y-26260D01*
X23735Y-26258D01*
X23698Y-26256D01*
X23661Y-26254D01*
X23624Y-26251D01*
X23587Y-26248D01*
X23549Y-26246D01*
X23513Y-26243D01*
X23476Y-26240D01*
X23483Y-26510D01*
X23501Y-26508D01*
X23524Y-26509D01*
X23552Y-26515D01*
X23584Y-26525D01*
X23542Y-26660D01*
X23526Y-26694D01*
X23511Y-26730D01*
X23496Y-26766D01*
X23483Y-26803D01*
X23470Y-26841D01*
X23459Y-26880D01*
X23448Y-26920D01*
X23437Y-26953D01*
X23424Y-26983D01*
X23408Y-27007D01*
X23389Y-27028D01*
X23017Y-26986D01*
X22990Y-26962D01*
X22964Y-26934D01*
X22941Y-26903D01*
X22921Y-26871D01*
X22901Y-26839D01*
X22881Y-26807D01*
X22862Y-26774D01*
X22842Y-26741D01*
X22823Y-26707D01*
X22805Y-26673D01*
X22786Y-26638D01*
X22768Y-26603D01*
X22750Y-26567D01*
X22733Y-26531D01*
X22777Y-26563D01*
X22820Y-26590D01*
X22860Y-26610D01*
X22899Y-26625D01*
X22935Y-26635D01*
X22970Y-26639D01*
X23002Y-26638D01*
X23032Y-26631D01*
X23061Y-26618D01*
X23087Y-26601D01*
X23080Y-26601D01*
X23069Y-26191D01*
X23030Y-26185D01*
X22991Y-26179D01*
X22952Y-26173D01*
X22914Y-26167D01*
X22875Y-26160D01*
X22836Y-26154D01*
X22797Y-26147D01*
X22759Y-26140D01*
X22720Y-26132D01*
X22682Y-26125D01*
X22643Y-26117D01*
X22605Y-26109D01*
X22567Y-26101D01*
X22529Y-26093D01*
X22490Y-26084D01*
X22452Y-26075D01*
X22414Y-26067D01*
X22376Y-26057D01*
X22339Y-26048D01*
X22301Y-26038D01*
X22263Y-26029D01*
X22225Y-26019D01*
X22188Y-26008D01*
X22150Y-25998D01*
X22113Y-25987D01*
X22075Y-25976D01*
X22038Y-25965D01*
X21718Y-25978D01*
X21715Y-25938D01*
X21712Y-25898D01*
X21708Y-25858D01*
X21672Y-25845D01*
X21635Y-25831D01*
X21599Y-25818D01*
X21562Y-25804D01*
X21526Y-25790D01*
X21490Y-25776D01*
X21454Y-25762D01*
X21418Y-25747D01*
X21382Y-25733D01*
X21346Y-25718D01*
X21310Y-25703D01*
X21274Y-25688D01*
X21239Y-25672D01*
X21203Y-25657D01*
X21168Y-25641D01*
X21133Y-25625D01*
X21098Y-25609D01*
X21063Y-25593D01*
X21028Y-25576D01*
X20993Y-25559D01*
X20958Y-25542D01*
X20923Y-25525D01*
X20889Y-25508D01*
X20854Y-25491D01*
X20820Y-25473D01*
X20785Y-25455D01*
X20751Y-25437D01*
X20717Y-25419D01*
X20683Y-25401D01*
X20649Y-25382D01*
X20677Y-26281D01*
X20713Y-26298D01*
X20749Y-26315D01*
X20784Y-26332D01*
X20820Y-26348D01*
X20856Y-26365D01*
X20893Y-26381D01*
X20302Y-27813D01*
X20261Y-27797D01*
X20220Y-27783D01*
X20178Y-27771D01*
X20135Y-27762D01*
X20091Y-27755D01*
X20046Y-27751D01*
X20000Y-27750D01*
X20000Y-27750D01*
X19954Y-27751D01*
X19909Y-27755D01*
X19865Y-27762D01*
X19822Y-27771D01*
X19780Y-27783D01*
X19739Y-27797D01*
X19698Y-27813D01*
X19660Y-27832D01*
X19622Y-27853D01*
X19585Y-27875D01*
X19551Y-27900D01*
X19517Y-27927D01*
X19485Y-27955D01*
X19455Y-27985D01*
X19427Y-28017D01*
X19400Y-28051D01*
X19375Y-28085D01*
X19353Y-28122D01*
X19332Y-28160D01*
X19313Y-28198D01*
X19297Y-28239D01*
X19283Y-28280D01*
X19271Y-28322D01*
X19262Y-28365D01*
X19255Y-28409D01*
X19251Y-28454D01*
X19250Y-28500D01*
X19251Y-28546D01*
X19255Y-28591D01*
X19262Y-28635D01*
X19271Y-28678D01*
X19283Y-28720D01*
X19297Y-28761D01*
X19313Y-28802D01*
X19332Y-28840D01*
X19353Y-28878D01*
X19375Y-28915D01*
X19400Y-28949D01*
X19427Y-28983D01*
X19455Y-29015D01*
X19485Y-29045D01*
X19517Y-29073D01*
X19551Y-29100D01*
X19585Y-29125D01*
X19622Y-29147D01*
X19660Y-29168D01*
X19698Y-29187D01*
X19739Y-29203D01*
X19780Y-29217D01*
X19822Y-29229D01*
X19865Y-29238D01*
X19909Y-29245D01*
X19954Y-29249D01*
X20000Y-29250D01*
X20046Y-29249D01*
X20091Y-29245D01*
X20135Y-29238D01*
X20178Y-29229D01*
X20220Y-29217D01*
X20261Y-29203D01*
X20302Y-29187D01*
X20340Y-29168D01*
X20378Y-29147D01*
X20415Y-29125D01*
X20449Y-29100D01*
X20483Y-29073D01*
X20515Y-29045D01*
X20545Y-29015D01*
X20573Y-28983D01*
X20600Y-28949D01*
X20625Y-28915D01*
X20647Y-28878D01*
X20668Y-28840D01*
X20687Y-28802D01*
X20703Y-28761D01*
X20717Y-28720D01*
X20729Y-28678D01*
X20738Y-28635D01*
X20745Y-28591D01*
X20749Y-28546D01*
X20750Y-28500D01*
X20749Y-28454D01*
X20745Y-28409D01*
X20738Y-28365D01*
X20729Y-28322D01*
X20717Y-28280D01*
X20703Y-28239D01*
X20687Y-28198D01*
X20668Y-28160D01*
X20647Y-28122D01*
X20625Y-28085D01*
X20600Y-28051D01*
X20573Y-28017D01*
X20545Y-27985D01*
X20515Y-27955D01*
X20483Y-27927D01*
X20449Y-27900D01*
X20415Y-27875D01*
X20378Y-27853D01*
X20340Y-27832D01*
X20302Y-27813D01*
X20893Y-26381D01*
X20929Y-26397D01*
X20965Y-26413D01*
X21001Y-26428D01*
X21038Y-26444D01*
X21074Y-26459D01*
X21111Y-26474D01*
X21148Y-26489D01*
X21185Y-26504D01*
X21221Y-26518D01*
X21258Y-26533D01*
X21295Y-26547D01*
X21333Y-26561D01*
X21370Y-26575D01*
X21407Y-26588D01*
X21444Y-26602D01*
X21482Y-26615D01*
X21519Y-26628D01*
X21557Y-26641D01*
X21595Y-26654D01*
X21632Y-26666D01*
X21670Y-26679D01*
X21708Y-26691D01*
X21715Y-26656D01*
X21718Y-26616D01*
X21721Y-26576D01*
X21723Y-26537D01*
X21725Y-26497D01*
X21727Y-26457D01*
X21728Y-26417D01*
X21729Y-26377D01*
X21730Y-26337D01*
X21730Y-26297D01*
X21729Y-26257D01*
X21729Y-26217D01*
X21728Y-26177D01*
X21727Y-26138D01*
X21725Y-26098D01*
X21723Y-26058D01*
X21721Y-26018D01*
X21718Y-25978D01*
X22038Y-25965D01*
X22038Y-25965D01*
X22041Y-26005D01*
X22043Y-26044D01*
X22046Y-26083D01*
X22048Y-26122D01*
X22050Y-26161D01*
X22052Y-26201D01*
X22054Y-26240D01*
X22056Y-26279D01*
X22058Y-26318D01*
X22060Y-26357D01*
X22062Y-26397D01*
X22063Y-26436D01*
X22065Y-26475D01*
X22066Y-26514D01*
X22067Y-26553D01*
X22068Y-26593D01*
X22069Y-26632D01*
X22070Y-26665D01*
X22070Y-26699D01*
X22069Y-26732D01*
X22067Y-26766D01*
X22066Y-26799D01*
X22103Y-26808D01*
X22141Y-26818D01*
X22178Y-26827D01*
X22216Y-26837D01*
X22253Y-26846D01*
X22291Y-26854D01*
X22329Y-26863D01*
X22366Y-26871D01*
X22404Y-26880D01*
X22442Y-26888D01*
X22480Y-26895D01*
X22518Y-26903D01*
X22556Y-26910D01*
X22594Y-26918D01*
X22633Y-26925D01*
X22671Y-26932D01*
X22709Y-26938D01*
X22748Y-26945D01*
X22786Y-26951D01*
X22824Y-26958D01*
X22863Y-26964D01*
X22902Y-26969D01*
X22940Y-26975D01*
X22979Y-26981D01*
X23017Y-26986D01*
X23389Y-27028D01*
X23444Y-27033D01*
X23499Y-27037D01*
X23554Y-27041D01*
X23609Y-27045D01*
X23664Y-27048D01*
X23720Y-27051D01*
X23775Y-27053D01*
X23831Y-27055D01*
X23886Y-27057D01*
X23942Y-27058D01*
X23997Y-27059D01*
X24053Y-27060D01*
X24109Y-27060D01*
X24165Y-27060D01*
X24221Y-27059D01*
X24277Y-27058D01*
X24333Y-27057D01*
X24389Y-27055D01*
X24445Y-27053D01*
X24501Y-27050D01*
X24558Y-27047D01*
X24614Y-27043D01*
X24670Y-27040D01*
X24727Y-27035D01*
X24783Y-27031D01*
X24840Y-27026D01*
X24897Y-27020D01*
X24953Y-27014D01*
X25010Y-27008D01*
X25067Y-27001D01*
X25124Y-26994D01*
X25181Y-26986D01*
X25220Y-26980D01*
X25258Y-26974D01*
X25297Y-26968D01*
X25336Y-26961D01*
X25374Y-26955D01*
X25413Y-26948D01*
X25451Y-26941D01*
X25422Y-26920D01*
X25394Y-26897D01*
X25367Y-26872D01*
X25341Y-26845D01*
X25317Y-26816D01*
X25294Y-26784D01*
X25273Y-26751D01*
X25252Y-26716D01*
X25233Y-26678D01*
X25216Y-26638D01*
X25199Y-26597D01*
X25184Y-26553D01*
X25170Y-26507D01*
X25236Y-26552D01*
X25292Y-26587D01*
X25338Y-26612D01*
X25374Y-26627D01*
X25401Y-26634D01*
X25417Y-26631D01*
X25424Y-26618D01*
X25424Y-26603D01*
X25425Y-26584D01*
X25425Y-26559D01*
X25425Y-26528D01*
X25425Y-26493D01*
X25425Y-26452D01*
X25424Y-26406D01*
X25423Y-26355D01*
X25837Y-26340D01*
X25866Y-26366D01*
X25895Y-26391D01*
X25924Y-26416D01*
X25953Y-26439D01*
X25878Y-26510D01*
X25878Y-26510D01*
X25885Y-26559D01*
X25890Y-26604D01*
X25894Y-26647D01*
X25897Y-26688D01*
X25897Y-26727D01*
X25897Y-26763D01*
X25894Y-26797D01*
X25891Y-26828D01*
X25885Y-26858D01*
X25921Y-26849D01*
X25957Y-26840D01*
X25993Y-26832D01*
X26028Y-26822D01*
X26064Y-26813D01*
X26099Y-26804D01*
X26135Y-26794D01*
X26170Y-26785D01*
X26142Y-26760D01*
X26113Y-26735D01*
X26086Y-26710D01*
X26058Y-26685D01*
X26031Y-26660D01*
X26005Y-26635D01*
X25979Y-26610D01*
X25953Y-26585D01*
X25928Y-26560D01*
X25903Y-26535D01*
X25878Y-26510D01*
X25953Y-26439D01*
X25981Y-26462D01*
X26010Y-26484D01*
X26039Y-26505D01*
X26068Y-26525D01*
X26096Y-26544D01*
X26125Y-26563D01*
X26160Y-26583D01*
X26196Y-26601D01*
X26231Y-26615D01*
X26266Y-26627D01*
X26301Y-26636D01*
X26336Y-26642D01*
X26371Y-26645D01*
X26406Y-26646D01*
X26432Y-26644D01*
X26456Y-26638D01*
X26479Y-26630D01*
X26501Y-26618D01*
X26521Y-26603D01*
X26541Y-26585D01*
X26559Y-26564D01*
X26576Y-26540D01*
X26592Y-26513D01*
X26607Y-26482D01*
X26620Y-26448D01*
X26633Y-26411D01*
X26644Y-26371D01*
X26653Y-26328D01*
X26662Y-26281D01*
X26670Y-26232D01*
X26676Y-26179D01*
X26681Y-26123D01*
X26685Y-26064D01*
X26687Y-26001D01*
X26689Y-25936D01*
X26689Y-25867D01*
X26688Y-25795D01*
X26688Y-25781D01*
X26688Y-25781D01*
X26651Y-25795D01*
X26615Y-25809D01*
X26579Y-25823D01*
X26542Y-25836D01*
X26506Y-25849D01*
X26469Y-25862D01*
X26432Y-25875D01*
X26395Y-25888D01*
X26358Y-25901D01*
X26321Y-25913D01*
X26284Y-25925D01*
X26247Y-25937D01*
X26209Y-25949D01*
X26172Y-25961D01*
X26134Y-25972D01*
X26096Y-25983D01*
X26059Y-25994D01*
X26021Y-26005D01*
X25983Y-26016D01*
X25945Y-26026D01*
X25906Y-26036D01*
X25868Y-26046D01*
X25830Y-26056D01*
X25831Y-26091D01*
X25832Y-26127D01*
X25832Y-26162D01*
X25833Y-26198D01*
X25834Y-26234D01*
X25835Y-26269D01*
X25836Y-26305D01*
X25837Y-26340D01*
X25423Y-26355D01*
X25422Y-26298D01*
X25420Y-26236D01*
X25419Y-26167D01*
X25417Y-26098D01*
X25416Y-26029D01*
X25414Y-25960D01*
X25413Y-25892D01*
X25412Y-25823D01*
X25410Y-25754D01*
X25409Y-25685D01*
X25408Y-25616D01*
X25406Y-25547D01*
X25405Y-25479D01*
X25404Y-25410D01*
X25403Y-25341D01*
X25401Y-25273D01*
X25400Y-25204D01*
X25399Y-25135D01*
X25398Y-25066D01*
X25397Y-24998D01*
X25395Y-24929D01*
X25394Y-24861D01*
X25393Y-24792D01*
X25392Y-24723D01*
X25391Y-24655D01*
X25390Y-24586D01*
X25389Y-24518D01*
X25388Y-24449D01*
X25387Y-24381D01*
X25386Y-24312D01*
X25385Y-24244D01*
X25384Y-24175D01*
X25383Y-24107D01*
X25382Y-24038D01*
X25381Y-23994D01*
X25381Y-23951D01*
X25380Y-23907D01*
X25379Y-23863D01*
X25378Y-23820D01*
X25378Y-23776D01*
X25377Y-23732D01*
X25376Y-23688D01*
X25375Y-23645D01*
X25374Y-23601D01*
X25372Y-23557D01*
X25371Y-23513D01*
X25370Y-23470D01*
X25369Y-23426D01*
X25368Y-23382D01*
X25366Y-23338D01*
X25365Y-23295D01*
X25363Y-23251D01*
X25362Y-23207D01*
X25360Y-23163D01*
X25359Y-23120D01*
X25357Y-23076D01*
X25356Y-23032D01*
X25354Y-22989D01*
X25353Y-22945D01*
X25351Y-22901D01*
X25349Y-22857D01*
X25347Y-22814D01*
X25346Y-22770D01*
X25344Y-22726D01*
X25342Y-22683D01*
X25340Y-22639D01*
X24896Y-25132D01*
X24653Y-24635D01*
X24611Y-24625D01*
X24570Y-24618D01*
X24573Y-24465D01*
X23316Y-21875D01*
X25281Y-21604D01*
X25276Y-21565D01*
X25271Y-21526D01*
X25264Y-21487D01*
X25258Y-21448D01*
X25251Y-21410D01*
X25244Y-21371D01*
X25236Y-21333D01*
X25228Y-21296D01*
X25220Y-21258D01*
X25211Y-21221D01*
X25201Y-21184D01*
X25191Y-21147D01*
X25181Y-21111D01*
X25171Y-21074D01*
X25160Y-21038D01*
X25147Y-21001D01*
X25132Y-20965D01*
X25116Y-20932D01*
X25097Y-20900D01*
X25077Y-20869D01*
X25056Y-20840D01*
X22955Y-21128D01*
X21753Y-18653D01*
X23740Y-16747D01*
X26160Y-18045D01*
X25677Y-20753D01*
X25295Y-20806D01*
X25317Y-20833D01*
X25338Y-20862D01*
X25358Y-20892D01*
X25378Y-20922D01*
X25397Y-20953D01*
X25416Y-20984D01*
X25434Y-21017D01*
X25451Y-21050D01*
X25469Y-21083D01*
X25485Y-21117D01*
X25501Y-21151D01*
X25517Y-21185D01*
X25532Y-21220D01*
X25546Y-21255D01*
X25560Y-21291D01*
X25574Y-21327D01*
X25587Y-21363D01*
X25599Y-21400D01*
X25611Y-21437D01*
X25623Y-21475D01*
X25634Y-21513D01*
X25644Y-21551D01*
X25654Y-21590D01*
X25663Y-21629D01*
X25672Y-21668D01*
X25681Y-21708D01*
X25689Y-21749D01*
X25696Y-21789D01*
X25703Y-21830D01*
X25709Y-21871D01*
X25715Y-21913D01*
X25720Y-21952D01*
X25725Y-21991D01*
X25730Y-22030D01*
X25735Y-22068D01*
X25739Y-22107D01*
X25743Y-22146D01*
X25747Y-22185D01*
X25751Y-22224D01*
X25754Y-22262D01*
X25758Y-22301D01*
X25761Y-22340D01*
X25764Y-22379D01*
X25767Y-22418D01*
X25769Y-22456D01*
X25772Y-22495D01*
X25774Y-22534D01*
X25776Y-22573D01*
X25778Y-22612D01*
X25779Y-22650D01*
X25781Y-22689D01*
X25782Y-22728D01*
X25783Y-22767D01*
X25784Y-22806D01*
X25785Y-22844D01*
X25785Y-22883D01*
X25785Y-22922D01*
X25785Y-22961D01*
X25785Y-22999D01*
X25785Y-23038D01*
X25784Y-23077D01*
X25784Y-23115D01*
X25783Y-23154D01*
X25783Y-23193D01*
X25783Y-23231D01*
X25783Y-23270D01*
X25783Y-23309D01*
X25783Y-23347D01*
X25783Y-23386D01*
X25783Y-23425D01*
X25784Y-23463D01*
X25784Y-23502D01*
X25784Y-23541D01*
X25785Y-23579D01*
X25786Y-23618D01*
X25786Y-23657D01*
X25787Y-23696D01*
X25788Y-23735D01*
X25789Y-23773D01*
X25791Y-23812D01*
X25792Y-23851D01*
X25793Y-23890D01*
X25795Y-23929D01*
X25796Y-23968D01*
X25798Y-24007D01*
X25800Y-24046D01*
X25802Y-24085D01*
X25803Y-24124D01*
X25806Y-24163D01*
X25837Y-24165D01*
X25868Y-24167D01*
X26351Y-21455D01*
X31031Y-20809D01*
X30999Y-20938D01*
X30964Y-21067D01*
X30927Y-21194D01*
X30888Y-21320D01*
X30846Y-21446D01*
X30802Y-21571D01*
X30756Y-21694D01*
X30708Y-21817D01*
X30657Y-21939D01*
X30604Y-22059D01*
X30549Y-22178D01*
X30492Y-22297D01*
X30433Y-22414D01*
X30371Y-22530D01*
X30308Y-22644D01*
X30242Y-22758D01*
X30175Y-22870D01*
X30105Y-22981D01*
X30033Y-23091D01*
X29960Y-23199D01*
X29884Y-23306D01*
X29807Y-23411D01*
X29727Y-23515D01*
X29646Y-23618D01*
X29563Y-23719D01*
X29478Y-23818D01*
X29391Y-23916D01*
X29303Y-24013D01*
X29212Y-24107D01*
X29120Y-24201D01*
X29026Y-24292D01*
X28931Y-24382D01*
X28957Y-24406D01*
X28984Y-24431D01*
X29010Y-24455D01*
X29035Y-24481D01*
X29060Y-24507D01*
X29085Y-24534D01*
X29110Y-24561D01*
X28944Y-24722D01*
X28914Y-24693D01*
X28882Y-24666D01*
X28850Y-24642D01*
X28817Y-24621D01*
X28784Y-24602D01*
X28750Y-24586D01*
X28715Y-24573D01*
X28715Y-24573D01*
X28685Y-24598D01*
X28655Y-24624D01*
X28624Y-24649D01*
X28594Y-24674D01*
X28563Y-24699D01*
X28532Y-24724D01*
X28502Y-24748D01*
X28470Y-24773D01*
X28439Y-24797D01*
X28408Y-24821D01*
X28376Y-24845D01*
X28344Y-24869D01*
X28313Y-24892D01*
X28314Y-24931D01*
X28316Y-24970D01*
X28318Y-25009D01*
X28319Y-25049D01*
X28321Y-25088D01*
X28322Y-25127D01*
X28323Y-25166D01*
X28324Y-25205D01*
X28325Y-25245D01*
X28326Y-25284D01*
X28327Y-25323D01*
X28328Y-25363D01*
X28329Y-25402D01*
X28330Y-25441D01*
X28331Y-25479D01*
X28331Y-25517D01*
X27982Y-25516D01*
X27980Y-25476D01*
X27979Y-25436D01*
X27978Y-25396D01*
X27977Y-25356D01*
X27975Y-25316D01*
X27974Y-25276D01*
X27972Y-25236D01*
X27971Y-25200D01*
X27970Y-25164D01*
X27969Y-25128D01*
X27969Y-25128D01*
X27935Y-25150D01*
X27902Y-25171D01*
X27868Y-25192D01*
X27835Y-25213D01*
X27801Y-25234D01*
X27767Y-25255D01*
X27733Y-25275D01*
X27699Y-25295D01*
X27664Y-25315D01*
X27630Y-25335D01*
X27595Y-25355D01*
X27560Y-25375D01*
X27525Y-25394D01*
X27491Y-25413D01*
X27455Y-25432D01*
X27420Y-25451D01*
X27385Y-25470D01*
X27349Y-25488D01*
X27314Y-25506D01*
X27278Y-25524D01*
X27242Y-25542D01*
X27206Y-25560D01*
X27170Y-25577D01*
X27134Y-25594D01*
X27097Y-25611D01*
X27104Y-25646D01*
X27110Y-25681D01*
X27115Y-25714D01*
X27118Y-25747D01*
X27121Y-25784D01*
X27124Y-25821D01*
X27126Y-25859D01*
X27128Y-25896D01*
X27129Y-25934D01*
X27131Y-25971D01*
X27131Y-26009D01*
X27131Y-26047D01*
X27131Y-26085D01*
X27131Y-26123D01*
X27130Y-26161D01*
X27128Y-26199D01*
X27127Y-26238D01*
X27124Y-26276D01*
X27122Y-26314D01*
X27119Y-26353D01*
X27116Y-26391D01*
X27112Y-26430D01*
X27108Y-26469D01*
X27144Y-26454D01*
X27181Y-26438D01*
X27217Y-26423D01*
X27254Y-26407D01*
X27290Y-26391D01*
X27326Y-26375D01*
X27362Y-26358D01*
X27398Y-26342D01*
X27434Y-26325D01*
X27470Y-26308D01*
X27505Y-26291D01*
X27541Y-26274D01*
X27576Y-26256D01*
X27612Y-26239D01*
X27647Y-26221D01*
X27682Y-26203D01*
X27717Y-26185D01*
X27752Y-26167D01*
X27787Y-26148D01*
X27821Y-26130D01*
X27856Y-26111D01*
X27890Y-26092D01*
X27925Y-26073D01*
X27959Y-26054D01*
X27993Y-26035D01*
X27992Y-25995D01*
X27992Y-25955D01*
X27991Y-25915D01*
X27990Y-25875D01*
X27989Y-25835D01*
X27988Y-25795D01*
X27987Y-25755D01*
X27987Y-25715D01*
X27986Y-25675D01*
X27985Y-25635D01*
X27984Y-25595D01*
X27983Y-25555D01*
X27982Y-25516D01*
X28331Y-25517D01*
X28333Y-25555D01*
X28334Y-25593D01*
X28336Y-25631D01*
X28338Y-25669D01*
X28341Y-25706D01*
X28344Y-25744D01*
X28347Y-25782D01*
X28351Y-25819D01*
X28384Y-25798D01*
X28418Y-25776D01*
X28451Y-25754D01*
X28485Y-25732D01*
X28518Y-25710D01*
X28551Y-25687D01*
X28584Y-25665D01*
X28617Y-25642D01*
X28650Y-25619D01*
X28682Y-25596D01*
X28715Y-25573D01*
X28747Y-25549D01*
X28779Y-25526D01*
X28811Y-25502D01*
X28843Y-25478D01*
X28875Y-25454D01*
X28907Y-25430D01*
X28938Y-25406D01*
X28970Y-25382D01*
X29001Y-25357D01*
X29032Y-25332D01*
X29063Y-25307D01*
X29094Y-25282D01*
X29125Y-25257D01*
X29122Y-25221D01*
X29118Y-25186D01*
X29115Y-25150D01*
X29111Y-25115D01*
X29106Y-25071D01*
X29100Y-25030D01*
X29091Y-24989D01*
X29080Y-24951D01*
X29067Y-24914D01*
X29052Y-24878D01*
X29035Y-24844D01*
X29015Y-24811D01*
X28994Y-24780D01*
X28970Y-24751D01*
X28944Y-24722D01*
X29110Y-24561D01*
X29134Y-24588D01*
X29157Y-24617D01*
X29181Y-24646D01*
X29205Y-24678D01*
X29229Y-24710D01*
X29252Y-24743D01*
X29274Y-24776D01*
X29296Y-24809D01*
X29316Y-24842D01*
X29337Y-24875D01*
X29356Y-24909D01*
X29374Y-24942D01*
X29392Y-24976D01*
X29410Y-25010D01*
X29488Y-24938D01*
X29565Y-24865D01*
X29642Y-24791D01*
X29717Y-24716D01*
X29791Y-24640D01*
X29864Y-24563D01*
X29936Y-24485D01*
X30007Y-24406D01*
X30077Y-24326D01*
X30146Y-24246D01*
X30213Y-24164D01*
X30280Y-24082D01*
X30346Y-23998D01*
X30410Y-23914D01*
X30473Y-23829D01*
X30535Y-23743D01*
X30596Y-23656D01*
X30656Y-23569D01*
X30715Y-23480D01*
X30772Y-23391D01*
X30828Y-23301D01*
X30884Y-23210D01*
X30938Y-23119D01*
X30990Y-23027D01*
X31042Y-22934D01*
X31092Y-22840D01*
X31141Y-22746D01*
X31189Y-22651D01*
X31236Y-22555D01*
X31281Y-22459D01*
X31325Y-22362D01*
X31368Y-22264D01*
X31344Y-21243D01*
X31342Y-21199D01*
X31339Y-21157D01*
X31334Y-21115D01*
X31328Y-21074D01*
X31320Y-21035D01*
X31310Y-20996D01*
X31299Y-20959D01*
X31287Y-20922D01*
X31272Y-20887D01*
X31257Y-20853D01*
X31239Y-20819D01*
X31220Y-20787D01*
X31199Y-20756D01*
X31177Y-20726D01*
X31158Y-20703D01*
X31137Y-20680D01*
X31114Y-20659D01*
X31090Y-20637D01*
X31063Y-20617D01*
X31034Y-20597D01*
X31003Y-20577D01*
X30971Y-20558D01*
X30936Y-20540D01*
X30900Y-20522D01*
X30861Y-20505D01*
X30821Y-20488D01*
X30779Y-20472D01*
X30735Y-20456D01*
X30688Y-20441D01*
X30640Y-20427D01*
X30590Y-20413D01*
X30538Y-20399D01*
X30501Y-20405D01*
X30464Y-20411D01*
X30428Y-20417D01*
X30391Y-20424D01*
X30354Y-20431D01*
X30317Y-20438D01*
X30280Y-20446D01*
X30243Y-20454D01*
X30206Y-20462D01*
X30169Y-20470D01*
X30132Y-20479D01*
X30095Y-20487D01*
X30058Y-20495D01*
X30022Y-20501D01*
X29985Y-20506D01*
X29948Y-20511D01*
X29911Y-20515D01*
X29874Y-20518D01*
X29837Y-20520D01*
X29800Y-20521D01*
X29763Y-20521D01*
X29726Y-20521D01*
X29701Y-20517D01*
X29676Y-20504D01*
X29651Y-20484D01*
X29626Y-20454D01*
X29602Y-20417D01*
X29577Y-20371D01*
X29552Y-20316D01*
X29538Y-20282D01*
X29528Y-20251D01*
X29521Y-20222D01*
X26497Y-20639D01*
X26892Y-18434D01*
X29958Y-20076D01*
X29996Y-20079D01*
X30034Y-20082D01*
X30073Y-20087D01*
X30112Y-20092D01*
X30150Y-20096D01*
X30189Y-20099D01*
X30227Y-20102D01*
X30265Y-20104D01*
X30302Y-20106D01*
X30340Y-20107D01*
X30377Y-20106D01*
X30414Y-20106D01*
X30450Y-20104D01*
X30487Y-20101D01*
X30523Y-20098D01*
X30559Y-20094D01*
X30591Y-20097D01*
X30623Y-20102D01*
X30655Y-20110D01*
X30688Y-20121D01*
X30721Y-20134D01*
X30755Y-20150D01*
X30788Y-20168D01*
X30823Y-20189D01*
X30857Y-20213D01*
X30892Y-20240D01*
X30921Y-20263D01*
X30951Y-20286D01*
X30980Y-20310D01*
X31010Y-20333D01*
X31040Y-20357D01*
X31070Y-20382D01*
X31100Y-20406D01*
X31130Y-20431D01*
X31161Y-20456D01*
X31191Y-20481D01*
X31222Y-20506D01*
X31253Y-20531D01*
X31279Y-20553D01*
X31305Y-20576D01*
X31330Y-20600D01*
X31354Y-20625D01*
X31378Y-20651D01*
X31402Y-20678D01*
X31425Y-20706D01*
X31447Y-20734D01*
X31469Y-20764D01*
X31490Y-20794D01*
X31511Y-20826D01*
X31532Y-20858D01*
X31552Y-20892D01*
X31571Y-20926D01*
X31590Y-20961D01*
X31608Y-20998D01*
X31626Y-21035D01*
X31643Y-21073D01*
X31660Y-21112D01*
X31676Y-21152D01*
X31692Y-21193D01*
X31707Y-21235D01*
X31722Y-21278D01*
X31735Y-21232D01*
X31747Y-21187D01*
X31759Y-21142D01*
X31771Y-21096D01*
X31782Y-21050D01*
X31794Y-21004D01*
X31805Y-20959D01*
X31815Y-20913D01*
X31826Y-20866D01*
X31836Y-20820D01*
X31846Y-20774D01*
X31856Y-20728D01*
X31865Y-20681D01*
X31874Y-20635D01*
X31883Y-20588D01*
X31891Y-20542D01*
X31899Y-20495D01*
X31907Y-20448D01*
X31915Y-20401D01*
X31922Y-20354D01*
X31930Y-20307D01*
X31936Y-20260D01*
X31943Y-20213D01*
X31949Y-20165D01*
X31955Y-20118D01*
X31961Y-20071D01*
X31966Y-20023D01*
X31972Y-19976D01*
X31977Y-19928D01*
X31981Y-19880D01*
X31985Y-19833D01*
X31990Y-19785D01*
X33430Y-19785D01*
X33455Y-19812D01*
X33482Y-19836D01*
X33511Y-19857D01*
X33542Y-19875D01*
X33576Y-19888D01*
X33611Y-19896D01*
X33649Y-19899D01*
X33693Y-19896D01*
X33735Y-19887D01*
X33775Y-19872D01*
X33812Y-19852D01*
X33846Y-19827D01*
X33876Y-19797D01*
X33902Y-19764D01*
X33923Y-19727D01*
X33938Y-19688D01*
X33948Y-19645D01*
X33951Y-19601D01*
X33948Y-19556D01*
X33939Y-19513D01*
X33923Y-19473D01*
X33903Y-19436D01*
X33877Y-19403D01*
X33847Y-19373D01*
X33814Y-19347D01*
X33777Y-19327D01*
X33736Y-19311D01*
X33694Y-19302D01*
X33649Y-19299D01*
X33611Y-19302D01*
X33576Y-19310D01*
X33542Y-19323D01*
X33511Y-19341D01*
X33482Y-19362D01*
X33455Y-19386D01*
X33430Y-19413D01*
X32010Y-19413D01*
X32012Y-19375D01*
X32013Y-19338D01*
X32013Y-19300D01*
X32014Y-19262D01*
X32014Y-19224D01*
X32015Y-19186D01*
X32015Y-19149D01*
X32015Y-19111D01*
X32014Y-19073D01*
X32014Y-19035D01*
X34580Y-19035D01*
X34605Y-19062D01*
X34632Y-19086D01*
X34661Y-19107D01*
X34692Y-19125D01*
X34725Y-19138D01*
X34761Y-19146D01*
X34799Y-19149D01*
X34842Y-19146D01*
X34885Y-19137D01*
X34925Y-19122D01*
X34962Y-19102D01*
X34995Y-19077D01*
X35025Y-19047D01*
X35051Y-19014D01*
X35072Y-18977D01*
X35088Y-18938D01*
X35097Y-18895D01*
X35101Y-18851D01*
X35097Y-18806D01*
X35088Y-18763D01*
X35073Y-18723D01*
X35052Y-18686D01*
X35026Y-18653D01*
X34997Y-18623D01*
X34963Y-18597D01*
X34926Y-18577D01*
X34886Y-18561D01*
X34843Y-18552D01*
X34799Y-18549D01*
X34807Y-18146D01*
X34851Y-18149D01*
X34888Y-18146D01*
X34924Y-18138D01*
X34957Y-18125D01*
X34989Y-18107D01*
X35018Y-18086D01*
X35045Y-18062D01*
X35069Y-18035D01*
X37618Y-18035D01*
X38108Y-18521D01*
X38101Y-18549D01*
X38104Y-18593D01*
X38113Y-18635D01*
X38128Y-18675D01*
X38148Y-18712D01*
X38173Y-18746D01*
X38203Y-18776D01*
X38236Y-18801D01*
X38273Y-18822D01*
X38312Y-18838D01*
X38355Y-18847D01*
X38399Y-18851D01*
X38444Y-18847D01*
X38486Y-18838D01*
X38527Y-18823D01*
X38564Y-18802D01*
X38597Y-18777D01*
X38627Y-18747D01*
X38653Y-18713D01*
X38673Y-18676D01*
X38689Y-18636D01*
X38698Y-18593D01*
X38701Y-18549D01*
X39128Y-18521D01*
X39131Y-18564D01*
X39137Y-18607D01*
X39148Y-18647D01*
X39162Y-18686D01*
X39181Y-18723D01*
X39202Y-18758D01*
X39227Y-18791D01*
X39255Y-18821D01*
X39285Y-18848D01*
X39318Y-18872D01*
X39353Y-18894D01*
X39390Y-18911D01*
X39430Y-18925D01*
X39470Y-18936D01*
X39512Y-18942D01*
X39556Y-18944D01*
X39556Y-19094D01*
X39556Y-19094D01*
X39512Y-19096D01*
X39470Y-19102D01*
X39429Y-19113D01*
X39390Y-19127D01*
X39352Y-19145D01*
X39317Y-19167D01*
X39284Y-19192D01*
X39254Y-19219D01*
X39226Y-19249D01*
X39202Y-19282D01*
X39180Y-19318D01*
X39162Y-19355D01*
X39148Y-19394D01*
X39137Y-19435D01*
X39131Y-19477D01*
X39128Y-19521D01*
X39131Y-19565D01*
X39139Y-19606D01*
X39151Y-19646D01*
X39167Y-19683D01*
X39187Y-19718D01*
X39211Y-19751D01*
X39238Y-19781D01*
X39268Y-19809D01*
X39300Y-19835D01*
X39335Y-19858D01*
X39372Y-19878D01*
X39372Y-26514D01*
X38521Y-27365D01*
X35468Y-27365D01*
X35500Y-25253D01*
X35545Y-25251D01*
X35589Y-25244D01*
X35631Y-25232D01*
X35672Y-25216D01*
X35710Y-25197D01*
X35746Y-25173D01*
X35779Y-25147D01*
X35809Y-25117D01*
X35837Y-25084D01*
X35861Y-25049D01*
X35882Y-25011D01*
X35898Y-24972D01*
X35911Y-24931D01*
X35920Y-24888D01*
X35924Y-24844D01*
X35924Y-24799D01*
X35924Y-24785D01*
X35924Y-24201D01*
X35924Y-24198D01*
X35922Y-24154D01*
X35915Y-24111D01*
X35905Y-24069D01*
X35890Y-24030D01*
X35872Y-23992D01*
X35850Y-23956D01*
X35825Y-23923D01*
X35797Y-23892D01*
X35766Y-23864D01*
X35732Y-23839D01*
X35696Y-23817D01*
X35658Y-23799D01*
X35618Y-23785D01*
X35577Y-23775D01*
X35534Y-23769D01*
X35490Y-23767D01*
X35483Y-23767D01*
X35483Y-23767D01*
X35444Y-23771D01*
X35444Y-23774D01*
X35403Y-23782D01*
X35363Y-23794D01*
X35325Y-23809D01*
X35289Y-23828D01*
X35255Y-23850D01*
X35224Y-23875D01*
X35195Y-23903D01*
X35168Y-23933D01*
X35145Y-23965D01*
X35125Y-24000D01*
X35108Y-24037D01*
X35094Y-24075D01*
X35084Y-24115D01*
X35078Y-24156D01*
X35076Y-24198D01*
X34924Y-24201D01*
X34924Y-24198D01*
X34922Y-24154D01*
X34915Y-24111D01*
X34905Y-24069D01*
X34890Y-24030D01*
X34872Y-23992D01*
X34850Y-23956D01*
X34825Y-23923D01*
X34797Y-23892D01*
X34766Y-23864D01*
X34732Y-23839D01*
X34696Y-23817D01*
X34658Y-23799D01*
X34618Y-23785D01*
X34577Y-23775D01*
X34534Y-23769D01*
X34490Y-23767D01*
X34483Y-23767D01*
X34483Y-23767D01*
X34444Y-23771D01*
X34444Y-23774D01*
X34403Y-23782D01*
X34363Y-23794D01*
X34325Y-23809D01*
X34289Y-23828D01*
X34255Y-23850D01*
X34224Y-23875D01*
X34195Y-23903D01*
X34168Y-23933D01*
X34145Y-23965D01*
X34125Y-24000D01*
X34108Y-24037D01*
X34094Y-24075D01*
X34084Y-24115D01*
X34078Y-24156D01*
X34076Y-24198D01*
X34076Y-24201D01*
X34076Y-24785D01*
X34076Y-24799D01*
X34076Y-24844D01*
X34080Y-24888D01*
X34089Y-24931D01*
X34102Y-24972D01*
X34118Y-25011D01*
X34139Y-25049D01*
X34163Y-25084D01*
X34191Y-25117D01*
X34221Y-25147D01*
X34254Y-25173D01*
X34290Y-25197D01*
X34328Y-25216D01*
X34369Y-25232D01*
X34411Y-25244D01*
X34455Y-25251D01*
X34500Y-25253D01*
X34545Y-25251D01*
X34589Y-25244D01*
X34631Y-25232D01*
X34672Y-25216D01*
X34710Y-25197D01*
X34746Y-25173D01*
X34779Y-25147D01*
X34809Y-25117D01*
X34837Y-25084D01*
X34861Y-25049D01*
X34882Y-25011D01*
X34898Y-24972D01*
X34911Y-24931D01*
X34920Y-24888D01*
X34924Y-24844D01*
X34924Y-24799D01*
X34924Y-24785D01*
X34924Y-24201D01*
X35076Y-24198D01*
X35076Y-24201D01*
X35076Y-24785D01*
X35076Y-24799D01*
X35076Y-24844D01*
X35080Y-24888D01*
X35089Y-24931D01*
X35102Y-24972D01*
X35118Y-25011D01*
X35139Y-25049D01*
X35163Y-25084D01*
X35191Y-25117D01*
X35221Y-25147D01*
X35254Y-25173D01*
X35290Y-25197D01*
X35328Y-25216D01*
X35369Y-25232D01*
X35411Y-25244D01*
X35455Y-25251D01*
X35500Y-25253D01*
X35468Y-27365D01*
X34612Y-27365D01*
X28417Y-27365D01*
X28406Y-27365D01*
X28399Y-27365D01*
X28385Y-27365D01*
X28375Y-27365D01*
X28348Y-27371D01*
X28323Y-27382D01*
X28323Y-27378D01*
X28316Y-27382D01*
X28309Y-27385D01*
X28302Y-27392D01*
X28278Y-27406D01*
X28267Y-27417D01*
X28257Y-27430D01*
X27754Y-27930D01*
X27722Y-27904D01*
X27689Y-27880D01*
X27654Y-27860D01*
X27617Y-27843D01*
X27579Y-27830D01*
X27539Y-27822D01*
X27497Y-27819D01*
X27493Y-27819D01*
X27450Y-27822D01*
X27408Y-27830D01*
X27367Y-27842D01*
X27329Y-27858D01*
X27293Y-27877D01*
X27259Y-27900D01*
X27228Y-27927D01*
X27199Y-27956D01*
X27174Y-27988D01*
X27152Y-28023D01*
X27134Y-28060D01*
X27119Y-28099D01*
X27109Y-28140D01*
X27102Y-28182D01*
X27101Y-28226D01*
X27101Y-28229D01*
X27101Y-28764D01*
X27101Y-28774D01*
X27101Y-28819D01*
X27106Y-28863D01*
X27116Y-28905D01*
X27131Y-28945D01*
X27149Y-28984D01*
X27171Y-29020D01*
X27197Y-29053D01*
X27226Y-29084D01*
X27258Y-29112D01*
X27293Y-29136D01*
X27330Y-29156D01*
X27370Y-29172D01*
X27412Y-29184D01*
X27455Y-29192D01*
X27500Y-29194D01*
X27545Y-29192D01*
X27588Y-29184D01*
X27630Y-29172D01*
X27670Y-29156D01*
X27707Y-29136D01*
X27742Y-29112D01*
X27774Y-29084D01*
X27803Y-29053D01*
X27829Y-29020D01*
X27851Y-28984D01*
X27869Y-28945D01*
X27884Y-28905D01*
X27894Y-28863D01*
X27899Y-28819D01*
X27899Y-28774D01*
X27899Y-28764D01*
X27899Y-28316D01*
X28125Y-28087D01*
X28114Y-28120D01*
X28107Y-28154D01*
X28102Y-28189D01*
X28101Y-28226D01*
X28101Y-28229D01*
X28101Y-28764D01*
X28101Y-28774D01*
X28101Y-28819D01*
X28106Y-28863D01*
X28116Y-28905D01*
X28131Y-28945D01*
X28149Y-28984D01*
X28171Y-29020D01*
X28197Y-29053D01*
X28226Y-29084D01*
X28258Y-29112D01*
X28293Y-29136D01*
X28330Y-29156D01*
X28370Y-29172D01*
X28412Y-29184D01*
X28455Y-29192D01*
X28500Y-29194D01*
X28545Y-29192D01*
X28588Y-29184D01*
X28630Y-29172D01*
X28670Y-29156D01*
X28707Y-29136D01*
X28742Y-29112D01*
X28774Y-29084D01*
X28803Y-29053D01*
X28829Y-29020D01*
X28851Y-28984D01*
X28869Y-28945D01*
X28884Y-28905D01*
X28894Y-28863D01*
X28899Y-28819D01*
X29101Y-28819D01*
X29106Y-28863D01*
X29116Y-28905D01*
X29131Y-28945D01*
X29149Y-28984D01*
X29171Y-29020D01*
X29197Y-29054D01*
X29226Y-29084D01*
X29258Y-29112D01*
X29293Y-29136D01*
X29330Y-29156D01*
X29370Y-29172D01*
X29412Y-29184D01*
X29455Y-29192D01*
X29500Y-29194D01*
X29545Y-29192D01*
X29588Y-29184D01*
X29630Y-29172D01*
X29670Y-29156D01*
X29707Y-29136D01*
X29742Y-29112D01*
X29774Y-29084D01*
X29803Y-29054D01*
X29829Y-29020D01*
X29851Y-28984D01*
X29869Y-28945D01*
X29884Y-28905D01*
X29894Y-28863D01*
X29899Y-28819D01*
X29899Y-28774D01*
X29899Y-28764D01*
X29899Y-28229D01*
X29899Y-28226D01*
X29898Y-28181D01*
X29891Y-28139D01*
X29880Y-28097D01*
X29865Y-28058D01*
X29846Y-28020D01*
X29823Y-27985D01*
X29797Y-27953D01*
X29768Y-27923D01*
X29736Y-27897D01*
X29701Y-27874D01*
X29664Y-27855D01*
X29625Y-27839D01*
X29584Y-27828D01*
X29541Y-27821D01*
X29497Y-27819D01*
X29493Y-27819D01*
X29493Y-27819D01*
X29450Y-27822D01*
X29408Y-27830D01*
X29367Y-27842D01*
X29329Y-27858D01*
X29293Y-27877D01*
X29259Y-27900D01*
X29228Y-27927D01*
X29199Y-27956D01*
X29174Y-27989D01*
X29152Y-28023D01*
X29134Y-28060D01*
X29119Y-28099D01*
X29109Y-28140D01*
X29102Y-28182D01*
X29101Y-28226D01*
X29101Y-28229D01*
X29101Y-28764D01*
X29101Y-28774D01*
X29101Y-28819D01*
X28899Y-28819D01*
X28899Y-28774D01*
X28899Y-28764D01*
X28899Y-28229D01*
X28899Y-28226D01*
X28898Y-28181D01*
X28891Y-28139D01*
X28880Y-28097D01*
X28865Y-28058D01*
X28846Y-28020D01*
X28824Y-27985D01*
X28797Y-27953D01*
X28768Y-27923D01*
X28736Y-27897D01*
X28701Y-27874D01*
X28664Y-27855D01*
X28625Y-27839D01*
X28584Y-27828D01*
X28541Y-27821D01*
X28497Y-27819D01*
X28493Y-27819D01*
X28459Y-27822D01*
X28427Y-27828D01*
X28396Y-27836D01*
X28365Y-27847D01*
X28479Y-27733D01*
X38570Y-27733D01*
X38541Y-27821D01*
X38497Y-27819D01*
X38493Y-27819D01*
X38493Y-27819D01*
X38450Y-27822D01*
X38408Y-27830D01*
X38367Y-27842D01*
X38329Y-27858D01*
X38293Y-27877D01*
X38259Y-27900D01*
X38228Y-27927D01*
X38199Y-27956D01*
X38174Y-27989D01*
X38152Y-28023D01*
X38134Y-28060D01*
X38119Y-28099D01*
X38109Y-28140D01*
X38102Y-28182D01*
X38101Y-28226D01*
X37899Y-28229D01*
X37899Y-28226D01*
X37898Y-28181D01*
X37891Y-28139D01*
X37880Y-28097D01*
X37865Y-28058D01*
X37846Y-28020D01*
X37823Y-27985D01*
X37797Y-27953D01*
X37768Y-27923D01*
X37736Y-27897D01*
X37701Y-27874D01*
X37664Y-27855D01*
X37625Y-27839D01*
X37584Y-27828D01*
X37541Y-27821D01*
X37497Y-27819D01*
X37493Y-27819D01*
X37493Y-27819D01*
X37450Y-27822D01*
X37408Y-27830D01*
X37367Y-27842D01*
X37329Y-27858D01*
X37293Y-27877D01*
X37259Y-27900D01*
X37228Y-27927D01*
X37199Y-27956D01*
X37174Y-27989D01*
X37152Y-28023D01*
X37134Y-28060D01*
X37119Y-28099D01*
X37109Y-28140D01*
X37102Y-28182D01*
X37101Y-28226D01*
X36899Y-28229D01*
X36899Y-28226D01*
X36898Y-28181D01*
X36891Y-28139D01*
X36880Y-28097D01*
X36865Y-28058D01*
X36846Y-28020D01*
X36823Y-27985D01*
X36797Y-27953D01*
X36768Y-27923D01*
X36736Y-27897D01*
X36701Y-27874D01*
X36664Y-27855D01*
X36625Y-27839D01*
X36584Y-27828D01*
X36541Y-27821D01*
X36497Y-27819D01*
X36493Y-27819D01*
X36493Y-27819D01*
X36450Y-27822D01*
X36408Y-27830D01*
X36367Y-27842D01*
X36329Y-27858D01*
X36293Y-27877D01*
X36259Y-27900D01*
X36228Y-27927D01*
X36199Y-27956D01*
X36174Y-27989D01*
X36152Y-28023D01*
X36134Y-28060D01*
X36119Y-28099D01*
X36109Y-28140D01*
X36102Y-28182D01*
X36101Y-28226D01*
X35899Y-28229D01*
X35899Y-28226D01*
X35898Y-28181D01*
X35891Y-28139D01*
X35880Y-28097D01*
X35865Y-28058D01*
X35846Y-28020D01*
X35823Y-27985D01*
X35797Y-27953D01*
X35768Y-27923D01*
X35736Y-27897D01*
X35701Y-27874D01*
X35664Y-27855D01*
X35625Y-27839D01*
X35584Y-27828D01*
X35541Y-27821D01*
X35497Y-27819D01*
X35493Y-27819D01*
X35493Y-27819D01*
X35450Y-27822D01*
X35408Y-27830D01*
X35367Y-27842D01*
X35329Y-27858D01*
X35293Y-27877D01*
X35259Y-27900D01*
X35228Y-27927D01*
X35199Y-27956D01*
X35174Y-27989D01*
X35152Y-28023D01*
X35134Y-28060D01*
X35119Y-28099D01*
X35109Y-28140D01*
X35102Y-28182D01*
X35101Y-28226D01*
X34899Y-28229D01*
X34899Y-28226D01*
X34898Y-28181D01*
X34891Y-28139D01*
X34880Y-28097D01*
X34865Y-28058D01*
X34846Y-28020D01*
X34823Y-27985D01*
X34797Y-27953D01*
X34768Y-27923D01*
X34736Y-27897D01*
X34701Y-27874D01*
X34664Y-27855D01*
X34625Y-27839D01*
X34584Y-27828D01*
X34541Y-27821D01*
X34497Y-27819D01*
X34493Y-27819D01*
X34493Y-27819D01*
X34450Y-27822D01*
X34408Y-27830D01*
X34367Y-27842D01*
X34329Y-27858D01*
X34293Y-27877D01*
X34259Y-27900D01*
X34228Y-27927D01*
X34199Y-27956D01*
X34174Y-27989D01*
X34152Y-28023D01*
X34134Y-28060D01*
X34119Y-28099D01*
X34109Y-28140D01*
X34102Y-28182D01*
X34101Y-28226D01*
X32899Y-28229D01*
X32899Y-28226D01*
X32898Y-28181D01*
X32891Y-28139D01*
X32880Y-28097D01*
X32865Y-28058D01*
X32846Y-28020D01*
X32823Y-27985D01*
X32797Y-27953D01*
X32768Y-27923D01*
X32736Y-27897D01*
X32701Y-27874D01*
X32664Y-27855D01*
X32625Y-27839D01*
X32584Y-27828D01*
X32541Y-27821D01*
X32497Y-27819D01*
X32493Y-27819D01*
X32493Y-27819D01*
X32450Y-27822D01*
X32408Y-27830D01*
X32367Y-27842D01*
X32329Y-27858D01*
X32293Y-27877D01*
X32259Y-27900D01*
X32228Y-27927D01*
X32199Y-27956D01*
X32174Y-27989D01*
X32152Y-28023D01*
X32134Y-28060D01*
X32119Y-28099D01*
X32109Y-28140D01*
X32102Y-28182D01*
X32101Y-28226D01*
X32101Y-28229D01*
X32101Y-28764D01*
X32101Y-28774D01*
X32101Y-28819D01*
X32106Y-28863D01*
X32116Y-28905D01*
X32131Y-28945D01*
X32149Y-28984D01*
X32171Y-29020D01*
X32197Y-29054D01*
X32226Y-29084D01*
X32258Y-29112D01*
X32293Y-29136D01*
X32330Y-29156D01*
X32370Y-29172D01*
X32412Y-29184D01*
X32455Y-29192D01*
X32500Y-29194D01*
X32545Y-29192D01*
X32588Y-29184D01*
X32630Y-29172D01*
X32670Y-29156D01*
X32707Y-29136D01*
X32742Y-29112D01*
X32774Y-29084D01*
X32803Y-29054D01*
X32829Y-29020D01*
X32851Y-28984D01*
X32869Y-28945D01*
X32884Y-28905D01*
X32894Y-28863D01*
X32899Y-28819D01*
X32899Y-28774D01*
X32899Y-28764D01*
X32899Y-28229D01*
X34101Y-28226D01*
X34101Y-28229D01*
X34101Y-28764D01*
X34101Y-28774D01*
X34101Y-28819D01*
X34106Y-28863D01*
X34116Y-28905D01*
X34131Y-28945D01*
X34149Y-28984D01*
X34171Y-29020D01*
X34197Y-29054D01*
X34226Y-29084D01*
X34258Y-29112D01*
X34293Y-29136D01*
X34330Y-29156D01*
X34370Y-29172D01*
X34412Y-29184D01*
X34455Y-29192D01*
X34500Y-29194D01*
X34545Y-29192D01*
X34588Y-29184D01*
X34630Y-29172D01*
X34670Y-29156D01*
X34707Y-29136D01*
X34742Y-29112D01*
X34774Y-29084D01*
X34803Y-29054D01*
X34829Y-29020D01*
X34851Y-28984D01*
X34869Y-28945D01*
X34884Y-28905D01*
X34894Y-28863D01*
X34899Y-28819D01*
X34899Y-28774D01*
X34899Y-28764D01*
X34899Y-28229D01*
X35101Y-28226D01*
X35101Y-28229D01*
X35101Y-28764D01*
X35101Y-28774D01*
X35101Y-28819D01*
X35106Y-28863D01*
X35116Y-28905D01*
X35131Y-28945D01*
X35149Y-28984D01*
X35171Y-29020D01*
X35197Y-29054D01*
X35226Y-29084D01*
X35258Y-29112D01*
X35293Y-29136D01*
X35330Y-29156D01*
X35370Y-29172D01*
X35412Y-29184D01*
X35455Y-29192D01*
X35500Y-29194D01*
X35545Y-29192D01*
X35588Y-29184D01*
X35630Y-29172D01*
X35670Y-29156D01*
X35707Y-29136D01*
X35742Y-29112D01*
X35774Y-29084D01*
X35803Y-29054D01*
X35829Y-29020D01*
X35851Y-28984D01*
X35869Y-28945D01*
X35884Y-28905D01*
X35894Y-28863D01*
X35899Y-28819D01*
X35899Y-28774D01*
X35899Y-28764D01*
X35899Y-28229D01*
X36101Y-28226D01*
X36101Y-28229D01*
X36101Y-28764D01*
X36101Y-28774D01*
X36101Y-28819D01*
X36106Y-28863D01*
X36116Y-28905D01*
X36131Y-28945D01*
X36149Y-28984D01*
X36171Y-29020D01*
X36197Y-29054D01*
X36226Y-29084D01*
X36258Y-29112D01*
X36293Y-29136D01*
X36330Y-29156D01*
X36370Y-29172D01*
X36412Y-29184D01*
X36455Y-29192D01*
X36500Y-29194D01*
X36545Y-29192D01*
X36588Y-29184D01*
X36630Y-29172D01*
X36670Y-29156D01*
X36707Y-29136D01*
X36742Y-29112D01*
X36774Y-29084D01*
X36803Y-29054D01*
X36829Y-29020D01*
X36851Y-28984D01*
X36869Y-28945D01*
X36884Y-28905D01*
X36894Y-28863D01*
X36899Y-28819D01*
X36899Y-28774D01*
X36899Y-28764D01*
X36899Y-28229D01*
X37101Y-28226D01*
X37101Y-28229D01*
X37101Y-28764D01*
X37101Y-28774D01*
X37101Y-28819D01*
X37106Y-28863D01*
X37116Y-28905D01*
X37131Y-28945D01*
X37149Y-28984D01*
X37171Y-29020D01*
X37197Y-29054D01*
X37226Y-29084D01*
X37258Y-29112D01*
X37293Y-29136D01*
X37330Y-29156D01*
X37370Y-29172D01*
X37412Y-29184D01*
X37455Y-29192D01*
X37500Y-29194D01*
X37545Y-29192D01*
X37588Y-29184D01*
X37630Y-29172D01*
X37670Y-29156D01*
X37707Y-29136D01*
X37742Y-29112D01*
X37774Y-29084D01*
X37803Y-29054D01*
X37829Y-29020D01*
X37851Y-28984D01*
X37869Y-28945D01*
X37884Y-28905D01*
X37894Y-28863D01*
X37899Y-28819D01*
X37899Y-28774D01*
X37899Y-28764D01*
X37899Y-28229D01*
X38101Y-28226D01*
X38101Y-28229D01*
X38101Y-28764D01*
X38101Y-28774D01*
X38101Y-28819D01*
X38106Y-28863D01*
X38116Y-28905D01*
X38131Y-28945D01*
X38149Y-28984D01*
X38171Y-29020D01*
X38197Y-29054D01*
X38226Y-29084D01*
X38258Y-29112D01*
X38293Y-29136D01*
X38330Y-29156D01*
X38370Y-29172D01*
X38412Y-29184D01*
X38455Y-29192D01*
X38500Y-29194D01*
X38545Y-29192D01*
X38588Y-29184D01*
X38630Y-29172D01*
X38670Y-29156D01*
X38707Y-29136D01*
X38742Y-29112D01*
X38774Y-29084D01*
X38803Y-29054D01*
X38829Y-29020D01*
X38851Y-28984D01*
X38869Y-28945D01*
X38884Y-28905D01*
X38894Y-28863D01*
X38899Y-28819D01*
X39101Y-28819D01*
X39106Y-28863D01*
X39116Y-28905D01*
X39131Y-28945D01*
X39149Y-28984D01*
X39171Y-29020D01*
X39197Y-29054D01*
X39226Y-29084D01*
X39258Y-29112D01*
X39293Y-29136D01*
X39330Y-29156D01*
X39370Y-29172D01*
X39412Y-29184D01*
X39455Y-29192D01*
X39500Y-29194D01*
X39545Y-29192D01*
X39588Y-29184D01*
X39630Y-29172D01*
X39670Y-29156D01*
X39707Y-29136D01*
X39742Y-29112D01*
X39774Y-29084D01*
X39803Y-29054D01*
X39829Y-29020D01*
X39851Y-28984D01*
X39869Y-28945D01*
X39884Y-28905D01*
X39894Y-28863D01*
X39899Y-28819D01*
X39899Y-28774D01*
X39899Y-28764D01*
X39899Y-28229D01*
X39899Y-28226D01*
X39898Y-28181D01*
X39891Y-28139D01*
X39880Y-28097D01*
X39865Y-28058D01*
X39846Y-28020D01*
X39823Y-27985D01*
X39797Y-27953D01*
X39768Y-27923D01*
X39736Y-27897D01*
X39701Y-27874D01*
X39664Y-27855D01*
X39625Y-27839D01*
X39584Y-27828D01*
X39541Y-27821D01*
X39497Y-27819D01*
X39493Y-27819D01*
X39493Y-27819D01*
X39450Y-27822D01*
X39408Y-27830D01*
X39367Y-27842D01*
X39329Y-27858D01*
X39293Y-27877D01*
X39259Y-27900D01*
X39228Y-27927D01*
X39199Y-27956D01*
X39174Y-27989D01*
X39152Y-28023D01*
X39134Y-28060D01*
X39119Y-28099D01*
X39109Y-28140D01*
X39102Y-28182D01*
X39101Y-28226D01*
X39101Y-28229D01*
X39101Y-28764D01*
X39101Y-28774D01*
X39101Y-28819D01*
X38899Y-28819D01*
X38899Y-28774D01*
X38899Y-28764D01*
X38899Y-28229D01*
X38899Y-28226D01*
X38898Y-28181D01*
X38891Y-28139D01*
X38880Y-28097D01*
X38865Y-28058D01*
X38846Y-28020D01*
X38823Y-27985D01*
X38797Y-27953D01*
X38768Y-27923D01*
X38736Y-27897D01*
X38701Y-27874D01*
X38664Y-27855D01*
X38625Y-27839D01*
X38584Y-27828D01*
X38541Y-27821D01*
X38570Y-27733D01*
X38583Y-27733D01*
X38590Y-27733D01*
X38601Y-27733D01*
X38611Y-27733D01*
X38622Y-27733D01*
X38629Y-27733D01*
X38654Y-27728D01*
X38677Y-27719D01*
X38698Y-27705D01*
X38708Y-27698D01*
X38719Y-27694D01*
X38733Y-27680D01*
X38736Y-27677D01*
X38740Y-27674D01*
X38747Y-27663D01*
X39670Y-26740D01*
X39674Y-26736D01*
X39681Y-26729D01*
X39691Y-26719D01*
X39694Y-26719D01*
X39708Y-26701D01*
X39712Y-26694D01*
X39724Y-26674D01*
X39733Y-26653D01*
X39740Y-26618D01*
X39740Y-26615D01*
X39740Y-26608D01*
X39740Y-26604D01*
X39740Y-26601D01*
X39740Y-26597D01*
X39740Y-26594D01*
X39740Y-26590D01*
X39755Y-26591D01*
X39762Y-26635D01*
X39771Y-26678D01*
X39783Y-26720D01*
X39797Y-26761D01*
X39813Y-26802D01*
X39832Y-26840D01*
X39853Y-26878D01*
X39875Y-26915D01*
X39900Y-26949D01*
X39927Y-26983D01*
X39955Y-27015D01*
X39985Y-27045D01*
X40017Y-27073D01*
X40051Y-27100D01*
X40085Y-27125D01*
X40122Y-27147D01*
X40160Y-27168D01*
X40198Y-27187D01*
X40239Y-27203D01*
X40280Y-27217D01*
X40322Y-27229D01*
X40365Y-27238D01*
X40409Y-27245D01*
X40454Y-27249D01*
X40500Y-27250D01*
X40546Y-27249D01*
X40591Y-27245D01*
X40635Y-27238D01*
X40678Y-27229D01*
X40720Y-27217D01*
X40761Y-27203D01*
X40802Y-27187D01*
X40840Y-27168D01*
X40878Y-27147D01*
X40915Y-27125D01*
X40949Y-27100D01*
X40983Y-27073D01*
X41015Y-27045D01*
X41045Y-27015D01*
X41073Y-26983D01*
X41100Y-26949D01*
X41125Y-26915D01*
X41147Y-26878D01*
X41168Y-26840D01*
X41187Y-26802D01*
X41203Y-26761D01*
X41217Y-26720D01*
X41229Y-26678D01*
X41238Y-26635D01*
X41245Y-26591D01*
X41249Y-26546D01*
X41250Y-26500D01*
X41249Y-26454D01*
X41245Y-26409D01*
X41238Y-26365D01*
X41229Y-26322D01*
X41217Y-26280D01*
X41203Y-26239D01*
X41187Y-26198D01*
X41168Y-26160D01*
X41147Y-26122D01*
X41125Y-26085D01*
X41100Y-26051D01*
X41073Y-26017D01*
X41045Y-25985D01*
X41015Y-25955D01*
X40983Y-25927D01*
X40949Y-25900D01*
X40915Y-25875D01*
X40878Y-25853D01*
X40840Y-25832D01*
X40802Y-25813D01*
X40761Y-25797D01*
X40720Y-25783D01*
X40678Y-25771D01*
X40635Y-25762D01*
X40591Y-25755D01*
X40546Y-25751D01*
X40500Y-25750D01*
X40500Y-25750D01*
X40454Y-25751D01*
X40409Y-25755D01*
X40365Y-25762D01*
X40322Y-25771D01*
X40280Y-25783D01*
X40239Y-25797D01*
X40198Y-25813D01*
X40160Y-25832D01*
X40122Y-25853D01*
X40085Y-25875D01*
X40051Y-25900D01*
X40017Y-25927D01*
X39985Y-25955D01*
X39955Y-25985D01*
X39927Y-26017D01*
X39900Y-26051D01*
X39875Y-26085D01*
X39853Y-26122D01*
X39832Y-26160D01*
X39813Y-26198D01*
X39797Y-26239D01*
X39783Y-26280D01*
X39771Y-26322D01*
X39762Y-26365D01*
X39755Y-26409D01*
X39751Y-26454D01*
X39750Y-26500D01*
X39751Y-26546D01*
X39755Y-26591D01*
X39740Y-26590D01*
X39740Y-26576D01*
X39740Y-26556D01*
X39740Y-19878D01*
X39776Y-19858D01*
X39810Y-19835D01*
X39842Y-19809D01*
X39871Y-19781D01*
X39898Y-19750D01*
X39921Y-19717D01*
X39941Y-19682D01*
X39957Y-19645D01*
X39969Y-19606D01*
X39977Y-19564D01*
X39979Y-19521D01*
X39977Y-19478D01*
X39971Y-19436D01*
X39960Y-19395D01*
X39946Y-19356D01*
X39928Y-19318D01*
X39907Y-19283D01*
X39883Y-19250D01*
X39855Y-19220D01*
X39825Y-19192D01*
X39793Y-19167D01*
X39758Y-19146D01*
X39721Y-19128D01*
X39682Y-19113D01*
X39641Y-19103D01*
X39599Y-19096D01*
X39556Y-19094D01*
X39556Y-18944D01*
X39602Y-18942D01*
X39646Y-18935D01*
X39689Y-18923D01*
X39730Y-18907D01*
X39769Y-18886D01*
X39805Y-18863D01*
X39839Y-18835D01*
X39870Y-18804D01*
X39897Y-18771D01*
X39921Y-18734D01*
X39941Y-18695D01*
X39957Y-18654D01*
X39969Y-18611D01*
X39977Y-18567D01*
X39979Y-18521D01*
X40128Y-18521D01*
X40131Y-18564D01*
X40137Y-18607D01*
X40148Y-18647D01*
X40162Y-18686D01*
X40181Y-18723D01*
X40202Y-18758D01*
X40227Y-18791D01*
X40255Y-18821D01*
X40285Y-18848D01*
X40318Y-18872D01*
X40353Y-18894D01*
X40390Y-18911D01*
X40430Y-18925D01*
X40470Y-18936D01*
X40512Y-18942D01*
X40556Y-18944D01*
X40602Y-18942D01*
X40646Y-18935D01*
X40689Y-18923D01*
X40730Y-18907D01*
X40769Y-18886D01*
X40805Y-18863D01*
X40839Y-18835D01*
X40870Y-18804D01*
X40897Y-18771D01*
X40921Y-18734D01*
X40941Y-18695D01*
X40957Y-18654D01*
X40969Y-18611D01*
X40977Y-18567D01*
X40979Y-18521D01*
X40975Y-18487D01*
X40966Y-18456D01*
X40953Y-18426D01*
X40941Y-18396D01*
X41122Y-18219D01*
X41132Y-18208D01*
X41132Y-18205D01*
X41139Y-18198D01*
X41153Y-18184D01*
X41165Y-18164D01*
X41174Y-18142D01*
X41181Y-18104D01*
X41184Y-18104D01*
X41184Y-18090D01*
X41184Y-18087D01*
X41184Y-18076D01*
X41184Y-18056D01*
X41184Y-18031D01*
X41184Y-17288D01*
X41184Y-17271D01*
X41184Y-17267D01*
X41184Y-17229D01*
X41184Y-17208D01*
X41177Y-17187D01*
X41167Y-17167D01*
X41156Y-17149D01*
X41153Y-17146D01*
X41153Y-17142D01*
X41146Y-17132D01*
X41142Y-17132D01*
X41135Y-17118D01*
X41125Y-17111D01*
X41125Y-17108D01*
X41111Y-17101D01*
X41108Y-17097D01*
X40194Y-16181D01*
X40230Y-16196D01*
X40266Y-16209D01*
X40304Y-16221D01*
X40341Y-16231D01*
X40380Y-16239D01*
X40419Y-16245D01*
X40459Y-16249D01*
X40500Y-16250D01*
X40546Y-16249D01*
X40591Y-16245D01*
X40635Y-16238D01*
X40678Y-16229D01*
X40720Y-16217D01*
X40761Y-16203D01*
X40802Y-16187D01*
X40840Y-16168D01*
X40878Y-16147D01*
X40915Y-16125D01*
X40949Y-16100D01*
X40983Y-16073D01*
X41015Y-16045D01*
X41045Y-16015D01*
X41073Y-15983D01*
X41100Y-15949D01*
X41125Y-15915D01*
X41147Y-15878D01*
X41168Y-15840D01*
X41187Y-15802D01*
X41203Y-15761D01*
X41217Y-15720D01*
X41229Y-15678D01*
X41238Y-15635D01*
X41245Y-15591D01*
X41249Y-15546D01*
X41250Y-15500D01*
X41249Y-15454D01*
X41245Y-15409D01*
X41238Y-15365D01*
X41229Y-15322D01*
X41217Y-15280D01*
X41203Y-15239D01*
X41187Y-15198D01*
X41168Y-15160D01*
X41147Y-15122D01*
X41125Y-15085D01*
X41100Y-15051D01*
X41073Y-15017D01*
X41045Y-14985D01*
X41015Y-14955D01*
X40983Y-14927D01*
X40949Y-14900D01*
X40915Y-14875D01*
X40878Y-14853D01*
X40840Y-14832D01*
X40802Y-14813D01*
X40761Y-14797D01*
X40720Y-14783D01*
X40678Y-14771D01*
X40635Y-14762D01*
X40591Y-14755D01*
X40546Y-14751D01*
X40500Y-14750D01*
X40454Y-14751D01*
X40409Y-14755D01*
X40365Y-14762D01*
X40322Y-14771D01*
X40280Y-14783D01*
X40239Y-14797D01*
X40198Y-14813D01*
X40160Y-14832D01*
X40122Y-14853D01*
X40085Y-14875D01*
X40051Y-14900D01*
X40017Y-14927D01*
X39985Y-14955D01*
X39955Y-14985D01*
X39927Y-15017D01*
X39900Y-15051D01*
X39875Y-15085D01*
X39853Y-15122D01*
X39832Y-15160D01*
X39813Y-15198D01*
X39797Y-15239D01*
X39783Y-15280D01*
X39771Y-15322D01*
X39762Y-15365D01*
X39755Y-15409D01*
X39751Y-15454D01*
X39750Y-15500D01*
X39751Y-15540D01*
X39755Y-15580D01*
X39760Y-15618D01*
X39767Y-15657D01*
X39777Y-15694D01*
X39788Y-15731D01*
X39801Y-15767D01*
X39816Y-15802D01*
X39684Y-15670D01*
X39684Y-11538D01*
X39684Y-11517D01*
X39684Y-11507D01*
X39684Y-11500D01*
X39684Y-11493D01*
X39684Y-11486D01*
X39684Y-11479D01*
X39684Y-11472D01*
X39681Y-11449D01*
X39674Y-11427D01*
X39674Y-11424D01*
X39660Y-11406D01*
X39660Y-11403D01*
X39653Y-11396D01*
X39653Y-11392D01*
X39646Y-11385D01*
X39646Y-11382D01*
X39642Y-11382D01*
X39639Y-11375D01*
X39635Y-11372D01*
X39635Y-11368D01*
X39625Y-11361D01*
X39625Y-11358D01*
X39611Y-11351D01*
X39608Y-11347D01*
X39597Y-11340D01*
X38660Y-10403D01*
X38653Y-10392D01*
X38649Y-10392D01*
X38649Y-10389D01*
X38642Y-10382D01*
X38642Y-10378D01*
X38639Y-10375D01*
X38639Y-10372D01*
X38635Y-10372D01*
X38618Y-10354D01*
X38618Y-10351D01*
X38583Y-10333D01*
X38573Y-10326D01*
X38559Y-10323D01*
X38556Y-10323D01*
X38552Y-10319D01*
X38549Y-10319D01*
X38542Y-10316D01*
X38535Y-10316D01*
X38507Y-10313D01*
X38500Y-10194D01*
X38545Y-10192D01*
X38588Y-10184D01*
X38630Y-10172D01*
X38670Y-10156D01*
X38707Y-10136D01*
X38742Y-10112D01*
X38774Y-10084D01*
X38803Y-10054D01*
X38829Y-10020D01*
X38851Y-09984D01*
X38869Y-09945D01*
X38884Y-09905D01*
X38894Y-09863D01*
X38899Y-09819D01*
X38899Y-09774D01*
X38899Y-09764D01*
X38899Y-09229D01*
X39101Y-09226D01*
X39101Y-09229D01*
X39101Y-09764D01*
X39101Y-09774D01*
X39101Y-09819D01*
X39106Y-09863D01*
X39116Y-09905D01*
X39131Y-09945D01*
X39149Y-09984D01*
X39171Y-10020D01*
X39197Y-10054D01*
X39226Y-10084D01*
X39258Y-10112D01*
X39293Y-10136D01*
X39330Y-10156D01*
X39370Y-10172D01*
X39412Y-10184D01*
X39455Y-10192D01*
X39500Y-10194D01*
X39545Y-10192D01*
X39588Y-10184D01*
X39630Y-10172D01*
X39670Y-10156D01*
X39707Y-10136D01*
X39742Y-10112D01*
X39774Y-10084D01*
X39803Y-10054D01*
X39829Y-10020D01*
X39851Y-09984D01*
X39869Y-09945D01*
X39884Y-09905D01*
X39894Y-09863D01*
X39899Y-09819D01*
X39899Y-09774D01*
X39899Y-09764D01*
X39899Y-09229D01*
X39899Y-09226D01*
X39898Y-09181D01*
X39891Y-09139D01*
X39880Y-09097D01*
X39865Y-09058D01*
X39846Y-09020D01*
X39823Y-08985D01*
X39797Y-08953D01*
X39768Y-08923D01*
X39736Y-08897D01*
X39701Y-08874D01*
X39806Y-08726D01*
X40274Y-09191D01*
X40274Y-13597D01*
X40277Y-13633D01*
X40285Y-13667D01*
X40299Y-13700D01*
X40317Y-13730D01*
X40340Y-13757D01*
X41274Y-14691D01*
X41274Y-27406D01*
X40340Y-28340D01*
X40317Y-28367D01*
X40299Y-28398D01*
X40285Y-28430D01*
X40277Y-28465D01*
X40274Y-28500D01*
X40274Y-29274D01*
X14726Y-29274D01*
X14726Y-27274D01*
X14721Y-27231D01*
X14707Y-27190D01*
X14686Y-27152D01*
X14657Y-27119D01*
X14624Y-27091D01*
X14586Y-27069D01*
X14545Y-27055D01*
X14502Y-27049D01*
X14458Y-27052D01*
X14421Y-27059D01*
X14385Y-27065D01*
X14348Y-27070D01*
X14310Y-27076D01*
X14273Y-27081D01*
X14236Y-27085D01*
X14198Y-27089D01*
X14161Y-27093D01*
X14123Y-27097D01*
X14085Y-27100D01*
X14047Y-27103D01*
X14009Y-27105D01*
X13970Y-27107D01*
X13932Y-27109D01*
X13893Y-27110D01*
X13854Y-27111D01*
X13696Y-27111D01*
X13538Y-27105D01*
X13383Y-27093D01*
X13229Y-27075D01*
X13076Y-27050D01*
X12926Y-27020D01*
X12777Y-26984D01*
X12631Y-26943D01*
X12487Y-26896D01*
X12345Y-26843D01*
X12205Y-26785D01*
X12068Y-26722D01*
X11934Y-26654D01*
X11802Y-26581D01*
X11673Y-26503D01*
X11547Y-26421D01*
X11424Y-26333D01*
X11304Y-26241D01*
X11187Y-26145D01*
X11073Y-26045D01*
X10963Y-25940D01*
X10857Y-25831D01*
X10754Y-25718D01*
X10655Y-25601D01*
X10560Y-25481D01*
X10469Y-25357D01*
X10382Y-25229D01*
X10299Y-25098D01*
X10220Y-24964D01*
X10146Y-24826D01*
X10076Y-24685D01*
X10010Y-24542D01*
X10057Y-24552D01*
X10103Y-24563D01*
X10150Y-24573D01*
X10196Y-24583D01*
X10243Y-24592D01*
X10290Y-24601D01*
X10337Y-24610D01*
X10383Y-24619D01*
X10430Y-24628D01*
X10477Y-24636D01*
X10525Y-24643D01*
X10572Y-24651D01*
X10619Y-24658D01*
X10667Y-24665D01*
X10714Y-24671D01*
X10762Y-24677D01*
X10809Y-24683D01*
X10857Y-24688D01*
X10905Y-24693D01*
X10953Y-24698D01*
X11001Y-24702D01*
X11050Y-24706D01*
X11098Y-24709D01*
X11146Y-24712D01*
X11195Y-24714D01*
X11244Y-24716D01*
X11292Y-24718D01*
X11341Y-24719D01*
X11390Y-24720D01*
X11440Y-24720D01*
X11489Y-24720D01*
X11538Y-24719D01*
X11643Y-24716D01*
X11747Y-24711D01*
X11851Y-24704D01*
X11955Y-24696D01*
X12058Y-24686D01*
X12160Y-24674D01*
X12262Y-24660D01*
X12363Y-24645D01*
X12464Y-24628D01*
X12565Y-24610D01*
X12665Y-24590D01*
X12764Y-24568D01*
X12863Y-24545D01*
X12961Y-24520D01*
X13059Y-24494D01*
X13156Y-24466D01*
X13252Y-24436D01*
X13348Y-24405D01*
X13443Y-24373D01*
X13537Y-24339D01*
X13631Y-24304D01*
X13724Y-24267D01*
X13816Y-24229D01*
X13908Y-24189D01*
X13999Y-24148D01*
X14089Y-24106D01*
X14179Y-24062D01*
X14267Y-24017D01*
X14355Y-23970D01*
X14443Y-23922D01*
X14529Y-23873D01*
X14615Y-23823D01*
X14646Y-23801D01*
X14673Y-23773D01*
X14695Y-23742D01*
X14711Y-23707D01*
X14722Y-23670D01*
X14726Y-23632D01*
X14726Y-13757D01*
X14722Y-13719D01*
X14711Y-13682D01*
X14695Y-13647D01*
X14673Y-13616D01*
X14646Y-13588D01*
X14615Y-13566D01*
X14529Y-13516D01*
X14443Y-13467D01*
X14355Y-13419D01*
X14267Y-13372D01*
X14179Y-13327D01*
X14089Y-13284D01*
X13999Y-13241D01*
X13908Y-13200D01*
X13816Y-13161D01*
X13724Y-13123D01*
X13631Y-13086D01*
X13537Y-13051D01*
X13442Y-13017D01*
X13347Y-12985D01*
X13252Y-12954D01*
X13155Y-12925D01*
X13058Y-12897D01*
X12961Y-12871D01*
X12862Y-12846D01*
X12764Y-12823D01*
X12664Y-12802D01*
X12565Y-12782D01*
X12464Y-12763D01*
X12363Y-12747D01*
X12262Y-12732D01*
X12160Y-12718D01*
X12057Y-12707D01*
X11954Y-12697D01*
X11851Y-12688D01*
X11747Y-12682D01*
X11643Y-12677D01*
X11538Y-12674D01*
X11489Y-12673D01*
X11440Y-12672D01*
X11391Y-12672D01*
X11342Y-12673D01*
X11293Y-12674D01*
X11244Y-12675D01*
X11196Y-12676D01*
X11147Y-12678D01*
X11099Y-12681D01*
X11050Y-12684D01*
X11002Y-12687D01*
X10954Y-12690D01*
X10906Y-12694D01*
X10858Y-12699D01*
X10810Y-12704D01*
X10762Y-12709D01*
X10715Y-12714D01*
X10667Y-12720D01*
X10620Y-12726D01*
X10572Y-12733D01*
X10525Y-12739D01*
X10478Y-12747D01*
X10431Y-12754D01*
X10384Y-12762D01*
X10337Y-12770D01*
X10290Y-12779D01*
X10243Y-12788D01*
X10196Y-12797D01*
X10150Y-12806D01*
X10103Y-12816D01*
X10057Y-12826D01*
X10010Y-12837D01*
X10076Y-12694D01*
X10146Y-12553D01*
X10220Y-12416D01*
X10299Y-12282D01*
X10383Y-12152D01*
X10470Y-12024D01*
X10561Y-11901D01*
X10657Y-11781D01*
X10756Y-11664D01*
X10859Y-11552D01*
X10965Y-11444D01*
X11075Y-11339D01*
X11189Y-11239D01*
X11306Y-11143D01*
X11426Y-11052D01*
X11549Y-10965D01*
X11675Y-10882D01*
X11804Y-10805D01*
X11936Y-10732D01*
X12070Y-10664D01*
X12207Y-10602D01*
X12347Y-10544D01*
X12489Y-10492D01*
X12633Y-10445D01*
X12779Y-10404D01*
X12927Y-10368D01*
X13078Y-10338D01*
X13230Y-10314D01*
X13384Y-10296D01*
X13539Y-10284D01*
X13696Y-10278D01*
X13854Y-10278D01*
X13893Y-10279D01*
X13931Y-10280D01*
X13969Y-10282D01*
X14008Y-10284D01*
X14046Y-10287D01*
X14083Y-10290D01*
X14121Y-10293D01*
X14159Y-10297D01*
X14197Y-10301D01*
X14234Y-10306D01*
X14272Y-10311D01*
X14309Y-10316D01*
X14346Y-10322D01*
X14384Y-10327D01*
X14421Y-10334D01*
X14458Y-10340D01*
X14502Y-10344D01*
X14545Y-10338D01*
X14586Y-10323D01*
X14624Y-10302D01*
X14657Y-10274D01*
X14686Y-10240D01*
X14707Y-10202D01*
X14721Y-10161D01*
X14726Y-10118D01*
X14726Y-08726D01*
X14726Y-08726D01*
G37*
G36*
X24212Y-12007D02*
X24212Y-12007D01*
X24301Y-12009D01*
X24390Y-12012D01*
X24479Y-12016D01*
X24568Y-12021D01*
X24657Y-12027D01*
X24745Y-12035D01*
X24833Y-12043D01*
X24921Y-12053D01*
X25008Y-12063D01*
X25095Y-12075D01*
X25182Y-12088D01*
X25269Y-12102D01*
X25355Y-12117D01*
X25441Y-12132D01*
X25527Y-12149D01*
X25612Y-12167D01*
X25697Y-12186D01*
X25782Y-12206D01*
X25866Y-12228D01*
X25950Y-12250D01*
X26034Y-12273D01*
X26117Y-12297D01*
X26200Y-12322D01*
X26282Y-12348D01*
X26365Y-12375D01*
X26446Y-12403D01*
X26527Y-12432D01*
X26608Y-12461D01*
X26689Y-12492D01*
X26769Y-12524D01*
X26848Y-12557D01*
X26927Y-12590D01*
X24292Y-15125D01*
X24266Y-15094D01*
X24237Y-15067D01*
X24204Y-15044D01*
X24168Y-15026D01*
X24130Y-15012D01*
X24090Y-15003D01*
X24049Y-15000D01*
X24005Y-15003D01*
X23963Y-15013D01*
X23923Y-15028D01*
X23887Y-15048D01*
X23853Y-15074D01*
X23824Y-15103D01*
X23798Y-15137D01*
X23778Y-15173D01*
X23763Y-15213D01*
X23753Y-15255D01*
X23750Y-15299D01*
X23753Y-15337D01*
X23761Y-15373D01*
X23774Y-15407D01*
X23792Y-15439D01*
X23813Y-15468D01*
X23837Y-15496D01*
X23865Y-15521D01*
X23865Y-15535D01*
X23604Y-15785D01*
X19573Y-13625D01*
X19648Y-13564D01*
X19724Y-13504D01*
X19801Y-13445D01*
X19879Y-13387D01*
X19957Y-13330D01*
X20037Y-13275D01*
X20117Y-13220D01*
X20198Y-13166D01*
X20280Y-13113D01*
X20362Y-13061D01*
X20446Y-13011D01*
X20530Y-12961D01*
X20615Y-12913D01*
X20701Y-12866D01*
X20787Y-12819D01*
X20875Y-12774D01*
X20963Y-12730D01*
X21052Y-12688D01*
X21141Y-12646D01*
X21231Y-12606D01*
X21322Y-12567D01*
X21414Y-12529D01*
X21506Y-12492D01*
X21599Y-12457D01*
X21693Y-12422D01*
X21788Y-12389D01*
X21883Y-12358D01*
X21979Y-12327D01*
X22075Y-12298D01*
X22172Y-12270D01*
X22270Y-12244D01*
X22368Y-12219D01*
X22362Y-12257D01*
X22358Y-12295D01*
X22358Y-12333D01*
X22362Y-12371D01*
X22368Y-12408D01*
X22378Y-12445D01*
X22392Y-12481D01*
X22408Y-12516D01*
X22429Y-12549D01*
X22452Y-12581D01*
X22479Y-12611D01*
X22511Y-12640D01*
X22546Y-12666D01*
X22583Y-12687D01*
X22621Y-12705D01*
X22660Y-12718D01*
X22700Y-12728D01*
X22741Y-12734D01*
X22783Y-12736D01*
X22824Y-12734D01*
X22865Y-12728D01*
X22906Y-12718D01*
X22945Y-12704D01*
X22983Y-12687D01*
X23020Y-12665D01*
X23054Y-12640D01*
X23087Y-12611D01*
X23191Y-12712D01*
X23194Y-12715D01*
X23163Y-12747D01*
X23136Y-12781D01*
X23113Y-12818D01*
X23094Y-12856D01*
X23078Y-12895D01*
X23067Y-12936D01*
X23059Y-12978D01*
X23056Y-13020D01*
X23057Y-13062D01*
X23061Y-13103D01*
X23070Y-13145D01*
X23083Y-13185D01*
X23100Y-13224D01*
X23122Y-13261D01*
X23147Y-13297D01*
X23177Y-13330D01*
X23210Y-13360D01*
X23246Y-13385D01*
X23283Y-13407D01*
X23322Y-13424D01*
X23362Y-13437D01*
X23404Y-13446D01*
X23445Y-13450D01*
X23487Y-13451D01*
X23529Y-13448D01*
X23571Y-13440D01*
X23611Y-13429D01*
X23651Y-13413D01*
X23689Y-13394D01*
X23726Y-13371D01*
X23760Y-13343D01*
X23792Y-13313D01*
X23795Y-13316D01*
X23896Y-13420D01*
X23899Y-13424D01*
X23868Y-13455D01*
X23841Y-13490D01*
X23818Y-13526D01*
X23799Y-13564D01*
X23783Y-13604D01*
X23772Y-13645D01*
X23764Y-13686D01*
X23761Y-13728D01*
X23762Y-13770D01*
X23766Y-13812D01*
X23775Y-13853D01*
X23788Y-13893D01*
X23805Y-13932D01*
X23827Y-13970D01*
X23852Y-14005D01*
X23882Y-14038D01*
X23915Y-14068D01*
X23951Y-14094D01*
X23988Y-14115D01*
X24027Y-14132D01*
X24067Y-14145D01*
X24108Y-14154D01*
X24150Y-14159D01*
X24192Y-14159D01*
X24234Y-14156D01*
X24276Y-14148D01*
X24316Y-14137D01*
X24356Y-14122D01*
X24394Y-14102D01*
X24430Y-14079D01*
X24465Y-14052D01*
X24497Y-14021D01*
X24500Y-14024D01*
X24924Y-13601D01*
X24924Y-13597D01*
X24953Y-13565D01*
X24980Y-13531D01*
X25002Y-13495D01*
X25021Y-13457D01*
X25036Y-13418D01*
X25047Y-13378D01*
X25053Y-13336D01*
X25056Y-13295D01*
X25055Y-13253D01*
X25049Y-13211D01*
X25039Y-13169D01*
X25024Y-13128D01*
X25007Y-13092D01*
X24987Y-13058D01*
X24963Y-13026D01*
X24937Y-12997D01*
X24909Y-12970D01*
X24878Y-12946D01*
X24845Y-12925D01*
X24811Y-12907D01*
X24774Y-12893D01*
X24737Y-12881D01*
X24698Y-12873D01*
X24658Y-12869D01*
X24618Y-12868D01*
X24618Y-12868D01*
X24582Y-12870D01*
X24566Y-12872D01*
X24526Y-12879D01*
X24488Y-12891D01*
X24452Y-12906D01*
X24417Y-12925D01*
X24384Y-12947D01*
X24352Y-12972D01*
X24323Y-13000D01*
X24319Y-13000D01*
X23903Y-13417D01*
X23896Y-13420D01*
X23795Y-13316D01*
X23799Y-13309D01*
X24215Y-12892D01*
X24215Y-12889D01*
X24244Y-12857D01*
X24269Y-12823D01*
X24291Y-12787D01*
X24309Y-12749D01*
X24323Y-12710D01*
X24334Y-12670D01*
X24340Y-12630D01*
X24342Y-12588D01*
X24340Y-12547D01*
X24334Y-12505D01*
X24324Y-12464D01*
X24309Y-12424D01*
X24290Y-12385D01*
X24268Y-12348D01*
X24242Y-12314D01*
X24213Y-12283D01*
X24182Y-12256D01*
X24148Y-12231D01*
X24112Y-12210D01*
X24074Y-12193D01*
X24034Y-12179D01*
X23993Y-12170D01*
X23950Y-12164D01*
X23906Y-12163D01*
X23906Y-12163D01*
X23866Y-12167D01*
X23826Y-12174D01*
X23787Y-12185D01*
X23750Y-12200D01*
X23714Y-12218D01*
X23680Y-12239D01*
X23648Y-12264D01*
X23618Y-12292D01*
X23615Y-12292D01*
X23198Y-12708D01*
X23191Y-12712D01*
X23087Y-12611D01*
X23510Y-12184D01*
X23507Y-12184D01*
X23507Y-12181D01*
X23533Y-12153D01*
X23556Y-12123D01*
X23576Y-12091D01*
X23593Y-12058D01*
X23608Y-12024D01*
X23646Y-12022D01*
X23683Y-12019D01*
X23721Y-12017D01*
X23759Y-12015D01*
X23797Y-12013D01*
X23835Y-12012D01*
X23873Y-12010D01*
X23911Y-12009D01*
X23949Y-12008D01*
X23986Y-12007D01*
X24024Y-12007D01*
X24062Y-12006D01*
X24099Y-12006D01*
X24137Y-12006D01*
X24174Y-12007D01*
X24212Y-12007D01*
X24212Y-12007D01*
G37*
G36*
X27851Y-13073D02*
X27038Y-17622D01*
X30566Y-19507D01*
X30582Y-19468D01*
X30602Y-19432D01*
X30628Y-19399D01*
X30657Y-19370D01*
X30690Y-19346D01*
X30726Y-19326D01*
X30765Y-19311D01*
X30807Y-19302D01*
X30851Y-19299D01*
X30889Y-19302D01*
X30924Y-19310D01*
X30958Y-19323D01*
X30989Y-19341D01*
X31018Y-19362D01*
X31045Y-19386D01*
X31069Y-19413D01*
X31222Y-19413D01*
X31224Y-19376D01*
X31225Y-19339D01*
X31226Y-19302D01*
X31226Y-19264D01*
X31227Y-19227D01*
X31228Y-19190D01*
X31228Y-19153D01*
X31228Y-19115D01*
X31228Y-19078D01*
X31227Y-19040D01*
X31227Y-19003D01*
X31226Y-18965D01*
X31213Y-18929D01*
X31204Y-18891D01*
X31201Y-18851D01*
X31204Y-18820D01*
X31210Y-18790D01*
X31219Y-18760D01*
X31217Y-18725D01*
X31215Y-18690D01*
X31213Y-18655D01*
X31210Y-18619D01*
X31208Y-18584D01*
X31205Y-18549D01*
X31201Y-18549D01*
X31157Y-18545D01*
X31115Y-18536D01*
X31075Y-18521D01*
X31038Y-18501D01*
X31004Y-18476D01*
X30974Y-18447D01*
X30949Y-18413D01*
X30928Y-18377D01*
X30912Y-18337D01*
X30903Y-18295D01*
X30899Y-18250D01*
X30902Y-18208D01*
X30910Y-18168D01*
X30924Y-18131D01*
X30942Y-18095D01*
X30964Y-18063D01*
X30991Y-18034D01*
X31021Y-18009D01*
X31054Y-17987D01*
X31090Y-17971D01*
X31128Y-17958D01*
X31093Y-17762D01*
X31052Y-17569D01*
X31007Y-17377D01*
X30956Y-17188D01*
X30900Y-17001D01*
X30840Y-16817D01*
X30775Y-16635D01*
X30705Y-16455D01*
X30631Y-16278D01*
X30552Y-16104D01*
X30469Y-15933D01*
X30382Y-15764D01*
X30290Y-15599D01*
X30194Y-15436D01*
X30095Y-15276D01*
X29991Y-15119D01*
X29883Y-14966D01*
X29771Y-14815D01*
X29656Y-14668D01*
X29537Y-14524D01*
X29414Y-14383D01*
X29288Y-14246D01*
X29158Y-14112D01*
X29025Y-13982D01*
X28889Y-13855D01*
X28750Y-13732D01*
X28607Y-13612D01*
X28462Y-13497D01*
X28313Y-13385D01*
X28162Y-13277D01*
X28008Y-13173D01*
X27851Y-13073D01*
X27851Y-13073D01*
X27851Y-13073D01*
G37*
G36*
X26941Y-13670D02*
X24337Y-16174D01*
X26306Y-17229D01*
X26941Y-13670D01*
X26941Y-13670D01*
G37*
G36*
X18799Y-14361D02*
X18772Y-14390D01*
X18746Y-14420D01*
X18720Y-14449D01*
X18695Y-14479D01*
X18669Y-14509D01*
X18644Y-14539D01*
X18619Y-14569D01*
X18593Y-14599D01*
X18569Y-14629D01*
X18544Y-14660D01*
X18519Y-14690D01*
X18495Y-14721D01*
X18471Y-14752D01*
X18446Y-14783D01*
X18423Y-14814D01*
X18399Y-14845D01*
X18375Y-14877D01*
X18352Y-14908D01*
X18329Y-14940D01*
X18306Y-14972D01*
X18283Y-15004D01*
X18260Y-15036D01*
X18238Y-15068D01*
X18215Y-15100D01*
X18193Y-15133D01*
X18171Y-15165D01*
X18149Y-15198D01*
X18174Y-15225D01*
X18196Y-15254D01*
X18216Y-15285D01*
X18233Y-15317D01*
X18247Y-15352D01*
X18259Y-15387D01*
X18267Y-15424D01*
X18273Y-15461D01*
X18274Y-15500D01*
X18272Y-15546D01*
X18265Y-15591D01*
X18253Y-15634D01*
X18236Y-15675D01*
X18216Y-15713D01*
X18192Y-15750D01*
X18165Y-15784D01*
X18134Y-15814D01*
X18101Y-15842D01*
X18064Y-15866D01*
X18025Y-15886D01*
X17984Y-15902D01*
X17941Y-15914D01*
X17897Y-15921D01*
X17851Y-15924D01*
X17812Y-15922D01*
X17773Y-15918D01*
X17736Y-15910D01*
X17719Y-15942D01*
X17703Y-15975D01*
X17686Y-16007D01*
X17670Y-16040D01*
X17653Y-16073D01*
X17637Y-16106D01*
X17622Y-16139D01*
X17656Y-16119D01*
X17692Y-16103D01*
X17730Y-16090D01*
X17769Y-16081D01*
X17809Y-16075D01*
X17851Y-16073D01*
X17894Y-16075D01*
X17936Y-16082D01*
X17977Y-16092D01*
X18016Y-16107D01*
X18053Y-16125D01*
X18088Y-16147D01*
X18121Y-16171D01*
X18151Y-16199D01*
X18178Y-16229D01*
X18202Y-16262D01*
X18223Y-16298D01*
X18241Y-16335D01*
X18255Y-16374D01*
X18266Y-16415D01*
X18272Y-16457D01*
X18274Y-16500D01*
X18272Y-16546D01*
X18265Y-16591D01*
X18253Y-16634D01*
X18236Y-16675D01*
X18216Y-16713D01*
X18192Y-16750D01*
X18165Y-16784D01*
X18134Y-16814D01*
X18101Y-16842D01*
X18064Y-16866D01*
X18025Y-16886D01*
X17984Y-16902D01*
X17941Y-16914D01*
X17897Y-16921D01*
X17851Y-16924D01*
X17807Y-16921D01*
X17765Y-16915D01*
X17725Y-16905D01*
X17686Y-16891D01*
X17649Y-16873D01*
X17614Y-16852D01*
X17581Y-16828D01*
X17551Y-16801D01*
X17523Y-16771D01*
X17499Y-16738D01*
X17477Y-16703D01*
X17459Y-16666D01*
X17445Y-16627D01*
X17434Y-16587D01*
X17396Y-16689D01*
X17359Y-16792D01*
X17324Y-16895D01*
X17290Y-17000D01*
X17258Y-17104D01*
X17227Y-17210D01*
X17198Y-17316D01*
X17171Y-17423D01*
X17145Y-17530D01*
X17121Y-17638D01*
X17098Y-17746D01*
X17077Y-17855D01*
X17058Y-17964D01*
X17041Y-18074D01*
X17025Y-18184D01*
X17011Y-18295D01*
X16998Y-18406D01*
X16988Y-18517D01*
X16979Y-18629D01*
X16971Y-18742D01*
X16966Y-18854D01*
X16962Y-18968D01*
X16961Y-19081D01*
X16961Y-19195D01*
X16963Y-19309D01*
X16966Y-19423D01*
X16972Y-19538D01*
X16979Y-19653D01*
X16988Y-19768D01*
X17000Y-19883D01*
X17013Y-19999D01*
X17028Y-20115D01*
X17035Y-20167D01*
X17043Y-20219D01*
X17051Y-20271D01*
X17060Y-20323D01*
X17069Y-20375D01*
X17078Y-20426D01*
X17088Y-20478D01*
X17098Y-20529D01*
X17108Y-20580D01*
X17119Y-20631D01*
X17130Y-20682D01*
X17141Y-20733D01*
X17153Y-20783D01*
X17165Y-20834D01*
X17178Y-20884D01*
X17190Y-20934D01*
X17204Y-20984D01*
X17217Y-21033D01*
X17231Y-21083D01*
X17245Y-21132D01*
X17260Y-21181D01*
X17275Y-21230D01*
X17290Y-21279D01*
X17305Y-21328D01*
X17321Y-21377D01*
X17337Y-21425D01*
X17354Y-21473D01*
X17371Y-21521D01*
X17388Y-21569D01*
X17405Y-21617D01*
X17423Y-21664D01*
X17441Y-21712D01*
X20799Y-18483D01*
X19622Y-16059D01*
X19603Y-16077D01*
X19583Y-16094D01*
X19583Y-16878D01*
X19611Y-16903D01*
X19636Y-16931D01*
X19658Y-16960D01*
X19676Y-16992D01*
X19690Y-17026D01*
X19698Y-17062D01*
X19701Y-17101D01*
X19698Y-17145D01*
X19688Y-17188D01*
X19673Y-17227D01*
X19652Y-17264D01*
X19626Y-17297D01*
X19596Y-17327D01*
X19562Y-17352D01*
X19525Y-17372D01*
X19485Y-17387D01*
X19443Y-17396D01*
X19399Y-17399D01*
X19355Y-17396D01*
X19314Y-17387D01*
X19274Y-17371D01*
X19237Y-17351D01*
X19204Y-17326D01*
X19174Y-17296D01*
X19149Y-17263D01*
X19129Y-17226D01*
X19113Y-17186D01*
X19104Y-17145D01*
X19101Y-17101D01*
X19104Y-17062D01*
X19112Y-17026D01*
X19125Y-16992D01*
X19142Y-16961D01*
X19163Y-16931D01*
X19188Y-16904D01*
X19215Y-16878D01*
X19215Y-16094D01*
X19188Y-16069D01*
X19164Y-16042D01*
X19143Y-16013D01*
X19125Y-15982D01*
X19112Y-15948D01*
X19104Y-15913D01*
X19101Y-15875D01*
X19104Y-15832D01*
X19113Y-15791D01*
X19127Y-15752D01*
X19147Y-15715D01*
X19171Y-15682D01*
X19199Y-15652D01*
X19231Y-15626D01*
X19266Y-15605D01*
X19305Y-15588D01*
X19346Y-15578D01*
X19389Y-15573D01*
X18799Y-14361D01*
X18799Y-14361D01*
G37*
G36*
X19813Y-14646D02*
X21392Y-17910D01*
X23010Y-16358D01*
X19813Y-14646D01*
X19813Y-14646D01*
G37*
G36*
X21156Y-19229D02*
X18545Y-21736D01*
X22135Y-21243D01*
X21156Y-19229D01*
X21156Y-19229D01*
G37*
G36*
X31083Y-19785D02*
X31194Y-19844D01*
X31198Y-19814D01*
X31201Y-19785D01*
X31083Y-19785D01*
X31083Y-19785D01*
G37*
G54D12*
X22501Y-11177D02*
X22077Y-11601D01*
X23208Y-11884D02*
X22784Y-12308D01*
X23916Y-12592D02*
X23492Y-13016D01*
X24623Y-13299D02*
X24199Y-13723D01*
G54D13*
X34500Y-24500D03*
X35500Y-24500D03*
G54D14*
X17850Y-16500D03*
X17850Y-15500D03*
X17063Y-15500D03*
X17063Y-16500D03*
G54D15*
X16000Y-18362D03*
X16000Y-13638D03*
G54D16*
X20500Y-09500D03*
X20000Y-28500D03*
X40500Y-26500D03*
X40500Y-15500D03*
G54D17*
X39555Y-17520D03*
G54D14*
X40555Y-17520D03*
X39555Y-18520D03*
X40555Y-18520D03*
X39555Y-19520D03*
X40555Y-19520D03*
G54D18*
X27500Y-28500D03*
X28500Y-28500D03*
X29500Y-28500D03*
X30500Y-28500D03*
X31500Y-28500D03*
X32500Y-28500D03*
X34500Y-28500D03*
X35500Y-28500D03*
X36500Y-28500D03*
X37500Y-28500D03*
X38500Y-28500D03*
X39500Y-28500D03*
X31000Y-09500D03*
X30000Y-09500D03*
X29000Y-09500D03*
X28000Y-09500D03*
X27000Y-09500D03*
X26000Y-09500D03*
X25000Y-09500D03*
X24000Y-09500D03*
X39500Y-09500D03*
X38500Y-09500D03*
X37500Y-09500D03*
X36500Y-09500D03*
X35500Y-09500D03*
X34500Y-09500D03*
X33500Y-09500D03*
X32500Y-09500D03*
G54D19*
X36200Y-16950D03*
X30700Y-18250D03*
X33975Y-17000D03*
X22400Y-17400D03*
X24050Y-15300D03*
X33800Y-18400D03*
X31200Y-18250D03*
X33650Y-19600D03*
X30850Y-19600D03*
X34800Y-18850D03*
X31500Y-18850D03*
X38400Y-18550D03*
X34850Y-17850D03*
X19400Y-17100D03*
X19400Y-15875D03*
G54D20*
X38000Y-13000D02*
X37000Y-12000D01*
X27500Y-12000D02*
X37000Y-12000D01*
X27500Y-12000D02*
X25000Y-09500D01*
X35750Y-17400D02*
X34250Y-17400D01*
X39350Y-19000D02*
X38000Y-17650D01*
X31550Y-17400D02*
X30700Y-18250D01*
X36200Y-16950D02*
X37300Y-16950D01*
X36200Y-16950D02*
X35750Y-17400D01*
G54D21*
X34250Y-17275D02*
X33975Y-17000D01*
G54D20*
X40555Y-19520D02*
X40035Y-19000D01*
G54D21*
X34250Y-17400D02*
X34250Y-17275D01*
G54D20*
X37300Y-16950D02*
X38000Y-17650D01*
X34250Y-17400D02*
X31550Y-17400D01*
X39350Y-19000D02*
X40035Y-19000D01*
X38000Y-17650D02*
X38000Y-13000D01*
G54D21*
X28500Y-11000D02*
X27000Y-09500D01*
X39520Y-17520D02*
X39000Y-17000D01*
X39000Y-12000D02*
X38000Y-11000D01*
X28500Y-11000D02*
X38000Y-11000D01*
X39555Y-17520D02*
X39520Y-17520D01*
X39000Y-17000D02*
X39000Y-12000D01*
X28000Y-09500D02*
X28000Y-10000D01*
X38500Y-10500D02*
X39500Y-11500D01*
X41000Y-17250D02*
X41000Y-18075D01*
X29000Y-10500D02*
X38500Y-10500D01*
X28000Y-09500D02*
X29000Y-10500D01*
X41000Y-18075D02*
X40555Y-18520D01*
X39500Y-11500D02*
X39500Y-15750D01*
X39500Y-15750D02*
X41000Y-17250D01*
X22400Y-17400D02*
X24050Y-15750D01*
X24050Y-15750D02*
X24050Y-15300D01*
X31200Y-18250D02*
X33650Y-18250D01*
X33650Y-18250D02*
X33800Y-18400D01*
X28400Y-27550D02*
X38600Y-27550D01*
X27500Y-28500D02*
X27500Y-28450D01*
X39555Y-26595D02*
X39555Y-19520D01*
X38600Y-27550D02*
X39555Y-26595D01*
X27500Y-28450D02*
X28400Y-27550D01*
X30850Y-19600D02*
X33650Y-19600D01*
X28000Y-11500D02*
X37500Y-11500D01*
X37500Y-11500D02*
X38500Y-12500D01*
X26000Y-09500D02*
X28000Y-11500D01*
X38500Y-12500D02*
X38500Y-17465D01*
X38500Y-17465D02*
X39555Y-18520D01*
X31500Y-18850D02*
X34800Y-18850D01*
G54D20*
X38400Y-18550D02*
X37700Y-17850D01*
X37700Y-17850D02*
X34850Y-17850D01*
X19400Y-17100D02*
X19400Y-15875D01*
M02*
