G04 (created by PCBNEW-RS274X (2012-apr-16-27)-stable) date Tue 03 Dec 2013 05:38:56 PM CET*
G01*
G70*
G90*
%MOIN*%
G04 Gerber Fmt 3.4, Leading zero omitted, Abs format*
%FSLAX34Y34*%
G04 APERTURE LIST*
%ADD10C,0.006000*%
%ADD11C,0.000100*%
%ADD12C,0.080000*%
%ADD13O,0.080000X0.140000*%
%ADD14C,0.080000*%
%ADD15C,0.126300*%
%ADD16C,0.145000*%
%ADD17R,0.080000X0.080000*%
%ADD18O,0.075000X0.130000*%
G04 APERTURE END LIST*
G54D10*
G54D11*
G36*
X23896Y-10983D02*
X23857Y-10984D01*
X23819Y-10985D01*
X23780Y-10986D01*
X23742Y-10988D01*
X23703Y-10990D01*
X23664Y-10992D01*
X23626Y-10994D01*
X23587Y-10996D01*
X23548Y-10999D01*
X23510Y-11001D01*
X23471Y-11004D01*
X23432Y-11007D01*
X23394Y-11011D01*
X23355Y-11014D01*
X23316Y-11018D01*
X23277Y-11022D01*
X23238Y-11026D01*
X23199Y-11030D01*
X23161Y-11034D01*
X23122Y-11039D01*
X23083Y-11044D01*
X23043Y-11049D01*
X23004Y-11054D01*
X22965Y-11059D01*
X22941Y-11062D01*
X22917Y-11066D01*
X22924Y-11102D01*
X22928Y-11137D01*
X22929Y-11173D01*
X22927Y-11208D01*
X22922Y-11244D01*
X22914Y-11278D01*
X22903Y-11313D01*
X22940Y-11307D01*
X22977Y-11301D01*
X23014Y-11295D01*
X23419Y-11250D01*
X23821Y-11225D01*
X24220Y-11221D01*
X24616Y-11237D01*
X25007Y-11272D01*
X25394Y-11326D01*
X25775Y-11399D01*
X26151Y-11491D01*
X26520Y-11600D01*
X26882Y-11726D01*
X27237Y-11870D01*
X27583Y-12030D01*
X27921Y-12207D01*
X28249Y-12399D01*
X28568Y-12606D01*
X28877Y-12828D01*
X29174Y-13065D01*
X29460Y-13315D01*
X29734Y-13579D01*
X29995Y-13857D01*
X30243Y-14147D01*
X30478Y-14449D01*
X30698Y-14763D01*
X30903Y-15089D01*
X31092Y-15426D01*
X31266Y-15773D01*
X31423Y-16131D01*
X31563Y-16498D01*
X31686Y-16874D01*
X31790Y-17260D01*
X31875Y-17654D01*
X31941Y-18056D01*
X31941Y-18063D01*
X32160Y-18063D01*
X32158Y-18042D01*
X32156Y-18021D01*
X32096Y-17646D01*
X32019Y-17277D01*
X31925Y-16916D01*
X31817Y-16562D01*
X31693Y-16216D01*
X31554Y-15878D01*
X31402Y-15548D01*
X31235Y-15227D01*
X31055Y-14914D01*
X30862Y-14612D01*
X30656Y-14319D01*
X30438Y-14036D01*
X30209Y-13763D01*
X29968Y-13501D01*
X29717Y-13250D01*
X29455Y-13010D01*
X29183Y-12782D01*
X28901Y-12566D01*
X28611Y-12362D01*
X28312Y-12171D01*
X28004Y-11993D01*
X27689Y-11828D01*
X27367Y-11677D01*
X27037Y-11539D01*
X26701Y-11416D01*
X26359Y-11308D01*
X26012Y-11215D01*
X25659Y-11136D01*
X25302Y-11074D01*
X24940Y-11027D01*
X24574Y-10997D01*
X24205Y-10983D01*
X24166Y-10982D01*
X24128Y-10982D01*
X24089Y-10981D01*
X24051Y-10981D01*
X24012Y-10981D01*
X23973Y-10981D01*
X23934Y-10982D01*
X23896Y-10983D01*
X23896Y-10983D01*
X23896Y-10983D01*
G37*
G36*
X21760Y-11319D02*
X21569Y-11379D01*
X21380Y-11442D01*
X21194Y-11510D01*
X21009Y-11582D01*
X20828Y-11659D01*
X20648Y-11740D01*
X20471Y-11825D01*
X20297Y-11913D01*
X20125Y-12006D01*
X19956Y-12103D01*
X19789Y-12204D01*
X19626Y-12308D01*
X19465Y-12416D01*
X19307Y-12528D01*
X19152Y-12643D01*
X19000Y-12761D01*
X18851Y-12884D01*
X18705Y-13009D01*
X18562Y-13138D01*
X18422Y-13270D01*
X18285Y-13405D01*
X18152Y-13543D01*
X18022Y-13684D01*
X17895Y-13829D01*
X17772Y-13976D01*
X17653Y-14126D01*
X17536Y-14278D01*
X17424Y-14433D01*
X17315Y-14591D01*
X17210Y-14752D01*
X17108Y-14915D01*
X17010Y-15080D01*
X17036Y-15076D01*
X17063Y-15073D01*
X17100Y-15075D01*
X17136Y-15080D01*
X17172Y-15088D01*
X17206Y-15099D01*
X17239Y-15112D01*
X17271Y-15128D01*
X17363Y-14977D01*
X17458Y-14827D01*
X17556Y-14679D01*
X17658Y-14534D01*
X17762Y-14391D01*
X17870Y-14251D01*
X17981Y-14112D01*
X18095Y-13977D01*
X18213Y-13843D01*
X18333Y-13713D01*
X18456Y-13585D01*
X18582Y-13460D01*
X18710Y-13337D01*
X18842Y-13218D01*
X18976Y-13101D01*
X19113Y-12987D01*
X19253Y-12876D01*
X19395Y-12768D01*
X19540Y-12664D01*
X19687Y-12562D01*
X19837Y-12464D01*
X19990Y-12369D01*
X20145Y-12277D01*
X20302Y-12189D01*
X20461Y-12104D01*
X20623Y-12023D01*
X20787Y-11945D01*
X20953Y-11871D01*
X21121Y-11800D01*
X21292Y-11733D01*
X21464Y-11670D01*
X21639Y-11611D01*
X21642Y-11572D01*
X21648Y-11532D01*
X21658Y-11494D01*
X21672Y-11456D01*
X21689Y-11419D01*
X21709Y-11384D01*
X21733Y-11351D01*
X21760Y-11319D01*
X21760Y-11319D01*
X21760Y-11319D01*
G37*
G36*
X24212Y-12007D02*
X24174Y-12007D01*
X24137Y-12006D01*
X24099Y-12006D01*
X24062Y-12006D01*
X24024Y-12007D01*
X23986Y-12007D01*
X23949Y-12008D01*
X23911Y-12009D01*
X23873Y-12010D01*
X23835Y-12012D01*
X23797Y-12013D01*
X23759Y-12015D01*
X23721Y-12017D01*
X23683Y-12019D01*
X23646Y-12022D01*
X23608Y-12024D01*
X23593Y-12058D01*
X23576Y-12091D01*
X23556Y-12123D01*
X23533Y-12153D01*
X23507Y-12181D01*
X23507Y-12184D01*
X23510Y-12184D01*
X23465Y-12233D01*
X23504Y-12229D01*
X23542Y-12226D01*
X23580Y-12222D01*
X23618Y-12219D01*
X23656Y-12217D01*
X23694Y-12214D01*
X23733Y-12212D01*
X23765Y-12196D01*
X23799Y-12183D01*
X23834Y-12173D01*
X23870Y-12166D01*
X23906Y-12163D01*
X23946Y-12164D01*
X23984Y-12168D01*
X24022Y-12176D01*
X24059Y-12187D01*
X24094Y-12201D01*
X24126Y-12201D01*
X24159Y-12201D01*
X24191Y-12201D01*
X24267Y-12203D01*
X24344Y-12205D01*
X24420Y-12208D01*
X24496Y-12212D01*
X24572Y-12217D01*
X24647Y-12223D01*
X24723Y-12229D01*
X24798Y-12237D01*
X24873Y-12245D01*
X24948Y-12254D01*
X25022Y-12263D01*
X25097Y-12274D01*
X25171Y-12285D01*
X25245Y-12297D01*
X25318Y-12310D01*
X25392Y-12324D01*
X25465Y-12338D01*
X25538Y-12354D01*
X25611Y-12370D01*
X25683Y-12386D01*
X25756Y-12404D01*
X25828Y-12422D01*
X25899Y-12441D01*
X25971Y-12461D01*
X26042Y-12482D01*
X26113Y-12503D01*
X26183Y-12525D01*
X26253Y-12548D01*
X26323Y-12571D01*
X26393Y-12595D01*
X26462Y-12620D01*
X26531Y-12646D01*
X24076Y-15003D01*
X24113Y-15009D01*
X24149Y-15019D01*
X24182Y-15033D01*
X24213Y-15051D01*
X24242Y-15073D01*
X24269Y-15097D01*
X24292Y-15125D01*
X26927Y-12590D01*
X26848Y-12557D01*
X26769Y-12524D01*
X26689Y-12492D01*
X26608Y-12461D01*
X26527Y-12432D01*
X26446Y-12403D01*
X26365Y-12375D01*
X26282Y-12348D01*
X26200Y-12322D01*
X26117Y-12297D01*
X26034Y-12273D01*
X25950Y-12250D01*
X25866Y-12228D01*
X25782Y-12206D01*
X25697Y-12186D01*
X25612Y-12167D01*
X25527Y-12149D01*
X25441Y-12132D01*
X25355Y-12117D01*
X25269Y-12102D01*
X25182Y-12088D01*
X25095Y-12075D01*
X25008Y-12063D01*
X24921Y-12053D01*
X24833Y-12043D01*
X24745Y-12035D01*
X24657Y-12027D01*
X24568Y-12021D01*
X24479Y-12016D01*
X24390Y-12012D01*
X24301Y-12009D01*
X24212Y-12007D01*
X24212Y-12007D01*
X24212Y-12007D01*
G37*
G36*
X22368Y-12219D02*
X22270Y-12244D01*
X22172Y-12270D01*
X22075Y-12298D01*
X21979Y-12327D01*
X21883Y-12358D01*
X21788Y-12389D01*
X21693Y-12422D01*
X21599Y-12457D01*
X21506Y-12492D01*
X21414Y-12529D01*
X21322Y-12567D01*
X21231Y-12606D01*
X21141Y-12646D01*
X21052Y-12688D01*
X20963Y-12730D01*
X20875Y-12774D01*
X20787Y-12819D01*
X20701Y-12866D01*
X20615Y-12913D01*
X20530Y-12961D01*
X20446Y-13011D01*
X20362Y-13061D01*
X20280Y-13113D01*
X20198Y-13166D01*
X20117Y-13220D01*
X20037Y-13275D01*
X19957Y-13330D01*
X19879Y-13387D01*
X19801Y-13445D01*
X19724Y-13504D01*
X19648Y-13564D01*
X19573Y-13625D01*
X23604Y-15785D01*
X23865Y-15535D01*
X23865Y-15521D01*
X23835Y-15493D01*
X23809Y-15463D01*
X23788Y-15430D01*
X23771Y-15394D01*
X23759Y-15356D01*
X23753Y-15316D01*
X23549Y-15510D01*
X19934Y-13576D01*
X20001Y-13527D01*
X20069Y-13479D01*
X20137Y-13431D01*
X20206Y-13384D01*
X20275Y-13338D01*
X20346Y-13292D01*
X20416Y-13248D01*
X20488Y-13204D01*
X20560Y-13161D01*
X20632Y-13119D01*
X20705Y-13077D01*
X20779Y-13037D01*
X20854Y-12997D01*
X20928Y-12958D01*
X21004Y-12921D01*
X21080Y-12884D01*
X21157Y-12847D01*
X21234Y-12812D01*
X21311Y-12778D01*
X21390Y-12744D01*
X21468Y-12712D01*
X21548Y-12680D01*
X21627Y-12650D01*
X21708Y-12620D01*
X21789Y-12591D01*
X21870Y-12563D01*
X21952Y-12536D01*
X22034Y-12510D01*
X22117Y-12486D01*
X22200Y-12462D01*
X22284Y-12439D01*
X22368Y-12417D01*
X22361Y-12378D01*
X22357Y-12338D01*
X22357Y-12298D01*
X22361Y-12258D01*
X22368Y-12219D01*
X22368Y-12219D01*
X22368Y-12219D01*
G37*
G36*
X27851Y-13073D02*
X27038Y-17622D01*
X30566Y-19507D01*
X30580Y-19472D01*
X30598Y-19439D01*
X30620Y-19408D01*
X30645Y-19381D01*
X30674Y-19357D01*
X30705Y-19337D01*
X27264Y-17497D01*
X27997Y-13406D01*
X28139Y-13507D01*
X28279Y-13610D01*
X28417Y-13718D01*
X28552Y-13829D01*
X28684Y-13943D01*
X28813Y-14060D01*
X28939Y-14181D01*
X29062Y-14305D01*
X29182Y-14432D01*
X29299Y-14563D01*
X29413Y-14696D01*
X29523Y-14833D01*
X29630Y-14972D01*
X29734Y-15115D01*
X29834Y-15260D01*
X29930Y-15408D01*
X30023Y-15558D01*
X30112Y-15712D01*
X30198Y-15868D01*
X30279Y-16026D01*
X30357Y-16188D01*
X30431Y-16351D01*
X30501Y-16517D01*
X30566Y-16686D01*
X30627Y-16856D01*
X30685Y-17029D01*
X30737Y-17204D01*
X30786Y-17382D01*
X30830Y-17561D01*
X30869Y-17742D01*
X30904Y-17926D01*
X30934Y-18111D01*
X30953Y-18080D01*
X30975Y-18052D01*
X31000Y-18026D01*
X31029Y-18003D01*
X31060Y-17985D01*
X31093Y-17969D01*
X31128Y-17958D01*
X31093Y-17762D01*
X31052Y-17569D01*
X31007Y-17377D01*
X30956Y-17188D01*
X30900Y-17001D01*
X30840Y-16817D01*
X30775Y-16635D01*
X30705Y-16455D01*
X30631Y-16278D01*
X30552Y-16104D01*
X30469Y-15933D01*
X30382Y-15764D01*
X30290Y-15599D01*
X30194Y-15436D01*
X30095Y-15276D01*
X29991Y-15119D01*
X29883Y-14966D01*
X29771Y-14815D01*
X29656Y-14668D01*
X29537Y-14524D01*
X29414Y-14383D01*
X29288Y-14246D01*
X29158Y-14112D01*
X29025Y-13982D01*
X28889Y-13855D01*
X28750Y-13732D01*
X28607Y-13612D01*
X28462Y-13497D01*
X28313Y-13385D01*
X28162Y-13277D01*
X28008Y-13173D01*
X27851Y-13073D01*
X27851Y-13073D01*
X27851Y-13073D01*
G37*
G36*
X26941Y-13670D02*
X26306Y-17229D01*
X24337Y-16174D01*
X24681Y-16115D01*
X26135Y-16892D01*
X26604Y-14264D01*
X24681Y-16115D01*
X24337Y-16174D01*
X26941Y-13670D01*
X26941Y-13670D01*
G37*
G36*
X18799Y-14361D02*
X18772Y-14390D01*
X18746Y-14420D01*
X18720Y-14449D01*
X18695Y-14479D01*
X18669Y-14509D01*
X18644Y-14539D01*
X18619Y-14569D01*
X18593Y-14599D01*
X18569Y-14629D01*
X18544Y-14660D01*
X18519Y-14690D01*
X18495Y-14721D01*
X18471Y-14752D01*
X18446Y-14783D01*
X18423Y-14814D01*
X18399Y-14845D01*
X18375Y-14877D01*
X18352Y-14908D01*
X18329Y-14940D01*
X18306Y-14972D01*
X18283Y-15004D01*
X18260Y-15036D01*
X18238Y-15068D01*
X18215Y-15100D01*
X18193Y-15133D01*
X18171Y-15165D01*
X18149Y-15198D01*
X18173Y-15224D01*
X18194Y-15252D01*
X18212Y-15281D01*
X18228Y-15312D01*
X18242Y-15345D01*
X18253Y-15378D01*
X18275Y-15345D01*
X18297Y-15312D01*
X18319Y-15279D01*
X18341Y-15246D01*
X18363Y-15213D01*
X18386Y-15180D01*
X18408Y-15148D01*
X18431Y-15115D01*
X18454Y-15083D01*
X18477Y-15051D01*
X18500Y-15018D01*
X18524Y-14987D01*
X18548Y-14955D01*
X18571Y-14923D01*
X18595Y-14891D01*
X18620Y-14860D01*
X18644Y-14829D01*
X18669Y-14798D01*
X18694Y-14767D01*
X18719Y-14736D01*
X19177Y-15677D01*
X19205Y-15649D01*
X19236Y-15624D01*
X19271Y-15604D01*
X19308Y-15588D01*
X19347Y-15578D01*
X19389Y-15573D01*
X18799Y-14361D01*
X18799Y-14361D01*
G37*
G36*
X19813Y-14646D02*
X23010Y-16358D01*
X21392Y-17910D01*
X21434Y-17542D01*
X22625Y-16399D01*
X20271Y-15139D01*
X21434Y-17542D01*
X21392Y-17910D01*
X19813Y-14646D01*
X19813Y-14646D01*
G37*
G36*
X16691Y-15698D02*
X16632Y-15827D01*
X16575Y-15958D01*
X16520Y-16089D01*
X16468Y-16222D01*
X16418Y-16356D01*
X16370Y-16490D01*
X16324Y-16626D01*
X16281Y-16762D01*
X16240Y-16900D01*
X16201Y-17038D01*
X16165Y-17177D01*
X16131Y-17317D01*
X16100Y-17458D01*
X16071Y-17600D01*
X16045Y-17742D01*
X16021Y-17885D01*
X16000Y-18029D01*
X15981Y-18173D01*
X15965Y-18318D01*
X15952Y-18464D01*
X15941Y-18610D01*
X15932Y-18757D01*
X15927Y-18904D01*
X15924Y-19052D01*
X15924Y-19201D01*
X15926Y-19349D01*
X15931Y-19499D01*
X15939Y-19648D01*
X15950Y-19798D01*
X15964Y-19948D01*
X15981Y-20099D01*
X16000Y-20250D01*
X16020Y-20387D01*
X16042Y-20523D01*
X16067Y-20658D01*
X16093Y-20792D01*
X16122Y-20925D01*
X16153Y-21057D01*
X16186Y-21188D01*
X16221Y-21319D01*
X16258Y-21448D01*
X16297Y-21577D01*
X16339Y-21704D01*
X16382Y-21830D01*
X16427Y-21956D01*
X16474Y-22080D01*
X16523Y-22203D01*
X16574Y-22325D01*
X16627Y-22447D01*
X16682Y-22567D01*
X16738Y-22685D01*
X16797Y-22803D01*
X16857Y-22920D01*
X16919Y-23035D01*
X16983Y-23149D01*
X17048Y-23262D01*
X17115Y-23374D01*
X17184Y-23485D01*
X17255Y-23594D01*
X17327Y-23702D01*
X17401Y-23809D01*
X17476Y-23914D01*
X17553Y-24019D01*
X17632Y-24122D01*
X17665Y-24102D01*
X17698Y-24083D01*
X17729Y-24069D01*
X17761Y-24060D01*
X17795Y-24056D01*
X17824Y-24058D01*
X17852Y-24063D01*
X17878Y-24073D01*
X17899Y-24083D01*
X17920Y-24094D01*
X17839Y-23992D01*
X17760Y-23888D01*
X17683Y-23784D01*
X17607Y-23678D01*
X17533Y-23570D01*
X17461Y-23462D01*
X17390Y-23352D01*
X17321Y-23240D01*
X17254Y-23128D01*
X17188Y-23014D01*
X17125Y-22899D01*
X17063Y-22782D01*
X17003Y-22665D01*
X16945Y-22546D01*
X16889Y-22426D01*
X16835Y-22305D01*
X16783Y-22183D01*
X16733Y-22059D01*
X16685Y-21935D01*
X16638Y-21809D01*
X16594Y-21682D01*
X16552Y-21555D01*
X16512Y-21426D01*
X16474Y-21296D01*
X16439Y-21165D01*
X16405Y-21033D01*
X16374Y-20901D01*
X16344Y-20767D01*
X16317Y-20632D01*
X16293Y-20496D01*
X16270Y-20360D01*
X16250Y-20222D01*
X16231Y-20078D01*
X16216Y-19935D01*
X16202Y-19792D01*
X16192Y-19649D01*
X16184Y-19506D01*
X16178Y-19364D01*
X16176Y-19222D01*
X16175Y-19081D01*
X16178Y-18940D01*
X16182Y-18799D01*
X16190Y-18659D01*
X16199Y-18520D01*
X16211Y-18381D01*
X16226Y-18243D01*
X16243Y-18105D01*
X16262Y-17968D01*
X16284Y-17832D01*
X16308Y-17696D01*
X16335Y-17561D01*
X16364Y-17426D01*
X16395Y-17293D01*
X16428Y-17160D01*
X16464Y-17028D01*
X16501Y-16896D01*
X16541Y-16766D01*
X16584Y-16636D01*
X16628Y-16508D01*
X16675Y-16380D01*
X16723Y-16253D01*
X16774Y-16127D01*
X16827Y-16002D01*
X16882Y-15878D01*
X16848Y-15860D01*
X16816Y-15839D01*
X16786Y-15816D01*
X16759Y-15789D01*
X16734Y-15761D01*
X16711Y-15730D01*
X16691Y-15698D01*
X16691Y-15698D01*
X16691Y-15698D01*
G37*
G36*
X17736Y-15910D02*
X17719Y-15942D01*
X17703Y-15975D01*
X17686Y-16007D01*
X17670Y-16040D01*
X17653Y-16073D01*
X17637Y-16106D01*
X17622Y-16139D01*
X17656Y-16119D01*
X17692Y-16103D01*
X17730Y-16090D01*
X17769Y-16081D01*
X17809Y-16075D01*
X17851Y-16073D01*
X17858Y-16073D01*
X17873Y-16042D01*
X17888Y-16010D01*
X17903Y-15979D01*
X17918Y-15948D01*
X17934Y-15917D01*
X17907Y-15921D01*
X17879Y-15923D01*
X17851Y-15924D01*
X17812Y-15922D01*
X17773Y-15918D01*
X17736Y-15910D01*
X17736Y-15910D01*
X17736Y-15910D01*
G37*
G36*
X19622Y-16059D02*
X19603Y-16077D01*
X19583Y-16094D01*
X19583Y-16517D01*
X20510Y-18431D01*
X17500Y-21323D01*
X17488Y-21286D01*
X17476Y-21248D01*
X17464Y-21211D01*
X17452Y-21173D01*
X17441Y-21136D01*
X17429Y-21098D01*
X17418Y-21060D01*
X17407Y-21022D01*
X17397Y-20984D01*
X17386Y-20946D01*
X17376Y-20908D01*
X17366Y-20869D01*
X17356Y-20831D01*
X17346Y-20793D01*
X17337Y-20754D01*
X17327Y-20715D01*
X17318Y-20676D01*
X17309Y-20638D01*
X17301Y-20599D01*
X17292Y-20560D01*
X17284Y-20520D01*
X17276Y-20481D01*
X17268Y-20442D01*
X17260Y-20402D01*
X17253Y-20363D01*
X17246Y-20323D01*
X17239Y-20283D01*
X17232Y-20244D01*
X17226Y-20204D01*
X17220Y-20164D01*
X17214Y-20124D01*
X17208Y-20083D01*
X17194Y-19976D01*
X17182Y-19868D01*
X17171Y-19761D01*
X17162Y-19654D01*
X17155Y-19547D01*
X17149Y-19440D01*
X17145Y-19334D01*
X17143Y-19228D01*
X17142Y-19122D01*
X17143Y-19017D01*
X17146Y-18911D01*
X17150Y-18806D01*
X17155Y-18702D01*
X17162Y-18598D01*
X17171Y-18494D01*
X17182Y-18390D01*
X17193Y-18287D01*
X17207Y-18184D01*
X17222Y-18082D01*
X17238Y-17980D01*
X17256Y-17879D01*
X17275Y-17778D01*
X17296Y-17677D01*
X17318Y-17577D01*
X17342Y-17477D01*
X17368Y-17378D01*
X17394Y-17280D01*
X17422Y-17182D01*
X17452Y-17084D01*
X17483Y-16987D01*
X17515Y-16891D01*
X17549Y-16795D01*
X17522Y-16766D01*
X17498Y-16734D01*
X17477Y-16700D01*
X17459Y-16664D01*
X17444Y-16627D01*
X17434Y-16587D01*
X17396Y-16689D01*
X17359Y-16792D01*
X17324Y-16895D01*
X17290Y-17000D01*
X17258Y-17104D01*
X17227Y-17210D01*
X17198Y-17316D01*
X17171Y-17423D01*
X17145Y-17530D01*
X17121Y-17638D01*
X17098Y-17746D01*
X17077Y-17855D01*
X17058Y-17964D01*
X17041Y-18074D01*
X17025Y-18184D01*
X17011Y-18295D01*
X16998Y-18406D01*
X16988Y-18517D01*
X16979Y-18629D01*
X16971Y-18742D01*
X16966Y-18854D01*
X16962Y-18968D01*
X16961Y-19081D01*
X16961Y-19195D01*
X16963Y-19309D01*
X16966Y-19423D01*
X16972Y-19538D01*
X16979Y-19653D01*
X16988Y-19768D01*
X17000Y-19883D01*
X17013Y-19999D01*
X17028Y-20115D01*
X17035Y-20167D01*
X17043Y-20219D01*
X17051Y-20271D01*
X17060Y-20323D01*
X17069Y-20375D01*
X17078Y-20426D01*
X17088Y-20478D01*
X17098Y-20529D01*
X17108Y-20580D01*
X17119Y-20631D01*
X17130Y-20682D01*
X17141Y-20733D01*
X17153Y-20783D01*
X17165Y-20834D01*
X17178Y-20884D01*
X17190Y-20934D01*
X17204Y-20984D01*
X17217Y-21033D01*
X17231Y-21083D01*
X17245Y-21132D01*
X17260Y-21181D01*
X17275Y-21230D01*
X17290Y-21279D01*
X17305Y-21328D01*
X17321Y-21377D01*
X17337Y-21425D01*
X17354Y-21473D01*
X17371Y-21521D01*
X17388Y-21569D01*
X17405Y-21617D01*
X17423Y-21664D01*
X17441Y-21712D01*
X20799Y-18483D01*
X19622Y-16059D01*
X19622Y-16059D01*
G37*
G36*
X23740Y-16747D02*
X21753Y-18653D01*
X22955Y-21128D01*
X24788Y-20878D01*
X24763Y-20866D01*
X24735Y-20855D01*
X24704Y-20845D01*
X24672Y-20836D01*
X24636Y-20828D01*
X24597Y-20822D01*
X24556Y-20816D01*
X24512Y-20812D01*
X24470Y-20810D01*
X24429Y-20809D01*
X24389Y-20809D01*
X24349Y-20811D01*
X24311Y-20815D01*
X24273Y-20820D01*
X24236Y-20826D01*
X24199Y-20834D01*
X24163Y-20844D01*
X24127Y-20854D01*
X24090Y-20863D01*
X24053Y-20872D01*
X24016Y-20880D01*
X23978Y-20887D01*
X23940Y-20894D01*
X23902Y-20900D01*
X23863Y-20905D01*
X23824Y-20910D01*
X23785Y-20914D01*
X23745Y-20918D01*
X23705Y-20920D01*
X23665Y-20922D01*
X23625Y-20924D01*
X23584Y-20920D01*
X23545Y-20910D01*
X23508Y-20893D01*
X23475Y-20873D01*
X23448Y-20851D01*
X23441Y-20844D01*
X23059Y-20896D01*
X21993Y-18698D01*
X23753Y-17003D01*
X25906Y-18156D01*
X25479Y-20559D01*
X25372Y-20573D01*
X25396Y-20600D01*
X25420Y-20627D01*
X25443Y-20656D01*
X25466Y-20684D01*
X25488Y-20714D01*
X25510Y-20744D01*
X25531Y-20774D01*
X25677Y-20753D01*
X26160Y-18045D01*
X23740Y-16747D01*
X23740Y-16747D01*
G37*
G36*
X26892Y-18434D02*
X26497Y-20639D01*
X29309Y-20250D01*
X29306Y-20216D01*
X29305Y-20181D01*
X29308Y-20143D01*
X29316Y-20104D01*
X29324Y-20078D01*
X29336Y-20052D01*
X29351Y-20028D01*
X26750Y-20385D01*
X27038Y-18760D01*
X29365Y-20007D01*
X29390Y-19978D01*
X29418Y-19952D01*
X29449Y-19929D01*
X29480Y-19910D01*
X29513Y-19894D01*
X29545Y-19882D01*
X29576Y-19875D01*
X26892Y-18434D01*
X26892Y-18434D01*
G37*
G36*
X30979Y-18448D02*
X30983Y-18488D01*
X30987Y-18528D01*
X30990Y-18568D01*
X30993Y-18607D01*
X30996Y-18647D01*
X30998Y-18687D01*
X31000Y-18727D01*
X31003Y-18766D01*
X31004Y-18806D01*
X31006Y-18846D01*
X31007Y-18885D01*
X31008Y-18925D01*
X31009Y-18964D01*
X31010Y-19004D01*
X31010Y-19043D01*
X31011Y-19083D01*
X31011Y-19122D01*
X31011Y-19162D01*
X31010Y-19201D01*
X31010Y-19240D01*
X31009Y-19279D01*
X31008Y-19319D01*
X31007Y-19358D01*
X31029Y-19375D01*
X31050Y-19393D01*
X31069Y-19413D01*
X31222Y-19413D01*
X31224Y-19376D01*
X31225Y-19339D01*
X31226Y-19302D01*
X31226Y-19264D01*
X31227Y-19227D01*
X31228Y-19190D01*
X31228Y-19153D01*
X31228Y-19115D01*
X31228Y-19078D01*
X31227Y-19040D01*
X31227Y-19003D01*
X31226Y-18965D01*
X31213Y-18929D01*
X31204Y-18891D01*
X31201Y-18851D01*
X31204Y-18820D01*
X31210Y-18790D01*
X31219Y-18760D01*
X31217Y-18725D01*
X31215Y-18690D01*
X31213Y-18655D01*
X31210Y-18619D01*
X31208Y-18584D01*
X31205Y-18549D01*
X31201Y-18549D01*
X31164Y-18546D01*
X31129Y-18539D01*
X31095Y-18528D01*
X31062Y-18513D01*
X31032Y-18495D01*
X31004Y-18473D01*
X30979Y-18448D01*
X30979Y-18448D01*
X30979Y-18448D01*
G37*
G36*
X32014Y-19035D02*
X32014Y-19073D01*
X32015Y-19111D01*
X32015Y-19149D01*
X32015Y-19186D01*
X32014Y-19224D01*
X32014Y-19262D01*
X32013Y-19300D01*
X32013Y-19338D01*
X32012Y-19375D01*
X32010Y-19413D01*
X32226Y-19413D01*
X32227Y-19376D01*
X32228Y-19338D01*
X32229Y-19300D01*
X32229Y-19262D01*
X32230Y-19224D01*
X32230Y-19186D01*
X32230Y-19149D01*
X32230Y-19111D01*
X32230Y-19073D01*
X32229Y-19035D01*
X32014Y-19035D01*
X32014Y-19035D01*
G37*
G36*
X21156Y-19229D02*
X21069Y-19587D01*
X19146Y-21434D01*
X21788Y-21069D01*
X21069Y-19587D01*
X21156Y-19229D01*
X22135Y-21243D01*
X18545Y-21736D01*
X21156Y-19229D01*
X21156Y-19229D01*
G37*
G36*
X31083Y-19785D02*
X31194Y-19844D01*
X31198Y-19814D01*
X31201Y-19785D01*
X31083Y-19785D01*
X31083Y-19785D01*
G37*
G36*
X31990Y-19785D02*
X31986Y-19825D01*
X31983Y-19865D01*
X31979Y-19905D01*
X31975Y-19945D01*
X31971Y-19985D01*
X31966Y-20025D01*
X31962Y-20065D01*
X31957Y-20105D01*
X31952Y-20145D01*
X31947Y-20185D01*
X31942Y-20225D01*
X31936Y-20264D01*
X31931Y-20304D01*
X31925Y-20344D01*
X31919Y-20383D01*
X31912Y-20423D01*
X31906Y-20462D01*
X31899Y-20501D01*
X31892Y-20541D01*
X31885Y-20580D01*
X31878Y-20619D01*
X31870Y-20658D01*
X31863Y-20697D01*
X31855Y-20736D01*
X31847Y-20775D01*
X31839Y-20814D01*
X31830Y-20853D01*
X31821Y-20892D01*
X31813Y-20931D01*
X31827Y-20962D01*
X31842Y-20995D01*
X31856Y-21027D01*
X31870Y-21061D01*
X31883Y-21095D01*
X31896Y-21129D01*
X31909Y-21164D01*
X31921Y-21199D01*
X31933Y-21235D01*
X31944Y-21271D01*
X31957Y-21226D01*
X31969Y-21180D01*
X31980Y-21135D01*
X31992Y-21089D01*
X32003Y-21044D01*
X32014Y-20998D01*
X32024Y-20953D01*
X32035Y-20907D01*
X32045Y-20861D01*
X32055Y-20815D01*
X32065Y-20769D01*
X32074Y-20723D01*
X32083Y-20677D01*
X32092Y-20630D01*
X32100Y-20584D01*
X32109Y-20538D01*
X32117Y-20491D01*
X32125Y-20445D01*
X32132Y-20398D01*
X32139Y-20351D01*
X32146Y-20304D01*
X32153Y-20257D01*
X32159Y-20211D01*
X32166Y-20164D01*
X32171Y-20116D01*
X32177Y-20069D01*
X32182Y-20022D01*
X32187Y-19975D01*
X32192Y-19927D01*
X32197Y-19880D01*
X32201Y-19832D01*
X32205Y-19785D01*
X31990Y-19785D01*
X31990Y-19785D01*
G37*
G36*
X29830Y-20069D02*
X29830Y-20069D01*
X29863Y-20070D01*
X29897Y-20071D01*
X29931Y-20073D01*
X29966Y-20075D01*
X30001Y-20078D01*
X30037Y-20082D01*
X30073Y-20087D01*
X30112Y-20092D01*
X30150Y-20096D01*
X30189Y-20099D01*
X30227Y-20102D01*
X30265Y-20104D01*
X30302Y-20106D01*
X30340Y-20107D01*
X30377Y-20106D01*
X30414Y-20106D01*
X30450Y-20104D01*
X30487Y-20101D01*
X30523Y-20098D01*
X30559Y-20094D01*
X30585Y-20096D01*
X30612Y-20099D01*
X30639Y-20104D01*
X30672Y-20114D01*
X30704Y-20125D01*
X30738Y-20140D01*
X30772Y-20157D01*
X30806Y-20177D01*
X30834Y-20196D01*
X30863Y-20217D01*
X30892Y-20240D01*
X30921Y-20263D01*
X30951Y-20286D01*
X30980Y-20310D01*
X31010Y-20333D01*
X31040Y-20357D01*
X31070Y-20382D01*
X31100Y-20406D01*
X31130Y-20431D01*
X31161Y-20456D01*
X31192Y-20481D01*
X31222Y-20506D01*
X31253Y-20531D01*
X31281Y-20554D01*
X31307Y-20579D01*
X31333Y-20604D01*
X31359Y-20630D01*
X31385Y-20656D01*
X31410Y-20684D01*
X31431Y-20711D01*
X31453Y-20738D01*
X31473Y-20766D01*
X31494Y-20795D01*
X31513Y-20825D01*
X31533Y-20856D01*
X31551Y-20888D01*
X31570Y-20921D01*
X31587Y-20954D01*
X31605Y-20988D01*
X31622Y-21023D01*
X31638Y-21059D01*
X31654Y-21096D01*
X31670Y-21134D01*
X31685Y-21173D01*
X31699Y-21212D01*
X31714Y-21252D01*
X31727Y-21294D01*
X31741Y-21336D01*
X31753Y-21378D01*
X31892Y-26427D01*
X31889Y-26458D01*
X31882Y-26482D01*
X31870Y-26505D01*
X31854Y-26531D01*
X31841Y-26552D01*
X31826Y-26573D01*
X31807Y-26594D01*
X31786Y-26615D01*
X31762Y-26637D01*
X31736Y-26660D01*
X31709Y-26683D01*
X31680Y-26707D01*
X31648Y-26732D01*
X31615Y-26757D01*
X31570Y-26788D01*
X31527Y-26814D01*
X31485Y-26836D01*
X31445Y-26853D01*
X31406Y-26867D01*
X31369Y-26876D01*
X31333Y-26880D01*
X31299Y-26880D01*
X31266Y-26876D01*
X31235Y-26867D01*
X31205Y-26854D01*
X31182Y-26840D01*
X31160Y-26823D01*
X31130Y-26799D01*
X31100Y-26775D01*
X31070Y-26751D01*
X31040Y-26727D01*
X31009Y-26703D01*
X30977Y-26678D01*
X30945Y-26653D01*
X30913Y-26628D01*
X30885Y-26606D01*
X30856Y-26584D01*
X30827Y-26561D01*
X30797Y-26539D01*
X30768Y-26516D01*
X30738Y-26493D01*
X30708Y-26470D01*
X30677Y-26447D01*
X30646Y-26424D01*
X30623Y-26404D01*
X30600Y-26383D01*
X30577Y-26358D01*
X30555Y-26331D01*
X30533Y-26300D01*
X30511Y-26268D01*
X30490Y-26232D01*
X30469Y-26194D01*
X30448Y-26153D01*
X30435Y-26125D01*
X30422Y-26097D01*
X30410Y-26068D01*
X30397Y-26037D01*
X30385Y-26005D01*
X30373Y-25973D01*
X30361Y-25939D01*
X30349Y-25904D01*
X30337Y-25868D01*
X30325Y-25831D01*
X30314Y-25792D01*
X30302Y-25753D01*
X30291Y-25713D01*
X30280Y-25671D01*
X30269Y-25629D01*
X30258Y-25585D01*
X30247Y-25540D01*
X30236Y-25495D01*
X30226Y-25448D01*
X30219Y-25416D01*
X30212Y-25383D01*
X30205Y-25350D01*
X30198Y-25316D01*
X30191Y-25282D01*
X30184Y-25247D01*
X30177Y-25212D01*
X30170Y-25172D01*
X30165Y-25132D01*
X30162Y-25092D01*
X30160Y-25052D01*
X30159Y-25013D01*
X30160Y-24973D01*
X30163Y-24934D01*
X30167Y-24894D01*
X30173Y-24855D01*
X30181Y-24816D01*
X30181Y-24812D01*
X30188Y-24780D01*
X30197Y-24748D01*
X30207Y-24717D01*
X30218Y-24685D01*
X30230Y-24653D01*
X30243Y-24621D01*
X30243Y-24618D01*
X30257Y-24587D01*
X30272Y-24555D01*
X30288Y-24524D01*
X30288Y-24521D01*
X30306Y-24489D01*
X30324Y-24458D01*
X30344Y-24427D01*
X30368Y-24391D01*
X30392Y-24357D01*
X30416Y-24324D01*
X30441Y-24292D01*
X30466Y-24262D01*
X30491Y-24233D01*
X30516Y-24205D01*
X30542Y-24178D01*
X30568Y-24153D01*
X30594Y-24129D01*
X30620Y-24107D01*
X30647Y-24086D01*
X30674Y-24066D01*
X30703Y-24045D01*
X30734Y-24026D01*
X30764Y-24009D01*
X30795Y-23993D01*
X30826Y-23978D01*
X30857Y-23966D01*
X30889Y-23955D01*
X30912Y-23951D01*
X30938Y-23951D01*
X30941Y-23951D01*
X30969Y-23957D01*
X31000Y-23969D01*
X31034Y-23985D01*
X31069Y-24007D01*
X31073Y-24007D01*
X31098Y-24024D01*
X31125Y-24044D01*
X31153Y-24066D01*
X31184Y-24092D01*
X31215Y-24118D01*
X31243Y-24145D01*
X31271Y-24172D01*
X31297Y-24199D01*
X31322Y-24227D01*
X31346Y-24256D01*
X31368Y-24285D01*
X31387Y-24311D01*
X31404Y-24338D01*
X31420Y-24365D01*
X31315Y-24463D01*
X31293Y-24437D01*
X31272Y-24414D01*
X31251Y-24394D01*
X31230Y-24378D01*
X31208Y-24365D01*
X31180Y-24349D01*
X31153Y-24337D01*
X31125Y-24326D01*
X31101Y-24319D01*
X31078Y-24315D01*
X31056Y-24313D01*
X31056Y-24313D01*
X31034Y-24313D01*
X31014Y-24316D01*
X30974Y-24328D01*
X30935Y-24340D01*
X30899Y-24354D01*
X30865Y-24369D01*
X30833Y-24385D01*
X30808Y-24399D01*
X30783Y-24412D01*
X30760Y-24427D01*
X30730Y-24452D01*
X30703Y-24478D01*
X30679Y-24507D01*
X30658Y-24537D01*
X30641Y-24568D01*
X30627Y-24602D01*
X30616Y-24637D01*
X30608Y-24674D01*
X30608Y-24677D01*
X30603Y-24714D01*
X30601Y-24753D01*
X30601Y-24792D01*
X30601Y-24831D01*
X30602Y-24870D01*
X30602Y-24908D01*
X30603Y-24947D01*
X30604Y-24986D01*
X30606Y-25026D01*
X30607Y-25065D01*
X30609Y-25104D01*
X30611Y-25143D01*
X30613Y-25183D01*
X30616Y-25222D01*
X30619Y-25262D01*
X30622Y-25301D01*
X30625Y-25341D01*
X30628Y-25380D01*
X30632Y-25420D01*
X30638Y-25479D01*
X30644Y-25537D01*
X30650Y-25592D01*
X30656Y-25645D01*
X30663Y-25696D01*
X30670Y-25745D01*
X30678Y-25793D01*
X30686Y-25838D01*
X30694Y-25881D01*
X30702Y-25922D01*
X30711Y-25961D01*
X30720Y-25999D01*
X30729Y-26034D01*
X30739Y-26067D01*
X30748Y-26098D01*
X30759Y-26127D01*
X30769Y-26155D01*
X30780Y-26180D01*
X30791Y-26203D01*
X30803Y-26224D01*
X30814Y-26243D01*
X30826Y-26260D01*
X30857Y-26298D01*
X30888Y-26331D01*
X30921Y-26360D01*
X30954Y-26385D01*
X30988Y-26405D01*
X31024Y-26421D01*
X31060Y-26433D01*
X31097Y-26441D01*
X31135Y-26444D01*
X31181Y-26445D01*
X31223Y-26441D01*
X31262Y-26434D01*
X31297Y-26423D01*
X31328Y-26409D01*
X31355Y-26390D01*
X31378Y-26368D01*
X31402Y-26339D01*
X31424Y-26309D01*
X31445Y-26277D01*
X31464Y-26244D01*
X31481Y-26209D01*
X31497Y-26174D01*
X31494Y-26135D01*
X31491Y-26097D01*
X31488Y-26059D01*
X31486Y-26021D01*
X31484Y-25982D01*
X31482Y-25944D01*
X31480Y-25905D01*
X31478Y-25866D01*
X31477Y-25827D01*
X31476Y-25788D01*
X31474Y-25749D01*
X31474Y-25710D01*
X31473Y-25671D01*
X31472Y-25632D01*
X31472Y-25593D01*
X31472Y-25553D01*
X31472Y-25514D01*
X31472Y-25474D01*
X31472Y-25434D01*
X31472Y-25394D01*
X31472Y-25354D01*
X31472Y-25315D01*
X31472Y-25275D01*
X31471Y-25236D01*
X31470Y-25196D01*
X31469Y-25157D01*
X31468Y-25117D01*
X31467Y-25078D01*
X31465Y-25039D01*
X31464Y-25000D01*
X31462Y-24961D01*
X31460Y-24922D01*
X31458Y-24883D01*
X31455Y-24845D01*
X31453Y-24806D01*
X31450Y-24768D01*
X31447Y-24729D01*
X31444Y-24691D01*
X31423Y-24645D01*
X31401Y-24602D01*
X31379Y-24562D01*
X31358Y-24526D01*
X31336Y-24493D01*
X31315Y-24463D01*
X31420Y-24365D01*
X31344Y-21243D01*
X31342Y-21205D01*
X31340Y-21167D01*
X31336Y-21130D01*
X31331Y-21094D01*
X31324Y-21059D01*
X31317Y-21025D01*
X31308Y-20991D01*
X31299Y-20958D01*
X31287Y-20927D01*
X31275Y-20896D01*
X31261Y-20866D01*
X31247Y-20837D01*
X31231Y-20809D01*
X31215Y-20781D01*
X31215Y-20778D01*
X31197Y-20751D01*
X31177Y-20726D01*
X31156Y-20701D01*
X31132Y-20677D01*
X31105Y-20652D01*
X31076Y-20628D01*
X31045Y-20606D01*
X31010Y-20583D01*
X30982Y-20566D01*
X30951Y-20549D01*
X30919Y-20532D01*
X30886Y-20516D01*
X30851Y-20500D01*
X30820Y-20488D01*
X30789Y-20475D01*
X30756Y-20464D01*
X30723Y-20452D01*
X30688Y-20441D01*
X30652Y-20430D01*
X30615Y-20419D01*
X30577Y-20409D01*
X30538Y-20399D01*
X30504Y-20404D01*
X30470Y-20410D01*
X30436Y-20415D01*
X30401Y-20421D01*
X30367Y-20428D01*
X30333Y-20434D01*
X30300Y-20441D01*
X30266Y-20448D01*
X30233Y-20456D01*
X30199Y-20463D01*
X30165Y-20471D01*
X30132Y-20479D01*
X30098Y-20487D01*
X30065Y-20494D01*
X30031Y-20500D01*
X29998Y-20505D01*
X29964Y-20510D01*
X29931Y-20514D01*
X29896Y-20517D01*
X29861Y-20519D01*
X29826Y-20521D01*
X29793Y-20522D01*
X29759Y-20521D01*
X29726Y-20521D01*
X29705Y-20517D01*
X29681Y-20507D01*
X29659Y-20491D01*
X29638Y-20469D01*
X29616Y-20441D01*
X29595Y-20406D01*
X29574Y-20364D01*
X29552Y-20316D01*
X29537Y-20277D01*
X29527Y-20241D01*
X29521Y-20209D01*
X29521Y-20181D01*
X29524Y-20156D01*
X29535Y-20131D01*
X29552Y-20111D01*
X29578Y-20096D01*
X29611Y-20087D01*
X29646Y-20082D01*
X29681Y-20078D01*
X29717Y-20074D01*
X29754Y-20071D01*
X29792Y-20070D01*
X29830Y-20069D01*
X29830Y-20069D01*
G37*
G36*
X24111Y-20219D02*
X24111Y-20219D01*
X24157Y-20219D01*
X24201Y-20221D01*
X24243Y-20224D01*
X24285Y-20229D01*
X24325Y-20235D01*
X24363Y-20242D01*
X24400Y-20251D01*
X24436Y-20261D01*
X24471Y-20272D01*
X24503Y-20285D01*
X24543Y-20301D01*
X24581Y-20318D01*
X24618Y-20334D01*
X24653Y-20350D01*
X24687Y-20365D01*
X24720Y-20380D01*
X24751Y-20395D01*
X24781Y-20410D01*
X24819Y-20429D01*
X24853Y-20447D01*
X24885Y-20465D01*
X24917Y-20482D01*
X24946Y-20498D01*
X24972Y-20514D01*
X25005Y-20535D01*
X25037Y-20558D01*
X25068Y-20582D01*
X25098Y-20606D01*
X25128Y-20631D01*
X25157Y-20658D01*
X25185Y-20685D01*
X25212Y-20713D01*
X25239Y-20742D01*
X25265Y-20772D01*
X25291Y-20803D01*
X25315Y-20835D01*
X25339Y-20868D01*
X25363Y-20901D01*
X25385Y-20936D01*
X25407Y-20971D01*
X25428Y-21008D01*
X25449Y-21045D01*
X25469Y-21083D01*
X25485Y-21117D01*
X25501Y-21151D01*
X25517Y-21186D01*
X25531Y-21220D01*
X25546Y-21256D01*
X25560Y-21292D01*
X25573Y-21328D01*
X25586Y-21364D01*
X25598Y-21401D01*
X25610Y-21438D01*
X25622Y-21476D01*
X25632Y-21510D01*
X25641Y-21545D01*
X25651Y-21581D01*
X25660Y-21616D01*
X25668Y-21652D01*
X25676Y-21689D01*
X25684Y-21725D01*
X25691Y-21762D01*
X25698Y-21799D01*
X25704Y-21837D01*
X25710Y-21875D01*
X25715Y-21913D01*
X25720Y-21952D01*
X25725Y-21991D01*
X25730Y-22030D01*
X25735Y-22068D01*
X25739Y-22107D01*
X25743Y-22146D01*
X25747Y-22185D01*
X25751Y-22224D01*
X25754Y-22262D01*
X25758Y-22301D01*
X25761Y-22340D01*
X25764Y-22379D01*
X25767Y-22418D01*
X25769Y-22456D01*
X25772Y-22495D01*
X25774Y-22534D01*
X25776Y-22573D01*
X25778Y-22612D01*
X25779Y-22650D01*
X25781Y-22689D01*
X25782Y-22728D01*
X25783Y-22767D01*
X25784Y-22806D01*
X25785Y-22844D01*
X25785Y-22883D01*
X25785Y-22922D01*
X25785Y-22961D01*
X25785Y-22999D01*
X25785Y-23038D01*
X25784Y-23077D01*
X25784Y-23115D01*
X25783Y-23154D01*
X25783Y-23193D01*
X25783Y-23231D01*
X25783Y-23270D01*
X25783Y-23309D01*
X25783Y-23347D01*
X25783Y-23386D01*
X25783Y-23425D01*
X25784Y-23463D01*
X25784Y-23502D01*
X25784Y-23541D01*
X25785Y-23579D01*
X25786Y-23618D01*
X25786Y-23657D01*
X25787Y-23696D01*
X25788Y-23735D01*
X25789Y-23773D01*
X25791Y-23812D01*
X25792Y-23851D01*
X25793Y-23890D01*
X25795Y-23929D01*
X25796Y-23968D01*
X25798Y-24007D01*
X25800Y-24046D01*
X25802Y-24085D01*
X25803Y-24124D01*
X25806Y-24163D01*
X25839Y-24164D01*
X25872Y-24165D01*
X25905Y-24167D01*
X25937Y-24170D01*
X25969Y-24174D01*
X25972Y-24174D01*
X26011Y-24179D01*
X26048Y-24185D01*
X26085Y-24193D01*
X26122Y-24201D01*
X26125Y-24201D01*
X26164Y-24213D01*
X26203Y-24225D01*
X26240Y-24239D01*
X26277Y-24255D01*
X26313Y-24272D01*
X26348Y-24290D01*
X26382Y-24310D01*
X26415Y-24331D01*
X26448Y-24354D01*
X26479Y-24378D01*
X26510Y-24404D01*
X26540Y-24431D01*
X26569Y-24459D01*
X26597Y-24489D01*
X26624Y-24520D01*
X26650Y-24553D01*
X26675Y-24587D01*
X26699Y-24622D01*
X26723Y-24659D01*
X26746Y-24697D01*
X26767Y-24737D01*
X26788Y-24778D01*
X26811Y-24825D01*
X26833Y-24871D01*
X26854Y-24916D01*
X26874Y-24961D01*
X26894Y-25005D01*
X26912Y-25048D01*
X26930Y-25090D01*
X26947Y-25131D01*
X26964Y-25172D01*
X26979Y-25212D01*
X26994Y-25251D01*
X27008Y-25290D01*
X27021Y-25327D01*
X27033Y-25364D01*
X27045Y-25400D01*
X27056Y-25435D01*
X27065Y-25470D01*
X27075Y-25504D01*
X27083Y-25537D01*
X27090Y-25569D01*
X27097Y-25600D01*
X27103Y-25631D01*
X27108Y-25661D01*
X27112Y-25690D01*
X27115Y-25719D01*
X27118Y-25746D01*
X27121Y-25786D01*
X27124Y-25825D01*
X27126Y-25864D01*
X27128Y-25903D01*
X27130Y-25942D01*
X27131Y-25982D01*
X27132Y-26021D01*
X27132Y-26061D01*
X27131Y-26101D01*
X27131Y-26140D01*
X27130Y-26180D01*
X27128Y-26220D01*
X27126Y-26260D01*
X27124Y-26300D01*
X27121Y-26340D01*
X27117Y-26381D01*
X27113Y-26421D01*
X27109Y-26461D01*
X27105Y-26502D01*
X27099Y-26543D01*
X27094Y-26583D01*
X27087Y-26628D01*
X27078Y-26670D01*
X27067Y-26710D01*
X27056Y-26747D01*
X27042Y-26782D01*
X27027Y-26814D01*
X27010Y-26844D01*
X26989Y-26873D01*
X26965Y-26899D01*
X26940Y-26924D01*
X26912Y-26946D01*
X26882Y-26963D01*
X26850Y-26978D01*
X26816Y-26989D01*
X26780Y-26996D01*
X26742Y-27000D01*
X26701Y-27000D01*
X26659Y-26997D01*
X26618Y-26993D01*
X26578Y-26987D01*
X26539Y-26980D01*
X26501Y-26970D01*
X26464Y-26959D01*
X26428Y-26947D01*
X26393Y-26932D01*
X26359Y-26917D01*
X26326Y-26899D01*
X26323Y-26899D01*
X26296Y-26884D01*
X26271Y-26867D01*
X26246Y-26849D01*
X26222Y-26830D01*
X26191Y-26803D01*
X26160Y-26777D01*
X26130Y-26750D01*
X26100Y-26724D01*
X26071Y-26697D01*
X26042Y-26671D01*
X26013Y-26644D01*
X25985Y-26617D01*
X25958Y-26591D01*
X25931Y-26564D01*
X25905Y-26537D01*
X25878Y-26510D01*
X25953Y-26439D01*
X25981Y-26462D01*
X26010Y-26484D01*
X26039Y-26505D01*
X26068Y-26525D01*
X26096Y-26544D01*
X26125Y-26562D01*
X26160Y-26583D01*
X26194Y-26601D01*
X26198Y-26601D01*
X26233Y-26615D01*
X26268Y-26627D01*
X26302Y-26636D01*
X26337Y-26642D01*
X26372Y-26645D01*
X26406Y-26646D01*
X26439Y-26642D01*
X26470Y-26633D01*
X26499Y-26619D01*
X26525Y-26599D01*
X26550Y-26574D01*
X26573Y-26544D01*
X26594Y-26508D01*
X26612Y-26467D01*
X26629Y-26421D01*
X26644Y-26369D01*
X26656Y-26312D01*
X26656Y-26309D01*
X26662Y-26278D01*
X26667Y-26245D01*
X26671Y-26211D01*
X26676Y-26176D01*
X26679Y-26139D01*
X26682Y-26101D01*
X26684Y-26062D01*
X26686Y-26021D01*
X26688Y-25979D01*
X26688Y-25935D01*
X26689Y-25890D01*
X26688Y-25843D01*
X26688Y-25795D01*
X26687Y-25753D01*
X26685Y-25712D01*
X26684Y-25672D01*
X26681Y-25632D01*
X26679Y-25592D01*
X26676Y-25554D01*
X26672Y-25516D01*
X26669Y-25478D01*
X26664Y-25441D01*
X26660Y-25404D01*
X26655Y-25369D01*
X26649Y-25333D01*
X26642Y-25292D01*
X26634Y-25251D01*
X26626Y-25211D01*
X26617Y-25172D01*
X26608Y-25134D01*
X26598Y-25096D01*
X26587Y-25059D01*
X26576Y-25024D01*
X26564Y-24989D01*
X26552Y-24955D01*
X26537Y-24917D01*
X26519Y-24880D01*
X26501Y-24845D01*
X26480Y-24811D01*
X26459Y-24779D01*
X26435Y-24749D01*
X26410Y-24720D01*
X26383Y-24693D01*
X26355Y-24667D01*
X26325Y-24643D01*
X26294Y-24620D01*
X26261Y-24599D01*
X26226Y-24580D01*
X26195Y-24564D01*
X26163Y-24550D01*
X26129Y-24537D01*
X26095Y-24525D01*
X26059Y-24514D01*
X26031Y-24508D01*
X26005Y-24505D01*
X25979Y-24503D01*
X25944Y-24503D01*
X25944Y-24503D01*
X25910Y-24510D01*
X25903Y-24514D01*
X25878Y-24524D01*
X25848Y-24543D01*
X25820Y-24567D01*
X25795Y-24597D01*
X25816Y-25469D01*
X25817Y-25508D01*
X25818Y-25548D01*
X25819Y-25588D01*
X25820Y-25627D01*
X25821Y-25667D01*
X25822Y-25707D01*
X25823Y-25746D01*
X25824Y-25786D01*
X25825Y-25825D01*
X25825Y-25865D01*
X25826Y-25905D01*
X25827Y-25944D01*
X25828Y-25984D01*
X25829Y-26024D01*
X25830Y-26063D01*
X25831Y-26103D01*
X25832Y-26142D01*
X25833Y-26182D01*
X25834Y-26221D01*
X25835Y-26261D01*
X25836Y-26301D01*
X25837Y-26340D01*
X25866Y-26366D01*
X25895Y-26391D01*
X25924Y-26416D01*
X25953Y-26439D01*
X25878Y-26510D01*
X25885Y-26556D01*
X25890Y-26599D01*
X25894Y-26641D01*
X25896Y-26680D01*
X25897Y-26717D01*
X25896Y-26752D01*
X25895Y-26785D01*
X25892Y-26816D01*
X25887Y-26845D01*
X25882Y-26871D01*
X25870Y-26911D01*
X25854Y-26944D01*
X25832Y-26976D01*
X25804Y-27000D01*
X25772Y-27017D01*
X25735Y-27026D01*
X25693Y-27027D01*
X25646Y-27021D01*
X25594Y-27007D01*
X25568Y-26999D01*
X25542Y-26990D01*
X25517Y-26979D01*
X25484Y-26961D01*
X25451Y-26941D01*
X25419Y-26918D01*
X25389Y-26892D01*
X25361Y-26864D01*
X25333Y-26833D01*
X25313Y-26808D01*
X25293Y-26781D01*
X25274Y-26753D01*
X25256Y-26723D01*
X25240Y-26691D01*
X25224Y-26657D01*
X25209Y-26622D01*
X25195Y-26585D01*
X25182Y-26547D01*
X25170Y-26507D01*
X25210Y-26534D01*
X25246Y-26558D01*
X25279Y-26579D01*
X25309Y-26596D01*
X25335Y-26610D01*
X25358Y-26621D01*
X25386Y-26632D01*
X25406Y-26635D01*
X25410Y-26632D01*
X25417Y-26632D01*
X25420Y-26628D01*
X25424Y-26618D01*
X25424Y-26603D01*
X25425Y-26584D01*
X25425Y-26559D01*
X25425Y-26528D01*
X25425Y-26493D01*
X25425Y-26452D01*
X25424Y-26406D01*
X25423Y-26355D01*
X25422Y-26298D01*
X25420Y-26236D01*
X25419Y-26167D01*
X25417Y-26098D01*
X25416Y-26029D01*
X25414Y-25960D01*
X25413Y-25892D01*
X25412Y-25823D01*
X25410Y-25754D01*
X25409Y-25685D01*
X25408Y-25616D01*
X25406Y-25547D01*
X25405Y-25479D01*
X25404Y-25410D01*
X25403Y-25341D01*
X25401Y-25272D01*
X25400Y-25204D01*
X25399Y-25135D01*
X25398Y-25066D01*
X25397Y-24998D01*
X25395Y-24929D01*
X25394Y-24861D01*
X25393Y-24792D01*
X25392Y-24723D01*
X25391Y-24655D01*
X25390Y-24586D01*
X25389Y-24518D01*
X25388Y-24449D01*
X25387Y-24381D01*
X25386Y-24312D01*
X25385Y-24244D01*
X25384Y-24175D01*
X25383Y-24107D01*
X25382Y-24038D01*
X25381Y-23970D01*
X25380Y-23901D01*
X25379Y-23833D01*
X25378Y-23764D01*
X25376Y-23696D01*
X25375Y-23627D01*
X25373Y-23559D01*
X25371Y-23490D01*
X25370Y-23422D01*
X25368Y-23353D01*
X25366Y-23285D01*
X25364Y-23216D01*
X25362Y-23148D01*
X25359Y-23079D01*
X25357Y-23011D01*
X25354Y-22942D01*
X25352Y-22874D01*
X25349Y-22805D01*
X25346Y-22737D01*
X25344Y-22668D01*
X25341Y-22600D01*
X25338Y-22531D01*
X25334Y-22463D01*
X25331Y-22395D01*
X25328Y-22326D01*
X25325Y-22258D01*
X25321Y-22189D01*
X25317Y-22121D01*
X25314Y-22052D01*
X25310Y-21984D01*
X25306Y-21916D01*
X25302Y-21847D01*
X25300Y-21811D01*
X25297Y-21776D01*
X25295Y-21740D01*
X25292Y-21705D01*
X25288Y-21670D01*
X25285Y-21635D01*
X25280Y-21601D01*
X25276Y-21566D01*
X25271Y-21532D01*
X25265Y-21498D01*
X25259Y-21464D01*
X25253Y-21431D01*
X25247Y-21397D01*
X25241Y-21364D01*
X25234Y-21331D01*
X25227Y-21298D01*
X25219Y-21265D01*
X25212Y-21233D01*
X25212Y-21229D01*
X25202Y-21190D01*
X25192Y-21152D01*
X25182Y-21114D01*
X25171Y-21076D01*
X25160Y-21038D01*
X25147Y-21002D01*
X25133Y-20967D01*
X25117Y-20933D01*
X25099Y-20902D01*
X25080Y-20872D01*
X25080Y-20868D01*
X25059Y-20839D01*
X25036Y-20812D01*
X25011Y-20786D01*
X24984Y-20762D01*
X24956Y-20740D01*
X24926Y-20719D01*
X24895Y-20700D01*
X24861Y-20682D01*
X24826Y-20666D01*
X24790Y-20652D01*
X24751Y-20639D01*
X24711Y-20628D01*
X24669Y-20618D01*
X24625Y-20610D01*
X24580Y-20604D01*
X24544Y-20601D01*
X24508Y-20599D01*
X24472Y-20597D01*
X24437Y-20597D01*
X24402Y-20597D01*
X24367Y-20599D01*
X24333Y-20601D01*
X24294Y-20604D01*
X24254Y-20609D01*
X24215Y-20615D01*
X24178Y-20622D01*
X24141Y-20630D01*
X24104Y-20639D01*
X24070Y-20648D01*
X24035Y-20657D01*
X24000Y-20665D01*
X23964Y-20672D01*
X23927Y-20679D01*
X23891Y-20685D01*
X23853Y-20690D01*
X23816Y-20695D01*
X23778Y-20699D01*
X23739Y-20702D01*
X23700Y-20705D01*
X23661Y-20707D01*
X23622Y-20708D01*
X23603Y-20703D01*
X23586Y-20687D01*
X23571Y-20660D01*
X23558Y-20622D01*
X23547Y-20572D01*
X23538Y-20510D01*
X23533Y-20448D01*
X23532Y-20395D01*
X23536Y-20353D01*
X23546Y-20321D01*
X23560Y-20299D01*
X23580Y-20288D01*
X23622Y-20279D01*
X23664Y-20270D01*
X23705Y-20262D01*
X23746Y-20254D01*
X23786Y-20248D01*
X23825Y-20242D01*
X23863Y-20236D01*
X23901Y-20232D01*
X23937Y-20228D01*
X23974Y-20225D01*
X24009Y-20222D01*
X24044Y-20220D01*
X24078Y-20219D01*
X24111Y-20219D01*
X24111Y-20219D01*
G37*
G36*
X30965Y-20819D02*
X26351Y-21455D01*
X26003Y-23410D01*
X26004Y-23447D01*
X26005Y-23485D01*
X26005Y-23523D01*
X26006Y-23560D01*
X26007Y-23598D01*
X26007Y-23636D01*
X26008Y-23674D01*
X26009Y-23711D01*
X26010Y-23749D01*
X26011Y-23787D01*
X26012Y-23825D01*
X26013Y-23862D01*
X26014Y-23900D01*
X26016Y-23938D01*
X26017Y-23976D01*
X26047Y-23981D01*
X26075Y-23987D01*
X26104Y-23993D01*
X26524Y-21649D01*
X30740Y-21066D01*
X30707Y-21174D01*
X30673Y-21282D01*
X30638Y-21389D01*
X30600Y-21495D01*
X30561Y-21600D01*
X30521Y-21705D01*
X30478Y-21808D01*
X30434Y-21912D01*
X30389Y-22014D01*
X30342Y-22115D01*
X30293Y-22216D01*
X30242Y-22315D01*
X30190Y-22414D01*
X30137Y-22512D01*
X30082Y-22609D01*
X30025Y-22705D01*
X29967Y-22801D01*
X29908Y-22895D01*
X29847Y-22988D01*
X29784Y-23080D01*
X29720Y-23171D01*
X29655Y-23261D01*
X29588Y-23350D01*
X29520Y-23438D01*
X29450Y-23525D01*
X29379Y-23611D01*
X29306Y-23695D01*
X29232Y-23779D01*
X29157Y-23861D01*
X29081Y-23942D01*
X29003Y-24022D01*
X28924Y-24101D01*
X28952Y-24122D01*
X28980Y-24144D01*
X29007Y-24166D01*
X29034Y-24189D01*
X29060Y-24212D01*
X29087Y-24236D01*
X29174Y-24150D01*
X29259Y-24062D01*
X29342Y-23973D01*
X29424Y-23882D01*
X29505Y-23790D01*
X29584Y-23697D01*
X29661Y-23602D01*
X29736Y-23506D01*
X29810Y-23409D01*
X29882Y-23310D01*
X29953Y-23210D01*
X30022Y-23109D01*
X30089Y-23007D01*
X30154Y-22904D01*
X30218Y-22799D01*
X30280Y-22694D01*
X30340Y-22587D01*
X30398Y-22479D01*
X30454Y-22370D01*
X30509Y-22261D01*
X30561Y-22150D01*
X30612Y-22038D01*
X30661Y-21925D01*
X30708Y-21812D01*
X30753Y-21697D01*
X30796Y-21582D01*
X30838Y-21465D01*
X30877Y-21348D01*
X30914Y-21230D01*
X30949Y-21111D01*
X30983Y-20992D01*
X31014Y-20872D01*
X31007Y-20858D01*
X30989Y-20839D01*
X30965Y-20819D01*
X30965Y-20819D01*
X30965Y-20819D01*
G37*
G36*
X25066Y-21635D02*
X23316Y-21875D01*
X24330Y-23962D01*
X24356Y-23977D01*
X24381Y-23993D01*
X24406Y-24010D01*
X24436Y-24031D01*
X24465Y-24054D01*
X24494Y-24079D01*
X24525Y-24105D01*
X24555Y-24133D01*
X24587Y-24163D01*
X24611Y-24188D01*
X24635Y-24212D01*
X24658Y-24236D01*
X24680Y-24260D01*
X24701Y-24285D01*
X23618Y-22052D01*
X25087Y-21851D01*
X25084Y-21814D01*
X25081Y-21778D01*
X25078Y-21742D01*
X25074Y-21706D01*
X25070Y-21671D01*
X25066Y-21635D01*
X25066Y-21635D01*
X25066Y-21635D01*
G37*
G36*
X22497Y-21990D02*
X17872Y-22625D01*
X17905Y-22684D01*
X17939Y-22742D01*
X17973Y-22800D01*
X18008Y-22858D01*
X18043Y-22915D01*
X18079Y-22972D01*
X18116Y-23028D01*
X18153Y-23084D01*
X18190Y-23140D01*
X18229Y-23195D01*
X18267Y-23250D01*
X18306Y-23305D01*
X18346Y-23359D01*
X18386Y-23412D01*
X18426Y-23465D01*
X18467Y-23518D01*
X18508Y-23571D01*
X18550Y-23623D01*
X18593Y-23674D01*
X18636Y-23725D01*
X18679Y-23776D01*
X18723Y-23826D01*
X18767Y-23876D01*
X18811Y-23926D01*
X18857Y-23975D01*
X18902Y-24023D01*
X18948Y-24071D01*
X18994Y-24119D01*
X19041Y-24166D01*
X19088Y-24213D01*
X19136Y-24260D01*
X19184Y-24306D01*
X19197Y-24271D01*
X19213Y-24237D01*
X19232Y-24205D01*
X19255Y-24174D01*
X19281Y-24146D01*
X19242Y-24108D01*
X19204Y-24071D01*
X19166Y-24033D01*
X19128Y-23994D01*
X19090Y-23956D01*
X19053Y-23917D01*
X19016Y-23877D01*
X18979Y-23838D01*
X18943Y-23798D01*
X18906Y-23758D01*
X18870Y-23717D01*
X18835Y-23676D01*
X18800Y-23635D01*
X18765Y-23594D01*
X18730Y-23552D01*
X18696Y-23510D01*
X18662Y-23468D01*
X18628Y-23426D01*
X18595Y-23383D01*
X18562Y-23340D01*
X18529Y-23296D01*
X18497Y-23253D01*
X18464Y-23209D01*
X18433Y-23165D01*
X18401Y-23120D01*
X18370Y-23076D01*
X18340Y-23031D01*
X18309Y-22985D01*
X18279Y-22940D01*
X18249Y-22894D01*
X18220Y-22848D01*
X18191Y-22802D01*
X22347Y-22226D01*
X23181Y-23948D01*
X23420Y-23941D01*
X23441Y-23941D01*
X22497Y-21990D01*
X22497Y-21990D01*
G37*
G36*
X25122Y-22559D02*
X24792Y-24399D01*
X24812Y-24428D01*
X24832Y-24457D01*
X24851Y-24486D01*
X24869Y-24516D01*
X24885Y-24545D01*
X24901Y-24584D01*
X24907Y-24624D01*
X24906Y-24665D01*
X24897Y-24706D01*
X24881Y-24744D01*
X24859Y-24779D01*
X24831Y-24810D01*
X24798Y-24834D01*
X24760Y-24851D01*
X24896Y-25132D01*
X25160Y-23653D01*
X25159Y-23614D01*
X25158Y-23575D01*
X25157Y-23536D01*
X25156Y-23497D01*
X25155Y-23457D01*
X25154Y-23418D01*
X25153Y-23379D01*
X25152Y-23340D01*
X25150Y-23301D01*
X25149Y-23262D01*
X25148Y-23223D01*
X25147Y-23184D01*
X25145Y-23145D01*
X25144Y-23106D01*
X25142Y-23067D01*
X25141Y-23028D01*
X25139Y-22989D01*
X25138Y-22950D01*
X25136Y-22911D01*
X25135Y-22872D01*
X25133Y-22832D01*
X25132Y-22793D01*
X25130Y-22754D01*
X25128Y-22715D01*
X25127Y-22676D01*
X25125Y-22637D01*
X25123Y-22598D01*
X25122Y-22559D01*
X25122Y-22559D01*
X25122Y-22559D01*
G37*
G36*
X31163Y-22698D02*
X31125Y-22773D01*
X31086Y-22848D01*
X31046Y-22922D01*
X31005Y-22996D01*
X30964Y-23070D01*
X30922Y-23143D01*
X30879Y-23215D01*
X30835Y-23287D01*
X30791Y-23359D01*
X30745Y-23430D01*
X30700Y-23500D01*
X30653Y-23570D01*
X30606Y-23640D01*
X30558Y-23709D01*
X30509Y-23778D01*
X30459Y-23846D01*
X30409Y-23913D01*
X30358Y-23980D01*
X30307Y-24046D01*
X30254Y-24112D01*
X30201Y-24178D01*
X30148Y-24242D01*
X30093Y-24307D01*
X30038Y-24370D01*
X29982Y-24433D01*
X29926Y-24496D01*
X29869Y-24558D01*
X29811Y-24619D01*
X29752Y-24679D01*
X29693Y-24739D01*
X29633Y-24799D01*
X29573Y-24858D01*
X29591Y-24891D01*
X29608Y-24925D01*
X29624Y-24959D01*
X29640Y-24993D01*
X29656Y-25028D01*
X29670Y-25063D01*
X29699Y-25036D01*
X29727Y-25009D01*
X29755Y-24981D01*
X29783Y-24954D01*
X29811Y-24927D01*
X29839Y-24900D01*
X29867Y-24872D01*
X29894Y-24845D01*
X29921Y-24817D01*
X29949Y-24789D01*
X29976Y-24760D01*
X29984Y-24725D01*
X29993Y-24690D01*
X30004Y-24654D01*
X30015Y-24619D01*
X30027Y-24584D01*
X30041Y-24550D01*
X30055Y-24515D01*
X30070Y-24481D01*
X30087Y-24446D01*
X30104Y-24413D01*
X30123Y-24379D01*
X30143Y-24346D01*
X30163Y-24313D01*
X30163Y-24309D01*
X30188Y-24272D01*
X30213Y-24235D01*
X30239Y-24200D01*
X30266Y-24165D01*
X30292Y-24132D01*
X30320Y-24100D01*
X30348Y-24069D01*
X30376Y-24040D01*
X30404Y-24011D01*
X30434Y-23984D01*
X30463Y-23957D01*
X30493Y-23932D01*
X30524Y-23908D01*
X30555Y-23886D01*
X30586Y-23865D01*
X30618Y-23845D01*
X30651Y-23826D01*
X30684Y-23808D01*
X30717Y-23792D01*
X30751Y-23777D01*
X30785Y-23764D01*
X30807Y-23732D01*
X30828Y-23700D01*
X30850Y-23668D01*
X30871Y-23636D01*
X30892Y-23604D01*
X30913Y-23572D01*
X30934Y-23539D01*
X30955Y-23507D01*
X30976Y-23474D01*
X30996Y-23441D01*
X31017Y-23408D01*
X31037Y-23375D01*
X31057Y-23342D01*
X31077Y-23309D01*
X31096Y-23276D01*
X31116Y-23243D01*
X31135Y-23209D01*
X31155Y-23176D01*
X31174Y-23142D01*
X31163Y-22698D01*
X31163Y-22698D01*
G37*
G36*
X21559Y-22990D02*
X21535Y-22993D01*
X21517Y-23003D01*
X21503Y-23021D01*
X21495Y-23044D01*
X21497Y-23073D01*
X21503Y-23099D01*
X21515Y-23128D01*
X21532Y-23160D01*
X21555Y-23195D01*
X21584Y-23233D01*
X21618Y-23274D01*
X21654Y-23313D01*
X21687Y-23346D01*
X21718Y-23373D01*
X21747Y-23395D01*
X21774Y-23410D01*
X21799Y-23420D01*
X21826Y-23427D01*
X21850Y-23423D01*
X21872Y-23410D01*
X21885Y-23392D01*
X21894Y-23369D01*
X21894Y-23341D01*
X21885Y-23309D01*
X21875Y-23285D01*
X21861Y-23260D01*
X21844Y-23233D01*
X21823Y-23204D01*
X21799Y-23174D01*
X21771Y-23142D01*
X21748Y-23117D01*
X21726Y-23094D01*
X21705Y-23073D01*
X21671Y-23043D01*
X21639Y-23020D01*
X21610Y-23003D01*
X21583Y-22993D01*
X21559Y-22990D01*
X21559Y-22990D01*
X21559Y-22990D01*
G37*
G36*
X28045Y-24038D02*
X28045Y-24038D01*
X28079Y-24039D01*
X28112Y-24040D01*
X28145Y-24043D01*
X28177Y-24046D01*
X28208Y-24049D01*
X28233Y-24049D01*
X28257Y-24052D01*
X28288Y-24057D01*
X28319Y-24062D01*
X28354Y-24069D01*
X28377Y-24074D01*
X28399Y-24080D01*
X28424Y-24087D01*
X28448Y-24094D01*
X28483Y-24104D01*
X28518Y-24116D01*
X28552Y-24128D01*
X28582Y-24142D01*
X28611Y-24156D01*
X28636Y-24169D01*
X28660Y-24183D01*
X28684Y-24198D01*
X28712Y-24216D01*
X28739Y-24234D01*
X28766Y-24253D01*
X28793Y-24272D01*
X28819Y-24292D01*
X28823Y-24292D01*
X28849Y-24312D01*
X28874Y-24333D01*
X28899Y-24355D01*
X28923Y-24377D01*
X28948Y-24399D01*
X28951Y-24399D01*
X28979Y-24424D01*
X29005Y-24450D01*
X29032Y-24476D01*
X29057Y-24503D01*
X29083Y-24530D01*
X29108Y-24558D01*
X29133Y-24587D01*
X29157Y-24616D01*
X29181Y-24646D01*
X29205Y-24678D01*
X29230Y-24711D01*
X29253Y-24743D01*
X29276Y-24776D01*
X29298Y-24810D01*
X29319Y-24843D01*
X29340Y-24877D01*
X29359Y-24910D01*
X29378Y-24944D01*
X29397Y-24978D01*
X29414Y-25013D01*
X29431Y-25047D01*
X29447Y-25082D01*
X29463Y-25117D01*
X29477Y-25152D01*
X29491Y-25188D01*
X29504Y-25223D01*
X29516Y-25259D01*
X29528Y-25295D01*
X29538Y-25331D01*
X29549Y-25368D01*
X29558Y-25405D01*
X29568Y-25442D01*
X29576Y-25480D01*
X29585Y-25518D01*
X29592Y-25556D01*
X29600Y-25595D01*
X29607Y-25634D01*
X29613Y-25673D01*
X29619Y-25713D01*
X29624Y-25753D01*
X29629Y-25793D01*
X29634Y-25834D01*
X29638Y-25875D01*
X29642Y-25916D01*
X29645Y-25958D01*
X29647Y-25999D01*
X29649Y-26042D01*
X29651Y-26079D01*
X29651Y-26114D01*
X29652Y-26149D01*
X29651Y-26184D01*
X29650Y-26217D01*
X29649Y-26250D01*
X29646Y-26314D01*
X29640Y-26375D01*
X29632Y-26432D01*
X29623Y-26486D01*
X29611Y-26538D01*
X29597Y-26585D01*
X29582Y-26630D01*
X29564Y-26672D01*
X29544Y-26710D01*
X29522Y-26745D01*
X29498Y-26777D01*
X29473Y-26805D01*
X29445Y-26831D01*
X29415Y-26853D01*
X29383Y-26872D01*
X29349Y-26888D01*
X29313Y-26901D01*
X29275Y-26911D01*
X29235Y-26917D01*
X29193Y-26920D01*
X29149Y-26920D01*
X29118Y-26919D01*
X29087Y-26917D01*
X29057Y-26914D01*
X29028Y-26910D01*
X29024Y-26910D01*
X28987Y-26902D01*
X28951Y-26893D01*
X28917Y-26882D01*
X28913Y-26882D01*
X28885Y-26868D01*
X28852Y-26854D01*
X28819Y-26838D01*
X28787Y-26821D01*
X28757Y-26802D01*
X28729Y-26781D01*
X28700Y-26757D01*
X28671Y-26733D01*
X28643Y-26708D01*
X28616Y-26683D01*
X28589Y-26658D01*
X28563Y-26632D01*
X28537Y-26606D01*
X28512Y-26579D01*
X28488Y-26552D01*
X28464Y-26524D01*
X28441Y-26497D01*
X28518Y-26405D01*
X28546Y-26432D01*
X28578Y-26460D01*
X28615Y-26490D01*
X28653Y-26518D01*
X28691Y-26543D01*
X28728Y-26563D01*
X28765Y-26580D01*
X28801Y-26592D01*
X28837Y-26601D01*
X28872Y-26605D01*
X28907Y-26605D01*
X28941Y-26601D01*
X28986Y-26590D01*
X29025Y-26575D01*
X29059Y-26557D01*
X29088Y-26536D01*
X29111Y-26511D01*
X29128Y-26483D01*
X29137Y-26463D01*
X29144Y-26439D01*
X29150Y-26411D01*
X29155Y-26379D01*
X29160Y-26343D01*
X29163Y-26303D01*
X29166Y-26259D01*
X29168Y-26212D01*
X29169Y-26160D01*
X29170Y-26104D01*
X29171Y-26070D01*
X29171Y-26035D01*
X29172Y-26000D01*
X29172Y-25966D01*
X29171Y-25931D01*
X29171Y-25896D01*
X29170Y-25861D01*
X29170Y-25858D01*
X29169Y-25822D01*
X29167Y-25787D01*
X29166Y-25752D01*
X29164Y-25717D01*
X29161Y-25682D01*
X29159Y-25647D01*
X29156Y-25611D01*
X29153Y-25572D01*
X29150Y-25534D01*
X29146Y-25495D01*
X29143Y-25457D01*
X29140Y-25419D01*
X29136Y-25380D01*
X29133Y-25342D01*
X29129Y-25304D01*
X29126Y-25266D01*
X29122Y-25228D01*
X29118Y-25190D01*
X29115Y-25152D01*
X29111Y-25115D01*
X29106Y-25071D01*
X29100Y-25030D01*
X29091Y-24989D01*
X29080Y-24951D01*
X29067Y-24914D01*
X29052Y-24878D01*
X29035Y-24844D01*
X29015Y-24811D01*
X28994Y-24780D01*
X28970Y-24751D01*
X28944Y-24722D01*
X28919Y-24697D01*
X28893Y-24674D01*
X28867Y-24653D01*
X28840Y-24634D01*
X28812Y-24616D01*
X28785Y-24601D01*
X28757Y-24587D01*
X28730Y-24576D01*
X28701Y-24566D01*
X28673Y-24558D01*
X28644Y-24553D01*
X28615Y-24549D01*
X28579Y-24545D01*
X28546Y-24542D01*
X28514Y-24542D01*
X28514Y-24542D01*
X28483Y-24543D01*
X28454Y-24547D01*
X28427Y-24552D01*
X28389Y-24562D01*
X28354Y-24576D01*
X28325Y-24592D01*
X28299Y-24611D01*
X28301Y-24650D01*
X28303Y-24690D01*
X28305Y-24729D01*
X28308Y-24768D01*
X28310Y-24808D01*
X28311Y-24847D01*
X28313Y-24886D01*
X28315Y-24926D01*
X28317Y-24966D01*
X28318Y-25005D01*
X28319Y-25045D01*
X28321Y-25084D01*
X28322Y-25124D01*
X28323Y-25164D01*
X28324Y-25203D01*
X28326Y-25243D01*
X28327Y-25283D01*
X28327Y-25322D01*
X28328Y-25362D01*
X28329Y-25401D01*
X28330Y-25441D01*
X28330Y-25475D01*
X28331Y-25510D01*
X28332Y-25544D01*
X28333Y-25578D01*
X28335Y-25612D01*
X28337Y-25646D01*
X28337Y-25649D01*
X28339Y-25683D01*
X28342Y-25717D01*
X28344Y-25750D01*
X28347Y-25784D01*
X28351Y-25817D01*
X28354Y-25851D01*
X28358Y-25888D01*
X28363Y-25925D01*
X28368Y-25962D01*
X28374Y-25999D01*
X28379Y-26036D01*
X28385Y-26073D01*
X28392Y-26110D01*
X28398Y-26147D01*
X28405Y-26183D01*
X28413Y-26220D01*
X28420Y-26257D01*
X28428Y-26281D01*
X28441Y-26306D01*
X28455Y-26329D01*
X28472Y-26353D01*
X28493Y-26379D01*
X28518Y-26405D01*
X28441Y-26497D01*
X28445Y-26544D01*
X28447Y-26589D01*
X28446Y-26632D01*
X28443Y-26673D01*
X28438Y-26713D01*
X28430Y-26750D01*
X28420Y-26785D01*
X28407Y-26819D01*
X28392Y-26851D01*
X28373Y-26883D01*
X28351Y-26910D01*
X28325Y-26930D01*
X28295Y-26945D01*
X28264Y-26955D01*
X28231Y-26958D01*
X28195Y-26955D01*
X28156Y-26948D01*
X28121Y-26939D01*
X28086Y-26929D01*
X28053Y-26918D01*
X28021Y-26906D01*
X28017Y-26906D01*
X27987Y-26893D01*
X27957Y-26878D01*
X27929Y-26863D01*
X27903Y-26847D01*
X27870Y-26826D01*
X27840Y-26802D01*
X27813Y-26778D01*
X27809Y-26778D01*
X27783Y-26751D01*
X27760Y-26724D01*
X27740Y-26694D01*
X27716Y-26658D01*
X27693Y-26622D01*
X27671Y-26587D01*
X27651Y-26552D01*
X27631Y-26518D01*
X27613Y-26484D01*
X27595Y-26451D01*
X27579Y-26418D01*
X27563Y-26386D01*
X27549Y-26354D01*
X27573Y-26365D01*
X27597Y-26378D01*
X27620Y-26392D01*
X27642Y-26406D01*
X27646Y-26406D01*
X27667Y-26425D01*
X27688Y-26444D01*
X27709Y-26464D01*
X27729Y-26486D01*
X27756Y-26513D01*
X27786Y-26533D01*
X27818Y-26546D01*
X27853Y-26552D01*
X27890Y-26552D01*
X27931Y-26545D01*
X27961Y-26533D01*
X27983Y-26510D01*
X27983Y-26507D01*
X27997Y-26476D01*
X27997Y-26472D01*
X27999Y-26451D01*
X28000Y-26427D01*
X28000Y-26387D01*
X27999Y-26347D01*
X27999Y-26308D01*
X27998Y-26268D01*
X27998Y-26228D01*
X27997Y-26188D01*
X27997Y-26149D01*
X27996Y-26109D01*
X27995Y-26069D01*
X27995Y-26029D01*
X27994Y-25990D01*
X27993Y-25950D01*
X27992Y-25910D01*
X27992Y-25871D01*
X27991Y-25831D01*
X27990Y-25791D01*
X27989Y-25752D01*
X27988Y-25712D01*
X27987Y-25672D01*
X27986Y-25633D01*
X27984Y-25593D01*
X27983Y-25553D01*
X27982Y-25514D01*
X27981Y-25474D01*
X27979Y-25434D01*
X27978Y-25395D01*
X27977Y-25355D01*
X27975Y-25315D01*
X27974Y-25276D01*
X27972Y-25236D01*
X27971Y-25196D01*
X27969Y-25156D01*
X27968Y-25117D01*
X27966Y-25077D01*
X27965Y-25037D01*
X27963Y-24997D01*
X27962Y-24957D01*
X27960Y-24918D01*
X27959Y-24878D01*
X27958Y-24838D01*
X27956Y-24798D01*
X27955Y-24758D01*
X27953Y-24719D01*
X27952Y-24679D01*
X27951Y-24639D01*
X27949Y-24599D01*
X27948Y-24559D01*
X27946Y-24519D01*
X27945Y-24480D01*
X27944Y-24440D01*
X27942Y-24400D01*
X27941Y-24360D01*
X27940Y-24320D01*
X27938Y-24281D01*
X27937Y-24241D01*
X27936Y-24201D01*
X27934Y-24161D01*
X27933Y-24121D01*
X27932Y-24081D01*
X27931Y-24042D01*
X27969Y-24040D01*
X28008Y-24039D01*
X28045Y-24038D01*
X28045Y-24038D01*
G37*
G36*
X24142Y-24139D02*
X24121Y-24143D01*
X24101Y-24149D01*
X24076Y-24160D01*
X24052Y-24177D01*
X24035Y-24194D01*
X24022Y-24214D01*
X24010Y-24236D01*
X24003Y-24247D01*
X23997Y-24267D01*
X23991Y-24287D01*
X23986Y-24309D01*
X23981Y-24340D01*
X23976Y-24371D01*
X23972Y-24403D01*
X23968Y-24438D01*
X23965Y-24474D01*
X23962Y-24511D01*
X23960Y-24548D01*
X23958Y-24586D01*
X23957Y-24625D01*
X23957Y-24664D01*
X23958Y-24705D01*
X23965Y-24951D01*
X23976Y-25479D01*
X23990Y-26028D01*
X23991Y-26089D01*
X23992Y-26143D01*
X23993Y-26191D01*
X23994Y-26231D01*
X23995Y-26266D01*
X23996Y-26294D01*
X23996Y-26315D01*
X23997Y-26330D01*
X23994Y-26362D01*
X23990Y-26392D01*
X23986Y-26420D01*
X23977Y-26467D01*
X23966Y-26508D01*
X23953Y-26544D01*
X23937Y-26573D01*
X23920Y-26597D01*
X23888Y-26622D01*
X23851Y-26633D01*
X23809Y-26628D01*
X23806Y-26628D01*
X23782Y-26620D01*
X23757Y-26608D01*
X23717Y-26586D01*
X23681Y-26567D01*
X23647Y-26550D01*
X23615Y-26536D01*
X23587Y-26524D01*
X23583Y-26524D01*
X23542Y-26512D01*
X23508Y-26508D01*
X23483Y-26510D01*
X23427Y-24156D01*
X23021Y-24167D01*
X23080Y-26601D01*
X23087Y-26601D01*
X23054Y-26622D01*
X23017Y-26635D01*
X22979Y-26639D01*
X22938Y-26635D01*
X22934Y-26635D01*
X22904Y-26628D01*
X22872Y-26616D01*
X22840Y-26601D01*
X22806Y-26581D01*
X22770Y-26558D01*
X22733Y-26531D01*
X22750Y-26567D01*
X22768Y-26603D01*
X22786Y-26638D01*
X22805Y-26673D01*
X22823Y-26707D01*
X22842Y-26741D01*
X22862Y-26774D01*
X22881Y-26807D01*
X22901Y-26839D01*
X22921Y-26871D01*
X22941Y-26903D01*
X22965Y-26937D01*
X22993Y-26966D01*
X23023Y-26992D01*
X23055Y-27014D01*
X23091Y-27031D01*
X23128Y-27045D01*
X23160Y-27053D01*
X23194Y-27059D01*
X23229Y-27062D01*
X23256Y-27063D01*
X23285Y-27062D01*
X23325Y-27058D01*
X23359Y-27045D01*
X23389Y-27024D01*
X23414Y-26997D01*
X23433Y-26963D01*
X23448Y-26920D01*
X23459Y-26880D01*
X23470Y-26841D01*
X23483Y-26803D01*
X23496Y-26766D01*
X23511Y-26730D01*
X23526Y-26694D01*
X23542Y-26660D01*
X23575Y-26695D01*
X23608Y-26728D01*
X23641Y-26760D01*
X23674Y-26790D01*
X23707Y-26819D01*
X23739Y-26846D01*
X23771Y-26871D01*
X23803Y-26894D01*
X23834Y-26916D01*
X23865Y-26936D01*
X23896Y-26955D01*
X23927Y-26972D01*
X23957Y-26987D01*
X23987Y-27001D01*
X24017Y-27013D01*
X24047Y-27023D01*
X24076Y-27031D01*
X24111Y-27039D01*
X24146Y-27045D01*
X24182Y-27032D01*
X24215Y-27015D01*
X24246Y-26994D01*
X24273Y-26969D01*
X24298Y-26941D01*
X24319Y-26908D01*
X24337Y-26872D01*
X24352Y-26832D01*
X24365Y-26788D01*
X24372Y-26753D01*
X24377Y-26716D01*
X24380Y-26677D01*
X24382Y-26635D01*
X24382Y-26602D01*
X24382Y-26567D01*
X24382Y-26532D01*
X24381Y-26496D01*
X24380Y-26460D01*
X24378Y-26423D01*
X24376Y-26385D01*
X24374Y-26346D01*
X24371Y-26307D01*
X24368Y-26267D01*
X24330Y-24712D01*
X24330Y-24676D01*
X24346Y-24648D01*
X24379Y-24628D01*
X24427Y-24615D01*
X24462Y-24610D01*
X24499Y-24609D01*
X24538Y-24612D01*
X24579Y-24617D01*
X24622Y-24625D01*
X24659Y-24634D01*
X24698Y-24646D01*
X24682Y-24617D01*
X24664Y-24589D01*
X24645Y-24560D01*
X24625Y-24530D01*
X24602Y-24501D01*
X24579Y-24470D01*
X24553Y-24440D01*
X24527Y-24409D01*
X24498Y-24379D01*
X24469Y-24347D01*
X24438Y-24316D01*
X24395Y-24275D01*
X24355Y-24240D01*
X24319Y-24210D01*
X24285Y-24185D01*
X24255Y-24166D01*
X24227Y-24152D01*
X24203Y-24143D01*
X24181Y-24139D01*
X24142Y-24139D01*
X24142Y-24139D01*
X24142Y-24139D01*
G37*
G36*
X21778Y-24174D02*
X21751Y-24178D01*
X21726Y-24191D01*
X21708Y-24201D01*
X21701Y-24212D01*
X21682Y-24235D01*
X21663Y-24264D01*
X21651Y-24288D01*
X21639Y-24312D01*
X21628Y-24337D01*
X21615Y-24374D01*
X21605Y-24413D01*
X21598Y-24451D01*
X21593Y-24490D01*
X21590Y-24530D01*
X21590Y-24569D01*
X21592Y-24608D01*
X21593Y-24647D01*
X21595Y-24685D01*
X21597Y-24724D01*
X21598Y-24763D01*
X21600Y-24801D01*
X21603Y-24840D01*
X21605Y-24878D01*
X21608Y-24917D01*
X21610Y-24955D01*
X21613Y-24994D01*
X21616Y-25032D01*
X21619Y-25071D01*
X21622Y-25109D01*
X21626Y-25148D01*
X21629Y-25186D01*
X21633Y-25225D01*
X21637Y-25264D01*
X21641Y-25302D01*
X21646Y-25341D01*
X21650Y-25379D01*
X21655Y-25418D01*
X21659Y-25456D01*
X21664Y-25495D01*
X21670Y-25534D01*
X21675Y-25572D01*
X21681Y-25611D01*
X21686Y-25648D01*
X21691Y-25686D01*
X21696Y-25723D01*
X21700Y-25760D01*
X21704Y-25797D01*
X21708Y-25834D01*
X21712Y-25872D01*
X21712Y-25875D01*
X21715Y-25914D01*
X21718Y-25953D01*
X21721Y-25992D01*
X21723Y-26031D01*
X21725Y-26070D01*
X21727Y-26110D01*
X21728Y-26149D01*
X21729Y-26188D01*
X21730Y-26227D01*
X21730Y-26266D01*
X21730Y-26305D01*
X21730Y-26344D01*
X21729Y-26383D01*
X21728Y-26422D01*
X21727Y-26461D01*
X21725Y-26500D01*
X21723Y-26539D01*
X21721Y-26578D01*
X21718Y-26617D01*
X21715Y-26656D01*
X21710Y-26691D01*
X21701Y-26719D01*
X21688Y-26741D01*
X21670Y-26757D01*
X21649Y-26764D01*
X21625Y-26764D01*
X21622Y-26764D01*
X21592Y-26759D01*
X21559Y-26747D01*
X21518Y-26729D01*
X21479Y-26712D01*
X21442Y-26695D01*
X21406Y-26679D01*
X21371Y-26663D01*
X21338Y-26647D01*
X21306Y-26632D01*
X21328Y-26662D01*
X21350Y-26692D01*
X21373Y-26722D01*
X21395Y-26752D01*
X21419Y-26783D01*
X21442Y-26813D01*
X21466Y-26843D01*
X21490Y-26873D01*
X21514Y-26904D01*
X21538Y-26934D01*
X21564Y-26963D01*
X21592Y-26988D01*
X21622Y-27011D01*
X21655Y-27031D01*
X21690Y-27048D01*
X21728Y-27063D01*
X21768Y-27075D01*
X21810Y-27084D01*
X21855Y-27090D01*
X21903Y-27094D01*
X21934Y-27093D01*
X21962Y-27087D01*
X21986Y-27076D01*
X22012Y-27056D01*
X22032Y-27028D01*
X22046Y-26992D01*
X22056Y-26948D01*
X22060Y-26909D01*
X22063Y-26869D01*
X22066Y-26830D01*
X22068Y-26790D01*
X22069Y-26750D01*
X22070Y-26711D01*
X22070Y-26671D01*
X22069Y-26632D01*
X22068Y-26592D01*
X22067Y-26553D01*
X22066Y-26513D01*
X22065Y-26474D01*
X22063Y-26434D01*
X22062Y-26394D01*
X22060Y-26355D01*
X22059Y-26315D01*
X22057Y-26276D01*
X22055Y-26236D01*
X22053Y-26197D01*
X22051Y-26157D01*
X22048Y-26117D01*
X22046Y-26078D01*
X22044Y-26038D01*
X22041Y-25999D01*
X22038Y-25959D01*
X22036Y-25920D01*
X22033Y-25880D01*
X22030Y-25840D01*
X22027Y-25801D01*
X22024Y-25761D01*
X22021Y-25722D01*
X22017Y-25682D01*
X22014Y-25642D01*
X22011Y-25607D01*
X22008Y-25572D01*
X22005Y-25537D01*
X22003Y-25501D01*
X22001Y-25466D01*
X21999Y-25431D01*
X21997Y-25396D01*
X21995Y-25357D01*
X21993Y-25317D01*
X21991Y-25278D01*
X21990Y-25239D01*
X21989Y-25200D01*
X21988Y-25161D01*
X21987Y-25122D01*
X21987Y-25083D01*
X21986Y-25044D01*
X21986Y-25004D01*
X21986Y-24965D01*
X21987Y-24926D01*
X21988Y-24887D01*
X21988Y-24848D01*
X21990Y-24809D01*
X21991Y-24770D01*
X21993Y-24731D01*
X21994Y-24692D01*
X21997Y-24653D01*
X22007Y-24625D01*
X22027Y-24617D01*
X22057Y-24626D01*
X22097Y-24653D01*
X22128Y-24678D01*
X22158Y-24704D01*
X22186Y-24728D01*
X22213Y-24753D01*
X22239Y-24776D01*
X22264Y-24799D01*
X22278Y-24771D01*
X22284Y-24740D01*
X22282Y-24705D01*
X22272Y-24667D01*
X22254Y-24625D01*
X22228Y-24580D01*
X22194Y-24531D01*
X22172Y-24502D01*
X22148Y-24473D01*
X22124Y-24445D01*
X22098Y-24417D01*
X22071Y-24389D01*
X22044Y-24362D01*
X22015Y-24335D01*
X21985Y-24308D01*
X21955Y-24282D01*
X21923Y-24256D01*
X21891Y-24230D01*
X21858Y-24205D01*
X21840Y-24193D01*
X21823Y-24184D01*
X21816Y-24181D01*
X21802Y-24177D01*
X21778Y-24174D01*
X21778Y-24174D01*
X21778Y-24174D01*
G37*
G36*
X20344Y-24229D02*
X20309Y-24234D01*
X20278Y-24247D01*
X20267Y-24253D01*
X20260Y-24260D01*
X20250Y-24271D01*
X20240Y-24281D01*
X20229Y-24299D01*
X20212Y-24330D01*
X20205Y-24340D01*
X20205Y-24344D01*
X20194Y-24378D01*
X20189Y-24403D01*
X20184Y-24431D01*
X20194Y-24743D01*
X20171Y-24712D01*
X20148Y-24681D01*
X20125Y-24651D01*
X20101Y-24621D01*
X20077Y-24592D01*
X20053Y-24563D01*
X20029Y-24535D01*
X20004Y-24507D01*
X19979Y-24480D01*
X19954Y-24454D01*
X19928Y-24428D01*
X19903Y-24403D01*
X19872Y-24374D01*
X19840Y-24349D01*
X19807Y-24327D01*
X19773Y-24308D01*
X19740Y-24292D01*
X19705Y-24279D01*
X19671Y-24269D01*
X19635Y-24262D01*
X19599Y-24258D01*
X19563Y-24257D01*
X19527Y-24259D01*
X19496Y-24265D01*
X19469Y-24276D01*
X19444Y-24292D01*
X19418Y-24317D01*
X19397Y-24349D01*
X19381Y-24388D01*
X19372Y-24434D01*
X19366Y-24474D01*
X19362Y-24514D01*
X19358Y-24553D01*
X19354Y-24592D01*
X19351Y-24631D01*
X19348Y-24670D01*
X19345Y-24708D01*
X19342Y-24747D01*
X19340Y-24785D01*
X19333Y-24785D01*
X19375Y-26528D01*
X19370Y-26562D01*
X19362Y-26599D01*
X19349Y-26637D01*
X19333Y-26677D01*
X19323Y-26694D01*
X19295Y-26717D01*
X19257Y-26733D01*
X19225Y-26738D01*
X19189Y-26741D01*
X19147Y-26740D01*
X19101Y-26736D01*
X19120Y-26768D01*
X19141Y-26799D01*
X19161Y-26829D01*
X19182Y-26859D01*
X19203Y-26889D01*
X19225Y-26919D01*
X19247Y-26947D01*
X19269Y-26976D01*
X19292Y-27003D01*
X19318Y-27032D01*
X19347Y-27059D01*
X19371Y-27076D01*
X19396Y-27092D01*
X19424Y-27108D01*
X19451Y-27121D01*
X19480Y-27134D01*
X19510Y-27146D01*
X19543Y-27157D01*
X19578Y-27168D01*
X19615Y-27177D01*
X19637Y-27160D01*
X19658Y-27138D01*
X19677Y-27113D01*
X19694Y-27083D01*
X19705Y-27063D01*
X19715Y-27042D01*
X19715Y-27038D01*
X19728Y-27005D01*
X19740Y-26970D01*
X19750Y-26931D01*
X19757Y-26898D01*
X19763Y-26865D01*
X19769Y-26829D01*
X19774Y-26792D01*
X19778Y-26757D01*
X19782Y-26723D01*
X19786Y-26688D01*
X19789Y-26653D01*
X19792Y-26617D01*
X19795Y-26581D01*
X19798Y-26545D01*
X19800Y-26509D01*
X19802Y-26472D01*
X19804Y-26435D01*
X19806Y-26399D01*
X19807Y-26361D01*
X19808Y-26324D01*
X19809Y-26286D01*
X19809Y-26248D01*
X19809Y-26210D01*
X19809Y-26171D01*
X19809Y-26132D01*
X19809Y-26090D01*
X19808Y-26049D01*
X19807Y-26008D01*
X19806Y-25967D01*
X19805Y-25927D01*
X19803Y-25887D01*
X19802Y-25847D01*
X19800Y-25807D01*
X19798Y-25767D01*
X19796Y-25728D01*
X19794Y-25689D01*
X19791Y-25650D01*
X19789Y-25612D01*
X19786Y-25574D01*
X19784Y-25536D01*
X19781Y-25499D01*
X19778Y-25462D01*
X19773Y-25406D01*
X19769Y-25354D01*
X19765Y-25306D01*
X19762Y-25261D01*
X19759Y-25220D01*
X19756Y-25183D01*
X19754Y-25149D01*
X19753Y-25119D01*
X19752Y-25092D01*
X19751Y-25068D01*
X19750Y-25049D01*
X19748Y-25010D01*
X19746Y-24974D01*
X19746Y-24941D01*
X19747Y-24910D01*
X19749Y-24870D01*
X19754Y-24836D01*
X19760Y-24806D01*
X19778Y-24759D01*
X19804Y-24730D01*
X19837Y-24719D01*
X19863Y-24719D01*
X19889Y-24722D01*
X19892Y-24722D01*
X19925Y-24731D01*
X19957Y-24745D01*
X19990Y-24764D01*
X20023Y-24788D01*
X20056Y-24816D01*
X20086Y-24845D01*
X20116Y-24874D01*
X20144Y-24902D01*
X20171Y-24931D01*
X20197Y-24960D01*
X20223Y-24988D01*
X20247Y-25017D01*
X20271Y-26076D01*
X20295Y-27132D01*
X20705Y-27122D01*
X20632Y-24774D01*
X20662Y-24749D01*
X20694Y-24733D01*
X20731Y-24725D01*
X20771Y-24726D01*
X20812Y-24731D01*
X20853Y-24734D01*
X20892Y-24735D01*
X20931Y-24733D01*
X20921Y-24706D01*
X20910Y-24677D01*
X20899Y-24650D01*
X20887Y-24622D01*
X20873Y-24592D01*
X20857Y-24561D01*
X20840Y-24528D01*
X20822Y-24494D01*
X20802Y-24458D01*
X20784Y-24431D01*
X20763Y-24405D01*
X20739Y-24381D01*
X20712Y-24358D01*
X20682Y-24337D01*
X20649Y-24317D01*
X20613Y-24299D01*
X20574Y-24283D01*
X20531Y-24268D01*
X20486Y-24255D01*
X20437Y-24243D01*
X20385Y-24233D01*
X20364Y-24230D01*
X20344Y-24229D01*
X20344Y-24229D01*
X20344Y-24229D01*
G37*
G36*
X17799Y-24271D02*
X17799Y-24271D01*
X17833Y-24286D01*
X17866Y-24302D01*
X17900Y-24321D01*
X17933Y-24342D01*
X17965Y-24365D01*
X17992Y-24386D01*
X18019Y-24409D01*
X18045Y-24434D01*
X18068Y-24456D01*
X18091Y-24479D01*
X18114Y-24503D01*
X18137Y-24529D01*
X18160Y-24555D01*
X18182Y-24583D01*
X18204Y-24611D01*
X18226Y-24641D01*
X18248Y-24672D01*
X18270Y-24704D01*
X18291Y-24737D01*
X18313Y-24771D01*
X18334Y-24806D01*
X18355Y-24842D01*
X18376Y-24880D01*
X18396Y-24919D01*
X18417Y-24958D01*
X18434Y-24992D01*
X18450Y-25026D01*
X18466Y-25058D01*
X18482Y-25091D01*
X18497Y-25122D01*
X18511Y-25153D01*
X18525Y-25183D01*
X18538Y-25212D01*
X18558Y-25257D01*
X18576Y-25301D01*
X18592Y-25342D01*
X18607Y-25382D01*
X18621Y-25421D01*
X18633Y-25457D01*
X18643Y-25492D01*
X18653Y-25525D01*
X18660Y-25557D01*
X18667Y-25587D01*
X18673Y-25622D01*
X18677Y-25655D01*
X18678Y-25685D01*
X18677Y-25712D01*
X18674Y-25749D01*
X18670Y-25786D01*
X18666Y-25822D01*
X18661Y-25858D01*
X18656Y-25894D01*
X18650Y-25930D01*
X18645Y-25965D01*
X18639Y-26000D01*
X18632Y-26039D01*
X18624Y-26078D01*
X18616Y-26116D01*
X18608Y-26153D01*
X18599Y-26190D01*
X18590Y-26227D01*
X18580Y-26264D01*
X18580Y-26267D01*
X18571Y-26298D01*
X18561Y-26329D01*
X18552Y-26359D01*
X18542Y-26389D01*
X18542Y-26392D01*
X18529Y-26429D01*
X18516Y-26465D01*
X18503Y-26500D01*
X18489Y-26535D01*
X18475Y-26570D01*
X18460Y-26604D01*
X18445Y-26638D01*
X18429Y-26671D01*
X18413Y-26704D01*
X18396Y-26736D01*
X18374Y-26776D01*
X18351Y-26813D01*
X18327Y-26849D01*
X18303Y-26882D01*
X18278Y-26914D01*
X18252Y-26943D01*
X18226Y-26971D01*
X18199Y-26997D01*
X18171Y-27021D01*
X18142Y-27042D01*
X18113Y-27062D01*
X18083Y-27080D01*
X18049Y-27097D01*
X18013Y-27113D01*
X17976Y-27125D01*
X17938Y-27136D01*
X17900Y-27143D01*
X17860Y-27148D01*
X17819Y-27150D01*
X17778Y-27149D01*
X17746Y-27121D01*
X17715Y-27092D01*
X17684Y-27063D01*
X17654Y-27035D01*
X17625Y-27006D01*
X17597Y-26977D01*
X17569Y-26948D01*
X17542Y-26918D01*
X17515Y-26889D01*
X17489Y-26860D01*
X17464Y-26830D01*
X17439Y-26801D01*
X17415Y-26771D01*
X17392Y-26741D01*
X17369Y-26711D01*
X17347Y-26681D01*
X17326Y-26651D01*
X17305Y-26621D01*
X17285Y-26591D01*
X17420Y-26495D01*
X17438Y-26518D01*
X17456Y-26538D01*
X17476Y-26556D01*
X17479Y-26556D01*
X17496Y-26567D01*
X17514Y-26576D01*
X17556Y-26594D01*
X17595Y-26608D01*
X17632Y-26619D01*
X17666Y-26626D01*
X17697Y-26629D01*
X17725Y-26629D01*
X17750Y-26625D01*
X17779Y-26614D01*
X17806Y-26602D01*
X17833Y-26590D01*
X17864Y-26575D01*
X17894Y-26559D01*
X17922Y-26542D01*
X17949Y-26525D01*
X17976Y-26507D01*
X18007Y-26483D01*
X18037Y-26459D01*
X18065Y-26433D01*
X18092Y-26406D01*
X18116Y-26378D01*
X18138Y-26349D01*
X18159Y-26319D01*
X18177Y-26288D01*
X18194Y-26257D01*
X18208Y-26226D01*
X18222Y-26192D01*
X18234Y-26157D01*
X18245Y-26122D01*
X18256Y-26086D01*
X18265Y-26049D01*
X18274Y-26012D01*
X18281Y-25975D01*
X18288Y-25937D01*
X18293Y-25903D01*
X18298Y-25869D01*
X18302Y-25834D01*
X18305Y-25799D01*
X18307Y-25764D01*
X18309Y-25728D01*
X18309Y-25692D01*
X18310Y-25655D01*
X18309Y-25618D01*
X18309Y-25584D01*
X18308Y-25551D01*
X18307Y-25517D01*
X18305Y-25484D01*
X18302Y-25451D01*
X18302Y-25448D01*
X18298Y-25407D01*
X18292Y-25366D01*
X18286Y-25326D01*
X18278Y-25286D01*
X18270Y-25247D01*
X18261Y-25208D01*
X18251Y-25169D01*
X18240Y-25131D01*
X18228Y-25094D01*
X18215Y-25056D01*
X18202Y-25019D01*
X18188Y-24983D01*
X18170Y-24942D01*
X18153Y-24904D01*
X18135Y-24869D01*
X18117Y-24836D01*
X18099Y-24806D01*
X18081Y-24778D01*
X18063Y-24753D01*
X18040Y-24727D01*
X18017Y-24703D01*
X17993Y-24684D01*
X17976Y-24673D01*
X17958Y-24663D01*
X17924Y-24649D01*
X17924Y-24649D01*
X17898Y-24665D01*
X17872Y-24681D01*
X17847Y-24698D01*
X17823Y-24715D01*
X17798Y-24732D01*
X17774Y-24750D01*
X17747Y-24773D01*
X17721Y-24797D01*
X17695Y-24823D01*
X17670Y-24849D01*
X17646Y-24875D01*
X17626Y-24897D01*
X17606Y-24918D01*
X17587Y-24941D01*
X17565Y-24969D01*
X17544Y-24997D01*
X17524Y-25026D01*
X17504Y-25057D01*
X17485Y-25087D01*
X17466Y-25119D01*
X17448Y-25151D01*
X17431Y-25184D01*
X17414Y-25217D01*
X17398Y-25252D01*
X17384Y-25288D01*
X17371Y-25324D01*
X17359Y-25362D01*
X17348Y-25401D01*
X17339Y-25441D01*
X17330Y-25483D01*
X17324Y-25516D01*
X17318Y-25551D01*
X17313Y-25586D01*
X17309Y-25621D01*
X17305Y-25658D01*
X17302Y-25695D01*
X17300Y-25733D01*
X17299Y-25771D01*
X17298Y-25810D01*
X17299Y-25851D01*
X17300Y-25885D01*
X17301Y-25919D01*
X17303Y-25954D01*
X17306Y-25990D01*
X17306Y-25993D01*
X17308Y-26029D01*
X17312Y-26065D01*
X17315Y-26102D01*
X17319Y-26139D01*
X17326Y-26191D01*
X17334Y-26240D01*
X17343Y-26286D01*
X17353Y-26329D01*
X17364Y-26368D01*
X17376Y-26405D01*
X17390Y-26438D01*
X17404Y-26468D01*
X17420Y-26495D01*
X17285Y-26591D01*
X17266Y-26561D01*
X17247Y-26530D01*
X17229Y-26500D01*
X17211Y-26468D01*
X17193Y-26437D01*
X17176Y-26405D01*
X17159Y-26373D01*
X17143Y-26341D01*
X17128Y-26309D01*
X17115Y-26276D01*
X17101Y-26244D01*
X17089Y-26210D01*
X17077Y-26177D01*
X17066Y-26144D01*
X17056Y-26111D01*
X17045Y-26075D01*
X17035Y-26039D01*
X17026Y-26003D01*
X17018Y-25966D01*
X17011Y-25930D01*
X17005Y-25893D01*
X16999Y-25856D01*
X16995Y-25820D01*
X16991Y-25783D01*
X16988Y-25746D01*
X16986Y-25708D01*
X16985Y-25674D01*
X16985Y-25639D01*
X16986Y-25604D01*
X16987Y-25559D01*
X16990Y-25515D01*
X16992Y-25472D01*
X16996Y-25429D01*
X17000Y-25388D01*
X17005Y-25347D01*
X17011Y-25307D01*
X17018Y-25268D01*
X17025Y-25230D01*
X17033Y-25193D01*
X17042Y-25156D01*
X17052Y-25120D01*
X17063Y-25085D01*
X17074Y-25051D01*
X17087Y-25017D01*
X17090Y-25014D01*
X17103Y-24982D01*
X17117Y-24950D01*
X17132Y-24920D01*
X17147Y-24890D01*
X17164Y-24862D01*
X17181Y-24833D01*
X17181Y-24830D01*
X17198Y-24802D01*
X17217Y-24776D01*
X17236Y-24750D01*
X17262Y-24718D01*
X17288Y-24687D01*
X17314Y-24656D01*
X17341Y-24626D01*
X17369Y-24597D01*
X17396Y-24569D01*
X17425Y-24542D01*
X17453Y-24515D01*
X17483Y-24489D01*
X17512Y-24464D01*
X17542Y-24439D01*
X17573Y-24416D01*
X17604Y-24393D01*
X17635Y-24371D01*
X17667Y-24349D01*
X17699Y-24328D01*
X17732Y-24309D01*
X17765Y-24289D01*
X17799Y-24271D01*
X17799Y-24271D01*
G37*
G36*
X23646Y-24365D02*
X23660Y-24938D01*
X23753Y-25128D01*
X23750Y-24958D01*
X23750Y-24955D01*
X23743Y-24712D01*
X23742Y-24674D01*
X23742Y-24636D01*
X23742Y-24599D01*
X23743Y-24563D01*
X23646Y-24365D01*
X23646Y-24365D01*
G37*
G36*
X18587Y-24819D02*
X18597Y-24840D01*
X18608Y-24861D01*
X18628Y-24901D01*
X18647Y-24940D01*
X18666Y-24978D01*
X18684Y-25016D01*
X18702Y-25052D01*
X18719Y-25087D01*
X18735Y-25122D01*
X18750Y-25156D01*
X18765Y-25189D01*
X18779Y-25222D01*
X18792Y-25253D01*
X18804Y-25285D01*
X18816Y-25315D01*
X18827Y-25345D01*
X18837Y-25375D01*
X18867Y-25400D01*
X18896Y-25425D01*
X18926Y-25449D01*
X18956Y-25474D01*
X18986Y-25498D01*
X19017Y-25523D01*
X19047Y-25547D01*
X19077Y-25571D01*
X19108Y-25594D01*
X19139Y-25618D01*
X19132Y-25302D01*
X19102Y-25278D01*
X19073Y-25254D01*
X19043Y-25229D01*
X19014Y-25205D01*
X18984Y-25180D01*
X18955Y-25155D01*
X18926Y-25130D01*
X18897Y-25105D01*
X18868Y-25080D01*
X18840Y-25054D01*
X18811Y-25029D01*
X18783Y-25003D01*
X18754Y-24977D01*
X18726Y-24951D01*
X18698Y-24925D01*
X18670Y-24899D01*
X18642Y-24873D01*
X18614Y-24846D01*
X18587Y-24819D01*
X18587Y-24819D01*
X18587Y-24819D01*
G37*
G36*
X27750Y-25021D02*
X27717Y-25041D01*
X27684Y-25062D01*
X27651Y-25082D01*
X27618Y-25102D01*
X27584Y-25121D01*
X27551Y-25141D01*
X27517Y-25160D01*
X27483Y-25180D01*
X27449Y-25199D01*
X27415Y-25218D01*
X27381Y-25236D01*
X27347Y-25255D01*
X27312Y-25273D01*
X27278Y-25291D01*
X27243Y-25309D01*
X27254Y-25344D01*
X27264Y-25378D01*
X27274Y-25412D01*
X27283Y-25445D01*
X27291Y-25478D01*
X27299Y-25510D01*
X27332Y-25493D01*
X27366Y-25476D01*
X27399Y-25459D01*
X27432Y-25442D01*
X27465Y-25425D01*
X27498Y-25407D01*
X27531Y-25389D01*
X27563Y-25372D01*
X27596Y-25354D01*
X27628Y-25335D01*
X27661Y-25317D01*
X27693Y-25298D01*
X27725Y-25280D01*
X27757Y-25260D01*
X27757Y-25243D01*
X27756Y-25206D01*
X27755Y-25169D01*
X27753Y-25132D01*
X27752Y-25095D01*
X27751Y-25058D01*
X27750Y-25021D01*
X27750Y-25021D01*
X27750Y-25021D01*
G37*
G36*
X20865Y-25281D02*
X20872Y-25500D01*
X20907Y-25518D01*
X20942Y-25535D01*
X20977Y-25552D01*
X21013Y-25569D01*
X21048Y-25586D01*
X21084Y-25602D01*
X21120Y-25618D01*
X21156Y-25635D01*
X21191Y-25650D01*
X21228Y-25666D01*
X21264Y-25681D01*
X21300Y-25697D01*
X21336Y-25712D01*
X21373Y-25727D01*
X21409Y-25742D01*
X21446Y-25756D01*
X21483Y-25771D01*
X21479Y-25739D01*
X21476Y-25707D01*
X21473Y-25674D01*
X21469Y-25642D01*
X21465Y-25613D01*
X21462Y-25584D01*
X21458Y-25556D01*
X21423Y-25541D01*
X21387Y-25526D01*
X21351Y-25511D01*
X21316Y-25496D01*
X21281Y-25480D01*
X21245Y-25465D01*
X21210Y-25449D01*
X21175Y-25433D01*
X21140Y-25417D01*
X21106Y-25401D01*
X21071Y-25384D01*
X21036Y-25368D01*
X21002Y-25351D01*
X20967Y-25334D01*
X20933Y-25316D01*
X20899Y-25299D01*
X20865Y-25281D01*
X20865Y-25281D01*
X20865Y-25281D01*
G37*
G36*
X28924Y-25417D02*
X28893Y-25440D01*
X28863Y-25463D01*
X28833Y-25485D01*
X28803Y-25508D01*
X28772Y-25531D01*
X28742Y-25553D01*
X28711Y-25575D01*
X28680Y-25597D01*
X28649Y-25619D01*
X28618Y-25641D01*
X28587Y-25662D01*
X28556Y-25684D01*
X28558Y-25719D01*
X28562Y-25754D01*
X28566Y-25789D01*
X28570Y-25823D01*
X28574Y-25858D01*
X28579Y-25892D01*
X28583Y-25927D01*
X28614Y-25907D01*
X28645Y-25886D01*
X28675Y-25865D01*
X28705Y-25845D01*
X28736Y-25824D01*
X28766Y-25803D01*
X28796Y-25782D01*
X28826Y-25760D01*
X28856Y-25739D01*
X28885Y-25717D01*
X28915Y-25696D01*
X28944Y-25674D01*
X28943Y-25651D01*
X28941Y-25628D01*
X28944Y-25628D01*
X28941Y-25593D01*
X28938Y-25557D01*
X28934Y-25522D01*
X28931Y-25487D01*
X28927Y-25452D01*
X28924Y-25417D01*
X28924Y-25417D01*
X28924Y-25417D01*
G37*
G36*
X26465Y-25646D02*
X26430Y-25658D01*
X26395Y-25671D01*
X26360Y-25683D01*
X26324Y-25695D01*
X26289Y-25707D01*
X26253Y-25719D01*
X26218Y-25730D01*
X26182Y-25741D01*
X26146Y-25752D01*
X26110Y-25763D01*
X26074Y-25774D01*
X26038Y-25785D01*
X26039Y-25820D01*
X26039Y-25855D01*
X26040Y-25891D01*
X26040Y-25926D01*
X26041Y-25961D01*
X26042Y-25997D01*
X26078Y-25986D01*
X26114Y-25976D01*
X26150Y-25965D01*
X26186Y-25954D01*
X26223Y-25943D01*
X26259Y-25932D01*
X26294Y-25921D01*
X26330Y-25909D01*
X26366Y-25897D01*
X26402Y-25886D01*
X26437Y-25873D01*
X26472Y-25861D01*
X26472Y-25830D01*
X26472Y-25799D01*
X26471Y-25759D01*
X26470Y-25721D01*
X26468Y-25683D01*
X26465Y-25646D01*
X26465Y-25646D01*
X26465Y-25646D01*
G37*
G36*
X22240Y-25823D02*
X22242Y-25857D01*
X22245Y-25890D01*
X22249Y-25924D01*
X22252Y-25957D01*
X22254Y-25991D01*
X22257Y-26024D01*
X22294Y-26034D01*
X22331Y-26043D01*
X22368Y-26053D01*
X22405Y-26062D01*
X22442Y-26071D01*
X22479Y-26080D01*
X22516Y-26088D01*
X22553Y-26097D01*
X22591Y-26105D01*
X22628Y-26113D01*
X22666Y-26121D01*
X22703Y-26128D01*
X22741Y-26136D01*
X22778Y-26143D01*
X22816Y-26150D01*
X22854Y-26156D01*
X22847Y-25962D01*
X22809Y-25955D01*
X22770Y-25948D01*
X22732Y-25940D01*
X22693Y-25932D01*
X22655Y-25924D01*
X22617Y-25916D01*
X22579Y-25908D01*
X22541Y-25899D01*
X22503Y-25890D01*
X22465Y-25881D01*
X22428Y-25872D01*
X22390Y-25863D01*
X22352Y-25853D01*
X22315Y-25843D01*
X22277Y-25833D01*
X22240Y-25823D01*
X22240Y-25823D01*
X22240Y-25823D01*
G37*
G36*
X20017Y-25927D02*
X20019Y-25960D01*
X20020Y-25994D01*
X20022Y-26027D01*
X20023Y-26061D01*
X20024Y-26094D01*
X20024Y-26128D01*
X20024Y-26165D01*
X20024Y-26201D01*
X20042Y-26212D01*
X20059Y-26222D01*
X20056Y-26080D01*
X20052Y-25948D01*
X20035Y-25938D01*
X20017Y-25927D01*
X20017Y-25927D01*
X20017Y-25927D01*
G37*
G36*
X23688Y-26056D02*
X23691Y-26253D01*
X23721Y-26256D01*
X23751Y-26258D01*
X23781Y-26260D01*
X23780Y-26239D01*
X23779Y-26214D01*
X23778Y-26184D01*
X23777Y-26149D01*
X23775Y-26108D01*
X23774Y-26059D01*
X23745Y-26058D01*
X23716Y-26057D01*
X23688Y-26056D01*
X23688Y-26056D01*
X23688Y-26056D01*
G37*
G36*
X27778Y-26153D02*
X27750Y-26167D01*
X27722Y-26181D01*
X27694Y-26194D01*
X27724Y-26217D01*
X27752Y-26240D01*
X27781Y-26264D01*
X27780Y-26227D01*
X27779Y-26190D01*
X27778Y-26153D01*
X27778Y-26153D01*
X27778Y-26153D01*
G37*
G36*
X27337Y-26372D02*
X27330Y-26375D01*
X27327Y-26409D01*
X27324Y-26443D01*
X27321Y-26477D01*
X27318Y-26512D01*
X27314Y-26546D01*
X27310Y-26580D01*
X27306Y-26615D01*
X27302Y-26625D01*
X27332Y-26612D01*
X27361Y-26599D01*
X27391Y-26586D01*
X27420Y-26573D01*
X27403Y-26540D01*
X27385Y-26506D01*
X27369Y-26474D01*
X27354Y-26441D01*
X27343Y-26407D01*
X27337Y-26372D01*
X27337Y-26372D01*
X27337Y-26372D01*
G37*
G36*
X20899Y-26382D02*
X20906Y-26642D01*
X20941Y-26657D01*
X20975Y-26671D01*
X21010Y-26685D01*
X21045Y-26698D01*
X21080Y-26712D01*
X21115Y-26726D01*
X21101Y-26692D01*
X21094Y-26656D01*
X21093Y-26619D01*
X21097Y-26583D01*
X21108Y-26548D01*
X21124Y-26515D01*
X21146Y-26486D01*
X21110Y-26472D01*
X21075Y-26457D01*
X21040Y-26442D01*
X21004Y-26428D01*
X20969Y-26413D01*
X20934Y-26397D01*
X20899Y-26382D01*
X20899Y-26382D01*
X20899Y-26382D01*
G37*
G36*
X22278Y-26851D02*
X22276Y-26881D01*
X22273Y-26911D01*
X22271Y-26942D01*
X22267Y-26972D01*
X22267Y-26976D01*
X22262Y-27009D01*
X22254Y-27043D01*
X22243Y-27076D01*
X22280Y-27085D01*
X22317Y-27093D01*
X22354Y-27101D01*
X22391Y-27110D01*
X22429Y-27117D01*
X22466Y-27125D01*
X22503Y-27133D01*
X22541Y-27140D01*
X22578Y-27147D01*
X22616Y-27155D01*
X22653Y-27161D01*
X22691Y-27168D01*
X22728Y-27175D01*
X22766Y-27181D01*
X22804Y-27187D01*
X22841Y-27193D01*
X22879Y-27199D01*
X22917Y-27205D01*
X22955Y-27210D01*
X22993Y-27215D01*
X22959Y-27198D01*
X22926Y-27179D01*
X22895Y-27157D01*
X22865Y-27134D01*
X22837Y-27109D01*
X22810Y-27081D01*
X22786Y-27052D01*
X22764Y-27021D01*
X22760Y-27017D01*
X22745Y-26992D01*
X22730Y-26966D01*
X22715Y-26941D01*
X22679Y-26935D01*
X22642Y-26928D01*
X22605Y-26921D01*
X22569Y-26914D01*
X22532Y-26906D01*
X22496Y-26899D01*
X22459Y-26891D01*
X22423Y-26883D01*
X22386Y-26875D01*
X22350Y-26867D01*
X22314Y-26859D01*
X22278Y-26851D01*
X22278Y-26851D01*
X22278Y-26851D01*
G37*
G36*
X26063Y-26976D02*
X26053Y-27012D01*
X26042Y-27049D01*
X26071Y-27041D01*
X26100Y-27032D01*
X26128Y-27024D01*
X26106Y-27009D01*
X26083Y-26993D01*
X26063Y-26976D01*
X26063Y-26976D01*
X26063Y-26976D01*
G37*
G36*
X25181Y-26986D02*
X25141Y-26991D01*
X25102Y-26996D01*
X25063Y-27001D01*
X25024Y-27006D01*
X24985Y-27010D01*
X24946Y-27014D01*
X24907Y-27018D01*
X24868Y-27022D01*
X24829Y-27025D01*
X24790Y-27029D01*
X24751Y-27032D01*
X24712Y-27035D01*
X24673Y-27037D01*
X24634Y-27040D01*
X24595Y-27042D01*
X24557Y-27045D01*
X24518Y-27047D01*
X24479Y-27049D01*
X24456Y-27079D01*
X24431Y-27108D01*
X24403Y-27135D01*
X24374Y-27161D01*
X24343Y-27184D01*
X24310Y-27204D01*
X24276Y-27222D01*
X24241Y-27238D01*
X24205Y-27250D01*
X24176Y-27256D01*
X24147Y-27259D01*
X24118Y-27257D01*
X24082Y-27251D01*
X24046Y-27244D01*
X24011Y-27234D01*
X23976Y-27222D01*
X23941Y-27209D01*
X23907Y-27194D01*
X23873Y-27177D01*
X23839Y-27159D01*
X23806Y-27139D01*
X23773Y-27118D01*
X23740Y-27096D01*
X23707Y-27073D01*
X23674Y-27049D01*
X23646Y-27047D01*
X23618Y-27045D01*
X23605Y-27076D01*
X23591Y-27106D01*
X23574Y-27135D01*
X23553Y-27162D01*
X23528Y-27188D01*
X23496Y-27211D01*
X23462Y-27230D01*
X23426Y-27245D01*
X23389Y-27257D01*
X23444Y-27261D01*
X23500Y-27266D01*
X23555Y-27269D01*
X23611Y-27273D01*
X23667Y-27276D01*
X23722Y-27279D01*
X23778Y-27281D01*
X23834Y-27283D01*
X23890Y-27284D01*
X23946Y-27286D01*
X24002Y-27286D01*
X24059Y-27287D01*
X24115Y-27287D01*
X24171Y-27287D01*
X24228Y-27286D01*
X24284Y-27285D01*
X24340Y-27283D01*
X24397Y-27281D01*
X24454Y-27279D01*
X24510Y-27276D01*
X24567Y-27273D01*
X24624Y-27270D01*
X24681Y-27266D01*
X24738Y-27261D01*
X24795Y-27257D01*
X24852Y-27252D01*
X24909Y-27246D01*
X24966Y-27240D01*
X25023Y-27234D01*
X25080Y-27227D01*
X25137Y-27219D01*
X25194Y-27212D01*
X25234Y-27206D01*
X25272Y-27200D01*
X25311Y-27194D01*
X25350Y-27187D01*
X25388Y-27180D01*
X25427Y-27174D01*
X25393Y-27156D01*
X25360Y-27137D01*
X25328Y-27115D01*
X25297Y-27093D01*
X25267Y-27068D01*
X25238Y-27042D01*
X25210Y-27015D01*
X25184Y-26986D01*
X25181Y-26986D01*
X25181Y-26986D01*
X25181Y-26986D01*
G37*
G54D12*
X22501Y-11177D02*
X22077Y-11601D01*
X23208Y-11884D02*
X22784Y-12308D01*
X23916Y-12592D02*
X23492Y-13016D01*
X24623Y-13299D02*
X24199Y-13723D01*
G54D13*
X34500Y-24500D03*
X35500Y-24500D03*
G54D14*
X17850Y-16500D03*
X17850Y-15500D03*
X17063Y-15500D03*
X17063Y-16500D03*
G54D15*
X16000Y-18362D03*
X16000Y-13638D03*
G54D16*
X20500Y-09500D03*
X20000Y-28500D03*
X40500Y-26500D03*
X40500Y-15500D03*
G54D17*
X39555Y-17520D03*
G54D14*
X40555Y-17520D03*
X39555Y-18520D03*
X40555Y-18520D03*
X39555Y-19520D03*
X40555Y-19520D03*
G54D18*
X27500Y-28500D03*
X28500Y-28500D03*
X29500Y-28500D03*
X30500Y-28500D03*
X31500Y-28500D03*
X32500Y-28500D03*
X34500Y-28500D03*
X35500Y-28500D03*
X36500Y-28500D03*
X37500Y-28500D03*
X38500Y-28500D03*
X39500Y-28500D03*
X31000Y-09500D03*
X30000Y-09500D03*
X29000Y-09500D03*
X28000Y-09500D03*
X27000Y-09500D03*
X26000Y-09500D03*
X25000Y-09500D03*
X24000Y-09500D03*
X39500Y-09500D03*
X38500Y-09500D03*
X37500Y-09500D03*
X36500Y-09500D03*
X35500Y-09500D03*
X34500Y-09500D03*
X33500Y-09500D03*
X32500Y-09500D03*
M02*
